SplineFontDB: 3.2
FontName: BrogueCE
FullName: Brogue: Community Edition
FamilyName: Brogue
Weight: Regular
Copyright: Copyright (c) 2021, Oryx, Tom Mewett, Antony Boucher, and others
UComments: "2021-2-7: Created with FontForge (http://fontforge.org)"
Version: 1.9.3
ItalicAngle: 0
UnderlinePosition: -102.4
UnderlineWidth: 51.2
Ascent: 821
Descent: 203
InvalidEm: 0
LayerCount: 2
Layer: 0 0 "Back" 1
Layer: 1 0 "Fore" 0
XUID: [1021 84 -1777182997 16495438]
StyleMap: 0x0000
FSType: 0
OS2Version: 0
OS2_WeightWidthSlopeOnly: 0
OS2_UseTypoMetrics: 1
CreationTime: 1612733725
ModificationTime: 1612746237
OS2TypoAscent: 0
OS2TypoAOffset: 1
OS2TypoDescent: 0
OS2TypoDOffset: 1
OS2TypoLinegap: 92
OS2WinAscent: 0
OS2WinAOffset: 1
OS2WinDescent: 0
OS2WinDOffset: 1
HheadAscent: 0
HheadAOffset: 1
HheadDescent: 0
HheadDOffset: 1
MarkAttachClasses: 1
DEI: 91125
Encoding: UnicodeBmp
UnicodeInterp: none
NameList: AGL For New Fonts
DisplaySize: -48
AntiAlias: 1
FitToEm: 0
WinInfo: 0 38 14
BeginPrivate: 0
EndPrivate
BeginChars: 65536 351

StartChar: exclam
Encoding: 33 33 1
Width: 565
VWidth: 0
Flags: HW
LayerCount: 2
Back
Fore
SplineSet
227 41 m 0
 227 66 248 96 283 96 c 0
 318 96 339 69 339 41 c 0
 339 12 313 -15 284 -15 c 0
 254 -15 227 12 227 41 c 0
233 593 m 2
 232 616 l 1
 264 616 297 616 329 616 c 1
 328 591 l 2
 326 553 311 205 311 191 c 2
 311 179 l 1
 290 179 270 179 249 179 c 1
 249 189 l 2
 249 202 235 565 233 593 c 2
EndSplineSet
EndChar

StartChar: quotedbl
Encoding: 34 34 2
Width: 565
VWidth: 0
Flags: HW
LayerCount: 2
Back
Fore
SplineSet
344 423 m 0
 344 434 324 624 322 640 c 1
 354 640 386 640 418 640 c 1
 416 621 412 585 405 519 c 2
 394 419 l 1
 369 419 l 2
 347 419 344 419 344 423 c 0
175 419 m 1
 171 440 150 626 150 636 c 0
 150 640 152 640 198 640 c 2
 246 640 l 1
 239 567 231 493 224 420 c 1
 199 420 l 1
 175 419 l 1
EndSplineSet
EndChar

StartChar: numbersign
Encoding: 35 35 3
Width: 565
VWidth: 0
Flags: HW
LayerCount: 2
Back
Fore
SplineSet
201 439 m 1
 202 441 248 608 248 613 c 0
 249 615 268 616 284 616 c 0
 295 616 305 615 305 614 c 0
 305 612 260 451 260 442 c 0
 260 440 271 439 316 439 c 2
 371 439 l 1
 375 449 383 480 398 532 c 1
 420 616 l 1
 449 616 l 2
 475 616 477 616 476 612 c 0
 471 595 430 444 430 442 c 0
 430 440 441 439 463 439 c 2
 497 439 l 1
 497 421 497 404 497 386 c 1
 455 386 l 1
 414 385 l 1
 392 305 l 2
 380 261 371 223 371 223 c 1
 413 223 455 223 497 223 c 1
 497 205 497 188 497 170 c 1
 451 170 404 170 358 170 c 1
 353 161 318 28 314 16 c 2
 311 4 l 1
 282 4 l 2
 260 4 253 5 254 7 c 0
 257 14 298 164 298 167 c 0
 298 170 290 170 244 170 c 0
 195 170 190 170 188 166 c 0
 187 164 177 126 166 83 c 2
 145 4 l 1
 117 4 l 2
 101 4 88 5 88 6 c 0
 88 14 130 160 130 168 c 0
 130 170 120 170 99 170 c 2
 68 170 l 1
 68 188 68 205 68 223 c 1
 146 223 l 1
 146 223 155 260 167 305 c 2
 189 386 l 1
 149 386 108 386 68 386 c 1
 68 404 68 421 68 439 c 1
 112 439 157 439 201 439 c 1
358 383 m 0
 358 385 345 386 301 386 c 0
 258 386 245 386 244 384 c 0
 242 379 203 225 203 224 c 0
 203 223 228 223 259 223 c 2
 314 224 l 1
 336 302 l 2
 348 345 358 381 358 383 c 0
EndSplineSet
EndChar

StartChar: dollar
Encoding: 36 36 4
Width: 565
VWidth: 0
Flags: HW
LayerCount: 2
Back
Fore
SplineSet
269 609 m 1
 269 631 269 653 269 675 c 1
 287 675 306 675 324 675 c 1
 324 653 324 632 324 610 c 1
 345 608 l 2
 367 606 393 603 419 597 c 2
 435 593 l 1
 435 571 435 548 435 526 c 1
 408 533 l 2
 382 540 337 550 328 550 c 0
 324 550 324 545 324 442 c 2
 324 334 l 1
 354 317 l 2
 425 277 456 246 470 203 c 0
 474 190 476 177 476 164 c 0
 476 127 461 90 432 61 c 0
 407 36 378 19 338 11 c 2
 324 8 l 1
 324 -15 324 -37 324 -60 c 1
 306 -60 287 -60 269 -60 c 1
 269 -39 269 -19 269 2 c 1
 244 3 l 1
 196 6 159 13 124 26 c 2
 104 34 l 1
 104 71 l 2
 104 92 104 108 105 108 c 0
 106 108 113 105 121 101 c 0
 156 84 211 68 250 65 c 1
 269 63 l 1
 269 137 269 210 269 284 c 1
 238 301 l 2
 189 328 163 347 142 373 c 0
 119 400 108 430 108 461 c 0
 108 507 133 546 160 569 c 0
 183 590 225 605 269 609 c 1
269 459 m 2
 269 506 l 2
 269 540 268 549 262 549 c 0
 259 549 254 546 246 543 c 0
 215 531 186 508 186 471 c 0
 186 449 197 426 218 406 c 0
 231 394 265 369 268 369 c 0
 269 369 269 409 269 459 c 2
324 68 m 1
 370 83 398 111 398 158 c 0
 398 187 382 209 344 237 c 0
 335 244 327 249 326 249 c 0
 325 249 324 209 324 159 c 2
 324 68 l 1
EndSplineSet
EndChar

StartChar: percent
Encoding: 37 37 5
Width: 565
VWidth: 0
Flags: HW
LayerCount: 2
Back
Fore
SplineSet
374 306 m 0
 383 308 390 309 397 309 c 0
 460 309 500 266 515 216 c 0
 520 201 520 195 520 160 c 0
 520 115 516 99 501 70 c 0
 491 50 465 23 448 15 c 0
 433 8 415 3 398 3 c 0
 361 3 338 17 315 42 c 0
 292 67 281 99 279 146 c 0
 279 150 279 154 279 158 c 0
 279 237 315 294 374 306 c 0
461 155 m 0
 461 215 444 260 401 260 c 0
 354 260 339 211 339 151 c 0
 339 105 354 71 380 57 c 0
 388 53 394 51 401 51 c 0
 412 51 422 56 433 67 c 0
 452 86 461 114 461 155 c 0
161 310 m 0
 80 310 41 377 41 462 c 0
 41 544 78 598 137 612 c 0
 144 614 153 614 162 614 c 0
 176 614 190 613 201 609 c 0
 252 591 284 537 284 459 c 0
 284 374 240 310 161 310 c 0
163 358 m 0
 211 358 224 415 224 464 c 0
 224 488 220 512 212 531 c 0
 207 542 194 558 185 562 c 0
 180 565 169 566 160 566 c 0
 118 566 102 520 102 462 c 0
 102 401 119 358 163 358 c 0
449 618 m 1
 459 633 l 1
 480 633 502 633 523 633 c 1
 512 616 l 2
 506 607 412 461 303 292 c 2
 105 -14 l 1
 73 -15 l 2
 56 -15 42 -15 42 -14 c 0
 42 -13 321 420 449 618 c 1
EndSplineSet
EndChar

StartChar: ampersand
Encoding: 38 38 6
Width: 565
VWidth: 0
Flags: HW
LayerCount: 2
Back
Fore
SplineSet
225 -15 m 0
 123 -15 41 48 41 152 c 0
 41 183 45 202 55 226 c 0
 70 263 88 288 123 323 c 2
 148 348 l 1
 133 368 l 2
 114 395 102 416 93 440 c 0
 87 456 84 475 84 492 c 0
 84 502 85 512 87 521 c 0
 103 587 155 632 233 632 c 0
 246 632 260 631 269 629 c 0
 285 625 314 610 326 599 c 0
 346 580 357 552 357 521 c 0
 357 486 341 448 324 424 c 0
 312 408 282 380 260 362 c 0
 243 348 243 348 247 343 c 0
 260 326 381 177 382 177 c 0
 383 177 385 180 386 184 c 0
 391 200 393 220 394 266 c 2
 396 313 l 1
 420 313 444 313 468 313 c 1
 468 298 l 2
 468 238 456 178 437 136 c 0
 430 121 430 119 432 115 c 0
 435 111 476 59 509 19 c 2
 523 2 l 1
 492 2 462 2 431 2 c 1
 409 28 l 2
 397 42 388 53 387 53 c 0
 386 53 380 48 373 41 c 0
 334 5 295 -12 240 -15 c 0
 235 -15 230 -15 225 -15 c 0
291 518 m 0
 291 557 265 578 226 578 c 0
 181 578 156 546 156 499 c 0
 156 483 159 466 165 454 c 0
 172 439 202 395 205 395 c 0
 211 395 249 430 263 449 c 0
 282 474 291 497 291 518 c 0
110 159 m 0
 110 89 165 44 230 44 c 0
 237 44 243 45 250 46 c 0
 283 51 304 62 332 89 c 2
 347 103 l 1
 267 201 l 2
 223 255 187 300 187 300 c 2
 183 300 155 270 145 256 c 0
 123 226 110 192 110 159 c 0
EndSplineSet
EndChar

StartChar: quotesingle
Encoding: 39 39 7
Width: 565
VWidth: 0
Flags: HW
LayerCount: 2
Back
Fore
SplineSet
256 397 m 0
 256 406 216 628 216 637 c 0
 216 639 233 640 283 640 c 2
 349 640 l 1
 347 630 340 584 328 513 c 2
 308 395 l 1
 282 395 l 2
 265 395 256 395 256 397 c 0
EndSplineSet
EndChar

StartChar: parenleft
Encoding: 40 40 8
Width: 565
VWidth: 0
Flags: HW
LayerCount: 2
Back
Fore
SplineSet
439 649 m 0
 447 650 452 651 456 651 c 0
 463 651 463 648 463 636 c 2
 463 604 l 2
 463 588 461 591 437 587 c 0
 304 567 194 426 194 253 c 0
 194 69 307 -61 446 -82 c 1
 463 -84 l 1
 463 -104 463 -123 463 -143 c 1
 453 -143 l 2
 428 -143 375 -131 341 -117 c 0
 251 -80 178 5 138 119 c 0
 123 163 115 207 115 252 c 0
 115 304 125 356 145 406 c 0
 202 550 299 631 439 649 c 0
EndSplineSet
EndChar

StartChar: parenright
Encoding: 41 41 9
Width: 565
VWidth: 0
Flags: HW
LayerCount: 2
Back
Fore
SplineSet
102 621 m 2
 102 651 l 1
 108 651 l 2
 112 651 123 650 132 649 c 0
 252 633 343 565 401 449 c 0
 433 385 449 320 449 254 c 0
 449 185 431 115 395 47 c 0
 350 -37 282 -98 202 -125 c 0
 182 -132 140 -140 117 -142 c 1
 102 -144 l 1
 102 -95 l 2
 102 -84 102 -84 106 -83 c 0
 109 -83 120 -81 131 -79 c 0
 260 -56 372 78 372 254 c 0
 372 417 276 543 162 579 c 0
 148 584 111 591 103 591 c 0
 102 591 102 605 102 621 c 2
EndSplineSet
EndChar

StartChar: asterisk
Encoding: 42 42 10
Width: 565
VWidth: 0
Flags: HW
LayerCount: 2
Back
Fore
SplineSet
245 626 m 2
 245 633 l 1
 318 633 l 1
 317 618 l 1
 313 576 308 509 308 498 c 2
 308 497 l 1
 411 562 400 555 423 569 c 1
 423 569 431 555 441 538 c 2
 459 508 l 1
 403 481 l 2
 372 466 346 453 343 452 c 0
 340 451 338 449 338 448 c 2
 457 387 l 1
 457 384 423 327 421 327 c 0
 418 327 414 331 308 399 c 1
 308 398 l 2
 308 388 314 313 317 279 c 2
 318 263 l 1
 245 263 l 1
 245 270 l 2
 245 272 253 397 253 399 c 1
 142 328 144 327 142 327 c 0
 140 327 108 385 108 387 c 0
 108 388 108 389 109 389 c 2
 109 389 225 447 225 448 c 0
 225 449 109 507 109 507 c 2
 108 508 108 509 108 510 c 0
 108 514 111 521 122 539 c 0
 132 555 140 569 140 569 c 1
 140 569 250 497 252 497 c 1
 252 500 245 625 245 626 c 2
EndSplineSet
EndChar

StartChar: plus
Encoding: 43 43 11
Width: 565
VWidth: 0
Flags: HW
LayerCount: 2
Back
Fore
SplineSet
252 247 m 1
 252 308 252 369 252 430 c 1
 272 430 293 430 313 430 c 1
 313 369 313 308 313 247 c 1
 374 247 436 247 497 247 c 1
 497 226 497 206 497 185 c 1
 436 185 374 185 313 185 c 1
 313 124 313 63 313 2 c 1
 293 2 272 2 252 2 c 1
 252 63 252 124 252 185 c 1
 191 185 129 185 68 185 c 1
 68 206 68 226 68 247 c 1
 129 247 191 247 252 247 c 1
EndSplineSet
EndChar

StartChar: comma
Encoding: 44 44 12
Width: 565
VWidth: 0
Flags: HW
LayerCount: 2
Back
Fore
SplineSet
213 53 m 0
 213 83 237 117 276 117 c 0
 294 117 312 108 327 93 c 0
 348 71 356 49 356 10 c 0
 356 -43 336 -88 296 -128 c 0
 275 -149 248 -163 207 -170 c 1
 207 -154 207 -138 207 -122 c 1
 219 -118 l 2
 255 -106 281 -69 283 -25 c 1
 284 -12 l 1
 271 -10 l 1
 240 -6 213 16 213 53 c 0
EndSplineSet
EndChar

StartChar: hyphen
Encoding: 45 45 13
Width: 565
VWidth: 0
Flags: HW
LayerCount: 2
Back
Fore
SplineSet
130 221 m 1
 130 241 130 260 130 280 c 1
 232 280 335 280 437 280 c 1
 437 260 437 241 437 221 c 1
 335 221 232 221 130 221 c 1
EndSplineSet
EndChar

StartChar: period
Encoding: 46 46 14
Width: 565
VWidth: 0
Flags: HW
LayerCount: 2
Back
Fore
SplineSet
282 -15 m 0
 252 -15 220 9 220 49 c 0
 220 59 221 68 223 73 c 0
 230 90 252 112 277 112 c 0
 314 112 346 89 346 52 c 0
 346 10 312 -15 282 -15 c 0
EndSplineSet
EndChar

StartChar: slash
Encoding: 47 47 15
Width: 565
VWidth: 0
Flags: HW
LayerCount: 2
Back
Fore
SplineSet
53 -15 m 1
 183 201 313 417 442 633 c 1
 476 633 l 2
 498 633 509 633 509 631 c 0
 509 630 423 484 317 307 c 2
 125 -15 l 1
 101 -15 77 -15 53 -15 c 1
EndSplineSet
EndChar

StartChar: zero
Encoding: 48 48 16
Width: 565
VWidth: 0
Flags: HW
LayerCount: 2
Back
Fore
SplineSet
256 631 m 0
 264 632 273 632 282 632 c 0
 318 632 354 624 381 607 c 0
 456 562 496 440 496 305 c 0
 496 174 456 62 388 16 c 0
 358 -4 319 -15 281 -15 c 0
 255 -15 229 -10 206 -0 c 0
 134 31 89 108 72 232 c 0
 70 245 70 269 70 296 c 0
 70 333 71 375 74 394 c 0
 94 537 157 619 256 631 c 0
365 525 m 2
 343 555 323 572 282 572 c 0
 214 572 166 506 151 387 c 0
 149 370 148 338 148 308 c 0
 148 282 149 256 150 243 c 0
 153 220 161 179 163 179 c 0
 164 179 212 254 270 345 c 2
 376 510 l 1
 365 525 l 2
190 103 m 1
 206 74 237 45 280 45 c 0
 306 45 332 55 351 73 c 0
 392 112 414 212 416 296 c 1
 416 324 l 2
 416 357 414 378 408 409 c 0
 406 420 403 434 402 434 c 0
 400 434 359 371 295 270 c 2
 190 103 l 1
EndSplineSet
EndChar

StartChar: one
Encoding: 49 49 17
Width: 565
VWidth: 0
Flags: HW
LayerCount: 2
Back
Fore
SplineSet
249 602 m 2
 266 616 l 1
 290 616 314 616 338 616 c 1
 338 339 l 1
 339 63 l 1
 412 62 l 1
 486 62 l 1
 486 42 486 22 486 2 c 1
 362 2 239 2 115 2 c 1
 115 22 115 42 115 62 c 1
 165 62 215 62 265 62 c 1
 265 299 l 2
 265 486 264 535 262 535 c 0
 260 535 253 529 247 524 c 0
 212 497 169 473 131 460 c 1
 115 455 l 1
 115 477 115 498 115 520 c 1
 135 530 l 1
 173 547 215 574 249 602 c 2
EndSplineSet
EndChar

StartChar: two
Encoding: 50 50 18
Width: 565
VWidth: 0
Flags: HW
LayerCount: 2
Back
Fore
SplineSet
382 490 m 0
 382 539 333 572 276 572 c 0
 231 572 189 561 134 537 c 2
 113 528 l 1
 113 549 113 571 113 592 c 1
 126 598 l 2
 163 615 217 627 270 632 c 0
 277 633 283 633 288 633 c 0
 387 633 459 592 459 500 c 0
 459 475 454 457 442 431 c 0
 423 391 409 373 308 271 c 0
 212 174 193 151 182 112 c 0
 179 102 176 89 176 82 c 2
 175 70 l 1
 273 69 372 69 470 68 c 1
 470 46 470 24 470 2 c 1
 346 2 223 2 99 2 c 1
 99 38 l 2
 99 58 100 81 101 89 c 0
 109 142 137 183 231 280 c 0
 309 361 356 416 369 441 c 0
 378 458 382 475 382 490 c 0
EndSplineSet
EndChar

StartChar: three
Encoding: 51 51 19
Width: 565
VWidth: 0
Flags: HW
LayerCount: 2
Back
Fore
SplineSet
364 481 m 0
 364 538 316 573 251 573 c 0
 214 573 171 564 130 546 c 0
 120 542 111 539 111 539 c 1
 111 539 110 553 110 572 c 2
 110 606 l 1
 133 613 l 2
 179 627 202 633 250 633 c 0
 346 633 401 610 430 545 c 0
 438 527 441 511 441 488 c 0
 441 424 406 385 362 360 c 0
 347 352 340 349 340 346 c 0
 340 344 345 342 354 339 c 0
 407 320 437 296 456 257 c 0
 467 235 470 221 472 192 c 1
 472 179 l 2
 472 87 407 21 329 -3 c 0
 308 -9 268 -15 245 -15 c 0
 200 -15 157 -8 117 7 c 2
 97 14 l 1
 97 39 97 65 97 90 c 1
 122 79 l 2
 173 56 213 47 254 46 c 1
 259 46 l 2
 334 46 393 102 393 177 c 0
 393 211 384 237 362 261 c 0
 331 294 291 307 204 310 c 1
 161 312 l 1
 161 331 161 351 161 370 c 1
 212 371 l 2
 268 372 279 374 307 389 c 0
 334 404 364 439 364 481 c 0
EndSplineSet
EndChar

StartChar: four
Encoding: 52 52 20
Width: 565
VWidth: 0
Flags: HW
LayerCount: 2
Back
Fore
SplineSet
60 237 m 1
 146 363 233 490 319 616 c 1
 344 616 368 616 393 616 c 1
 393 489 393 363 393 236 c 1
 430 236 468 236 505 236 c 1
 505 215 505 195 505 174 c 1
 468 174 430 174 393 174 c 1
 393 117 393 61 393 4 c 1
 369 4 344 4 320 4 c 1
 320 61 320 117 320 174 c 1
 233 174 147 174 60 174 c 1
 60 195 60 216 60 237 c 1
319 237 m 1
 319 326 319 415 319 504 c 1
 310 491 l 2
 305 484 264 424 219 358 c 2
 137 237 l 1
 198 237 258 237 319 237 c 1
EndSplineSet
EndChar

StartChar: five
Encoding: 53 53 21
Width: 565
VWidth: 0
Flags: HW
LayerCount: 2
Back
Fore
SplineSet
115 323 m 1
 115 421 115 518 115 616 c 1
 229 616 343 616 457 616 c 1
 457 592 457 569 457 545 c 1
 367 545 278 545 188 545 c 1
 188 495 188 445 188 395 c 1
 194 395 l 2
 336 395 440 344 468 244 c 0
 472 229 473 221 473 191 c 0
 473 161 472 153 468 138 c 0
 444 53 367 -15 255 -15 c 0
 216 -15 172 -7 117 9 c 1
 102 13 l 1
 102 52 l 2
 102 73 103 91 104 91 c 0
 105 91 113 87 122 83 c 0
 165 63 212 52 252 52 c 0
 282 52 297 55 321 67 c 0
 365 89 393 135 393 184 c 0
 393 249 339 296 280 310 c 0
 247 318 229 321 170 322 c 2
 115 323 l 1
EndSplineSet
EndChar

StartChar: six
Encoding: 54 54 22
Width: 565
VWidth: 0
Flags: HW
LayerCount: 2
Back
Fore
SplineSet
319 385 m 0
 415 384 494 317 494 209 c 2
 494 190 l 1
 493 165 491 153 487 138 c 0
 466 64 412 8 345 -9 c 0
 332 -12 313 -14 294 -14 c 0
 196 -14 141 34 106 134 c 0
 88 186 81 231 81 300 c 0
 81 383 91 438 117 493 c 0
 154 571 213 619 291 630 c 0
 301 631 313 632 327 632 c 2
 343 632 l 1
 378 631 392 629 426 621 c 2
 450 615 l 1
 450 579 l 2
 450 559 449 543 449 543 c 1
 415 557 373 573 327 573 c 0
 281 573 251 557 226 532 c 0
 184 490 157 415 155 329 c 1
 155 308 l 2
 155 297 155 294 156 294 c 2
 156 294 157 294 158 295 c 0
 199 345 241 385 319 385 c 0
422 199 m 0
 422 270 386 325 312 325 c 0
 297 325 281 323 268 318 c 0
 234 306 206 275 191 233 c 0
 185 217 184 213 184 182 c 0
 184 152 185 147 191 131 c 0
 207 86 246 50 285 46 c 0
 289 46 293 45 297 45 c 0
 369 45 422 108 422 199 c 0
EndSplineSet
EndChar

StartChar: seven
Encoding: 55 55 23
Width: 565
VWidth: 0
Flags: HW
LayerCount: 2
Back
Fore
SplineSet
104 543 m 1
 104 567 104 592 104 616 c 1
 233 616 363 616 492 616 c 1
 492 585 l 2
 492 568 491 549 490 542 c 0
 485 514 473 494 391 380 c 0
 308 264 275 213 263 181 c 0
 249 142 245 111 245 49 c 2
 245 2 l 1
 218 2 192 2 165 2 c 1
 166 53 l 2
 167 110 171 135 181 166 c 0
 198 216 230 267 331 400 c 0
 357 435 384 469 389 478 c 0
 399 494 422 537 422 541 c 0
 422 542 369 543 263 543 c 2
 104 543 l 1
EndSplineSet
EndChar

StartChar: eight
Encoding: 56 56 24
Width: 565
VWidth: 0
Flags: HW
LayerCount: 2
Back
Fore
SplineSet
131 522 m 0
 149 585 209 632 293 632 c 0
 313 632 335 631 348 627 c 0
 414 609 452 563 452 499 c 0
 452 475 447 450 435 429 c 0
 420 401 404 384 365 350 c 0
 355 342 348 334 348 333 c 0
 348 332 358 323 371 313 c 0
 400 290 432 259 445 243 c 0
 464 219 477 190 477 152 c 0
 477 76 434 23 379 1 c 0
 352 -10 318 -15 284 -15 c 0
 252 -15 220 -11 193 -1 c 0
 132 20 93 77 93 142 c 0
 93 185 106 212 130 247 c 0
 143 265 182 304 204 320 c 0
 213 327 220 332 220 333 c 0
 220 334 215 338 207 344 c 0
 171 371 138 419 130 454 c 0
 128 463 127 475 127 487 c 0
 127 500 128 514 131 522 c 0
379 492 m 0
 379 543 335 574 282 574 c 0
 238 572 197 537 197 493 c 0
 197 466 206 448 229 424 c 0
 244 409 292 371 296 371 c 0
 299 371 336 403 347 415 c 0
 368 439 379 465 379 492 c 0
293 282 m 0
 285 288 277 294 276 294 c 0
 275 294 271 289 265 285 c 0
 217 246 188 211 176 174 c 0
 173 166 172 156 172 146 c 0
 172 132 174 118 179 108 c 0
 195 72 237 46 290 46 c 0
 337 46 376 74 391 106 c 0
 398 119 398 122 398 140 c 0
 398 159 398 161 389 180 c 0
 380 198 376 202 343 235 c 0
 323 255 301 276 293 282 c 0
EndSplineSet
EndChar

StartChar: nine
Encoding: 57 57 25
Width: 565
VWidth: 0
Flags: HW
LayerCount: 2
Back
Fore
SplineSet
482 315 m 0
 482 114 394 -15 229 -15 c 0
 200 -15 168 -11 132 -2 c 2
 113 3 l 1
 113 39 l 2
 113 59 113 75 114 75 c 0
 115 75 120 73 126 70 c 0
 169 53 201 46 237 46 c 0
 263 46 279 50 302 61 c 0
 370 93 408 198 408 293 c 2
 408 303 l 1
 407 328 l 1
 400 318 l 2
 382 293 350 266 325 253 c 0
 297 239 276 234 245 234 c 0
 171 234 105 276 81 340 c 0
 73 363 68 391 68 420 c 0
 68 446 72 472 79 493 c 0
 103 564 162 621 244 632 c 0
 251 633 259 633 267 633 c 0
 298 633 332 626 358 613 c 0
 436 574 482 460 482 315 c 0
252 294 m 0
 322 294 379 352 379 437 c 0
 379 461 375 485 365 505 c 0
 348 541 308 574 265 574 c 0
 259 574 252 573 243 571 c 0
 181 557 140 503 140 420 c 0
 140 349 180 294 252 294 c 0
EndSplineSet
EndChar

StartChar: colon
Encoding: 58 58 26
Width: 565
VWidth: 0
Flags: HW
LayerCount: 2
Back
Fore
SplineSet
282 -14 m 0
 249 -14 220 10 220 50 c 0
 220 83 239 101 267 111 c 0
 270 112 273 112 277 112 c 0
 316 112 345 88 345 50 c 0
 345 9 315 -14 282 -14 c 0
219 392 m 0
 219 421 244 455 282 455 c 1
 311 448 l 1
 331 438 346 420 346 392 c 0
 346 369 333 346 311 335 c 0
 305 331 293 330 282 330 c 0
 271 330 260 331 254 335 c 0
 230 347 219 370 219 392 c 0
EndSplineSet
EndChar

StartChar: semicolon
Encoding: 59 59 27
Width: 565
VWidth: 0
Flags: HW
LayerCount: 2
Back
Fore
SplineSet
213 53 m 0
 213 83 237 117 276 117 c 0
 294 117 312 108 327 93 c 0
 348 71 356 49 356 10 c 0
 356 -43 336 -88 296 -128 c 0
 275 -149 248 -163 207 -170 c 1
 207 -154 207 -138 207 -122 c 1
 219 -118 l 2
 255 -106 281 -69 283 -25 c 1
 284 -12 l 1
 271 -10 l 1
 240 -6 213 16 213 53 c 0
213 390 m 0
 213 422 238 453 277 453 c 0
 312 453 339 424 339 390 c 0
 339 351 306 327 276 327 c 0
 245 327 213 351 213 390 c 0
EndSplineSet
EndChar

StartChar: less
Encoding: 60 60 28
Width: 565
VWidth: 0
Flags: HW
LayerCount: 2
Back
Fore
SplineSet
71 215 m 1
 351 357 493 428 495 428 c 0
 496 428 497 414 497 396 c 2
 497 363 l 1
 399 314 301 265 202 216 c 1
 300 166 398 117 497 68 c 1
 497 46 497 24 497 2 c 1
 284 108 l 2
 167 166 71 215 71 215 c 1
EndSplineSet
EndChar

StartChar: equal
Encoding: 61 61 29
Width: 565
VWidth: 0
Flags: HW
LayerCount: 2
Back
Fore
SplineSet
68 117 m 1
 68 137 68 157 68 177 c 1
 211 177 354 177 497 177 c 1
 497 157 497 137 497 117 c 1
 354 117 211 117 68 117 c 1
68 256 m 1
 68 276 68 296 68 316 c 1
 211 316 354 316 497 316 c 1
 497 296 497 276 497 256 c 1
 354 256 211 256 68 256 c 1
EndSplineSet
EndChar

StartChar: greater
Encoding: 62 62 30
Width: 565
VWidth: 0
Flags: HW
LayerCount: 2
Back
Fore
SplineSet
68 396 m 2
 68 414 69 428 70 428 c 0
 72 428 494 216 494 215 c 2
 494 215 398 166 281 108 c 2
 68 2 l 1
 68 69 l 1
 215 141 l 2
 295 181 361 215 361 215 c 1
 361 215 296 250 215 290 c 2
 68 363 l 1
 68 396 l 2
EndSplineSet
EndChar

StartChar: question
Encoding: 63 63 31
Width: 565
VWidth: 0
Flags: HW
LayerCount: 2
Back
Fore
SplineSet
183 41 m 0
 183 70 204 96 238 96 c 0
 271 96 294 71 294 42 c 0
 294 9 267 -15 239 -15 c 0
 211 -15 183 7 183 41 c 0
375 502 m 0
 375 549 332 572 274 572 c 0
 218 572 184 560 143 539 c 2
 121 528 l 1
 121 551 121 575 121 598 c 1
 140 606 l 2
 172 619 209 628 248 632 c 0
 252 632 258 633 264 633 c 0
 286 633 320 630 334 628 c 0
 407 614 450 572 454 512 c 1
 454 504 l 2
 454 474 443 447 420 416 c 0
 413 407 386 376 358 347 c 0
 303 290 298 285 286 262 c 0
 276 244 272 224 272 197 c 1
 271 177 l 1
 247 177 222 177 198 177 c 1
 199 205 l 2
 200 220 202 238 204 244 c 0
 212 273 229 300 265 339 c 0
 317 395 356 445 367 468 c 0
 373 480 375 491 375 502 c 0
EndSplineSet
EndChar

StartChar: at
Encoding: 64 64 32
Width: 565
VWidth: 0
Flags: HW
LayerCount: 2
Back
Fore
SplineSet
252 91 m 1
 191 95 161 167 161 236 c 0
 161 242 162 249 162 255 c 0
 166 321 188 370 225 398 c 0
 246 414 269 421 298 421 c 0
 328 421 365 413 383 405 c 0
 390 402 390 402 389 389 c 0
 387 360 384 250 384 217 c 0
 384 177 386 162 396 152 c 0
 404 144 413 140 423 140 c 0
 429 140 435 141 440 144 c 0
 467 161 483 216 483 291 c 0
 483 374 463 433 420 476 c 0
 387 509 358 525 303 525 c 0
 282 525 259 523 245 519 c 0
 142 491 81 383 81 229 c 0
 81 111 119 32 189 -1 c 0
 215 -13 233 -16 274 -16 c 0
 316 -16 334 -13 378 5 c 0
 392 11 404 15 405 15 c 0
 406 15 406 3 406 -11 c 2
 406 -37 l 1
 389 -45 l 2
 351 -62 317 -69 271 -69 c 0
 233 -69 213 -66 185 -55 c 0
 89 -18 36 84 36 225 c 0
 36 323 62 419 106 478 c 0
 144 529 201 566 256 574 c 0
 265 575 275 576 278 577 c 0
 280 577 285 578 290 578 c 0
 363 578 401 561 442 523 c 0
 496 473 527 393 527 291 c 0
 527 199 496 120 451 98 c 0
 441 93 429 91 418 91 c 0
 382 91 365 114 356 147 c 0
 353 159 352 163 350 161 c 2
 350 161 346 153 341 144 c 0
 323 112 303 91 259 91 c 2
 252 91 l 1
342 364 m 1
 328 367 312 372 294 372 c 0
 290 372 287 371 284 371 c 0
 251 367 225 336 215 290 c 0
 212 278 211 255 211 234 c 0
 211 179 227 140 270 140 c 0
 302 140 314 158 324 184 c 0
 334 210 338 242 341 327 c 2
 342 364 l 1
EndSplineSet
EndChar

StartChar: A
Encoding: 65 65 33
Width: 565
VWidth: 0
Flags: HW
LayerCount: 2
Back
Fore
SplineSet
242 614 m 0
 242 615 260 616 282 616 c 2
 322 616 l 1
 325 605 l 1
 342 555 508 12 511 6 c 1
 511 5 l 2
 511 3 505 2 471 2 c 2
 429 2 l 1
 415 47 401 93 387 138 c 1
 280 139 l 1
 172 139 l 1
 166 126 160 105 148 63 c 2
 129 2 l 1
 104 2 78 2 53 2 c 1
 57 15 l 2
 64 38 242 614 242 614 c 0
287 462 m 0
 283 477 279 490 278 491 c 0
 277 492 273 480 270 466 c 0
 267 452 247 386 227 320 c 0
 207 254 190 201 190 200 c 0
 190 199 230 199 279 199 c 0
 328 199 369 199 369 200 c 0
 369 201 352 255 331 319 c 0
 310 383 291 447 287 462 c 0
EndSplineSet
EndChar

StartChar: B
Encoding: 66 66 34
Width: 565
VWidth: 0
Flags: HW
LayerCount: 2
Back
Fore
SplineSet
108 2 m 1
 108 207 108 411 108 616 c 1
 170 616 l 2
 297 616 347 611 379 595 c 0
 416 577 444 536 444 483 c 0
 444 463 441 442 437 428 c 0
 425 386 398 352 359 329 c 0
 350 323 342 319 342 318 c 0
 342 317 349 314 358 310 c 0
 409 288 447 252 462 194 c 0
 464 184 466 174 466 163 c 0
 466 91 417 31 361 15 c 0
 329 5 308 4 206 3 c 2
 108 2 l 1
368 468 m 0
 368 546 316 554 232 554 c 2
 188 554 l 1
 188 446 l 1
 189 339 l 1
 229 338 l 1
 269 338 l 1
 288 347 l 2
 339 372 368 406 368 468 c 0
387 165 m 0
 387 222 348 259 292 272 c 0
 278 275 261 276 230 277 c 2
 188 279 l 1
 188 171 l 1
 189 63 l 1
 239 63 l 2
 295 63 313 66 335 77 c 0
 366 93 387 128 387 165 c 0
EndSplineSet
EndChar

StartChar: C
Encoding: 67 67 35
Width: 565
VWidth: 0
Flags: HW
LayerCount: 2
Back
Fore
SplineSet
88 309 m 0
 88 473 163 607 308 630 c 0
 319 632 332 633 344 633 c 0
 372 633 403 628 435 619 c 0
 450 615 464 611 466 610 c 0
 469 609 470 605 470 573 c 2
 470 537 l 1
 448 547 l 2
 413 564 377 573 345 573 c 0
 327 573 311 570 297 564 c 0
 219 533 170 427 170 308 c 0
 170 260 177 213 193 173 c 0
 226 90 281 44 348 44 c 0
 376 44 421 57 452 72 c 0
 461 76 468 79 469 79 c 0
 470 79 470 64 470 45 c 2
 470 10 l 1
 447 2 l 2
 410 -10 379 -15 349 -15 c 0
 273 -15 217 14 176 55 c 0
 119 112 88 202 88 309 c 0
EndSplineSet
EndChar

StartChar: D
Encoding: 68 68 36
Width: 565
VWidth: 0
Flags: HW
LayerCount: 2
Back
Fore
SplineSet
102 2 m 1
 102 207 102 411 102 616 c 1
 197 615 l 2
 301 614 314 613 354 600 c 0
 443 572 492 469 492 309 c 0
 492 206 469 126 424 70 c 0
 395 35 363 17 309 7 c 0
 292 4 269 4 195 3 c 2
 102 2 l 1
307 548 m 0
 292 552 284 552 236 553 c 2
 181 554 l 1
 181 392 181 230 181 68 c 1
 203 69 l 1
 300 69 347 77 382 137 c 0
 403 174 414 232 414 310 c 2
 414 339 l 1
 412 407 406 440 387 478 c 0
 369 515 345 537 307 548 c 0
EndSplineSet
EndChar

StartChar: E
Encoding: 69 69 37
Width: 565
VWidth: 0
Flags: HW
LayerCount: 2
Back
Fore
SplineSet
119 2 m 1
 119 207 119 411 119 616 c 1
 227 616 336 616 444 616 c 1
 444 595 444 575 444 554 c 1
 362 554 281 554 199 554 c 1
 199 484 199 414 199 344 c 1
 272 344 346 344 419 344 c 1
 419 324 419 305 419 285 c 1
 346 285 272 285 199 285 c 1
 199 213 199 140 199 68 c 1
 283 68 366 68 450 68 c 1
 450 46 450 24 450 2 c 1
 340 2 229 2 119 2 c 1
EndSplineSet
EndChar

StartChar: F
Encoding: 70 70 38
Width: 565
VWidth: 0
Flags: HW
LayerCount: 2
Back
Fore
SplineSet
130 2 m 1
 130 207 130 411 130 616 c 1
 242 616 354 616 466 616 c 1
 466 595 466 575 466 554 c 1
 381 554 295 554 210 554 c 1
 210 484 210 414 210 344 c 1
 287 344 364 344 441 344 c 1
 441 324 441 305 441 285 c 1
 364 285 287 285 210 285 c 1
 210 191 210 96 210 2 c 1
 183 2 157 2 130 2 c 1
EndSplineSet
EndChar

StartChar: G
Encoding: 71 71 39
Width: 565
VWidth: 0
Flags: HW
LayerCount: 2
Back
Fore
SplineSet
470 2 m 1
 428 -8 386 -17 351 -17 c 0
 321 -17 294 -12 267 -3 c 0
 190 23 137 81 108 171 c 0
 95 213 88 261 88 309 c 0
 88 481 170 600 299 628 c 0
 307 630 326 631 342 631 c 0
 380 631 410 626 453 612 c 1
 470 606 l 1
 470 571 l 2
 470 552 470 536 469 536 c 0
 468 536 461 540 452 544 c 0
 419 561 376 572 344 572 c 0
 286 572 235 534 203 467 c 0
 182 422 173 379 171 322 c 1
 171 305 l 2
 171 238 182 188 210 135 c 0
 242 73 292 44 364 44 c 0
 373 44 382 44 391 44 c 1
 391 111 391 178 391 245 c 1
 370 245 350 245 329 245 c 1
 329 265 329 285 329 305 c 1
 376 305 423 305 470 305 c 1
 470 204 470 103 470 2 c 1
EndSplineSet
EndChar

StartChar: H
Encoding: 72 72 40
Width: 565
VWidth: 0
Flags: HW
LayerCount: 2
Back
Fore
SplineSet
88 2 m 1
 88 206 88 410 88 614 c 1
 115 614 141 614 168 614 c 1
 168 526 168 439 168 351 c 1
 244 351 319 351 395 351 c 1
 395 439 395 526 395 614 c 1
 421 614 448 614 474 614 c 1
 474 410 474 206 474 2 c 1
 448 2 421 2 395 2 c 1
 395 98 395 195 395 291 c 1
 319 291 244 291 168 291 c 1
 168 195 168 98 168 2 c 1
 141 2 115 2 88 2 c 1
EndSplineSet
EndChar

StartChar: I
Encoding: 73 73 41
Width: 565
VWidth: 0
Flags: HW
LayerCount: 2
Back
Fore
SplineSet
108 554 m 1
 108 575 108 595 108 616 c 1
 224 616 341 616 457 616 c 1
 457 595 457 575 457 554 c 1
 412 554 367 554 322 554 c 1
 322 390 322 226 322 62 c 1
 367 62 412 62 457 62 c 1
 457 42 457 22 457 2 c 1
 341 2 224 2 108 2 c 1
 108 22 108 42 108 62 c 1
 153 62 198 62 243 62 c 1
 243 226 243 390 243 554 c 1
 198 554 153 554 108 554 c 1
EndSplineSet
EndChar

StartChar: J
Encoding: 74 74 42
Width: 565
VWidth: 0
Flags: HW
LayerCount: 2
Back
Fore
SplineSet
201 554 m 1
 201 575 201 595 201 616 c 1
 273 616 345 616 417 616 c 1
 416 388 l 2
 415 152 415 144 406 107 c 0
 388 33 326 -15 231 -15 c 0
 191 -15 147 -7 103 9 c 2
 84 16 l 1
 84 41 84 65 84 90 c 1
 105 79 l 1
 150 57 192 46 228 46 c 0
 286 46 321 73 332 128 c 0
 336 145 336 165 337 350 c 2
 338 554 l 1
 292 554 247 554 201 554 c 1
EndSplineSet
EndChar

StartChar: K
Encoding: 75 75 43
Width: 565
VWidth: 0
Flags: HW
LayerCount: 2
Back
Fore
SplineSet
274 324 m 0
 274 320 522 4 522 4 c 2
 522 3 500 2 474 2 c 2
 425 2 l 1
 304 158 l 2
 209 279 185 314 185 318 c 0
 186 320 237 388 298 469 c 2
 409 616 l 1
 492 616 l 1
 492 616 274 326 274 324 c 0
102 2 m 1
 102 207 102 411 102 616 c 1
 128 616 155 616 181 616 c 1
 181 411 181 207 181 2 c 1
 155 2 128 2 102 2 c 1
EndSplineSet
EndChar

StartChar: L
Encoding: 76 76 44
Width: 565
VWidth: 0
Flags: HW
LayerCount: 2
Back
Fore
SplineSet
126 2 m 1
 126 207 126 411 126 616 c 1
 152 616 179 616 205 616 c 1
 206 343 l 1
 206 70 l 1
 290 69 373 69 457 68 c 1
 457 46 457 24 457 2 c 1
 347 2 236 2 126 2 c 1
EndSplineSet
EndChar

StartChar: M
Encoding: 77 77 45
Width: 565
VWidth: 0
Flags: HW
LayerCount: 2
Back
Fore
SplineSet
62 2 m 1
 62 616 l 1
 102 615 l 1
 142 615 l 1
 212 414 l 2
 251 304 283 214 283 213 c 2
 283 213 293 238 304 268 c 0
 315 299 346 389 374 469 c 2
 425 615 l 1
 464 615 l 1
 503 616 l 1
 503 2 l 1
 430 2 l 1
 431 225 l 2
 431 346 431 447 430 447 c 0
 429 447 426 434 422 423 c 0
 420 416 321 136 318 127 c 1
 318 127 300 126 278 126 c 2
 237 127 l 1
 191 255 l 2
 166 325 141 397 136 414 c 0
 131 430 127 446 126 446 c 0
 125 446 125 346 125 225 c 2
 126 2 l 1
 62 2 l 1
EndSplineSet
EndChar

StartChar: N
Encoding: 78 78 46
Width: 565
VWidth: 0
Flags: HW
LayerCount: 2
Back
Fore
SplineSet
88 2 m 1
 88 207 88 411 88 616 c 1
 112 616 136 616 160 616 c 1
 270 409 l 2
 350 258 382 194 390 174 c 0
 396 159 401 146 402 146 c 1
 402 381 l 1
 401 616 l 1
 425 616 450 616 474 616 c 1
 474 411 474 207 474 2 c 1
 438 3 l 1
 401 3 l 1
 296 202 l 2
 239 311 185 415 177 433 c 0
 169 450 162 466 161 466 c 1
 161 311 161 157 161 2 c 1
 137 2 112 2 88 2 c 1
EndSplineSet
EndChar

StartChar: O
Encoding: 79 79 47
Width: 565
VWidth: 0
Flags: HW
LayerCount: 2
Back
Fore
SplineSet
235 628 m 0
 253 632 253 633 269 633 c 0
 289 633 321 630 333 627 c 0
 420 603 473 525 491 393 c 0
 494 375 495 340 495 307 c 0
 495 145 447 15 323 -11 c 0
 310 -14 296 -15 282 -15 c 0
 226 -15 186 5 155 34 c 0
 98 89 69 191 69 320 c 0
 69 487 133 605 235 628 c 0
352 542 m 0
 332 562 312 573 281 573 c 0
 251 573 233 562 213 542 c 0
 181 510 162 465 152 394 c 0
 150 380 149 349 149 316 c 0
 149 234 152 189 172 138 c 0
 186 102 216 67 242 55 c 0
 255 49 269 46 282 46 c 0
 362 46 400 134 412 215 c 0
 415 233 416 276 416 316 c 0
 416 349 415 380 413 394 c 0
 403 465 384 510 352 542 c 0
EndSplineSet
EndChar

StartChar: P
Encoding: 80 80 48
Width: 565
VWidth: 0
Flags: HW
LayerCount: 2
Back
Fore
SplineSet
110 2 m 1
 110 207 110 411 110 616 c 1
 215 615 l 2
 307 614 321 613 344 609 c 0
 376 603 390 599 410 587 c 0
 455 561 487 511 487 442 c 0
 487 375 454 307 397 269 c 0
 353 240 313 230 238 228 c 2
 190 227 l 1
 190 152 190 77 190 2 c 1
 163 2 137 2 110 2 c 1
408 439 m 0
 408 503 375 535 317 548 c 0
 301 552 286 552 243 553 c 2
 190 554 l 1
 190 465 190 376 190 287 c 1
 225 287 l 2
 293 287 330 298 360 325 c 0
 391 353 408 392 408 439 c 0
EndSplineSet
EndChar

StartChar: Q
Encoding: 81 81 49
Width: 565
VWidth: 0
Flags: HW
LayerCount: 2
Back
Fore
SplineSet
243 628 m 0
 252 630 270 631 283 631 c 2
 285 631 l 2
 400 631 473 544 493 382 c 0
 495 366 496 346 496 324 c 0
 496 280 492 229 486 194 c 0
 472 114 436 48 392 18 c 0
 380 10 354 -3 343 -7 c 0
 339 -8 336 -9 336 -11 c 0
 336 -14 340 -20 348 -32 c 0
 383 -84 416 -103 493 -109 c 1
 523 -111 l 1
 523 -131 523 -150 523 -170 c 1
 502 -170 l 2
 476 -170 445 -167 422 -162 c 0
 369 -151 318 -104 284 -36 c 0
 276 -19 272 -15 268 -15 c 0
 257 -15 211 -2 196 6 c 0
 145 32 114 77 90 161 c 0
 76 210 69 267 69 321 c 0
 69 365 74 407 83 444 c 0
 110 552 165 614 243 628 c 0
416 319 m 2
 416 437 387 544 307 568 c 0
 299 570 291 571 283 571 c 0
 241 571 215 548 195 520 c 0
 163 475 149 412 149 316 c 2
 149 288 l 1
 150 224 155 189 168 150 c 0
 183 106 212 67 244 52 c 0
 258 45 261 45 282 45 c 0
 303 45 307 45 321 52 c 0
 353 67 382 106 397 150 c 0
 410 189 414 224 416 288 c 1
 416 319 l 2
EndSplineSet
EndChar

StartChar: R
Encoding: 82 82 50
Width: 565
VWidth: 0
Flags: HW
LayerCount: 2
Back
Fore
SplineSet
341 289 m 0
 341 278 514 7 514 3 c 1
 483 3 452 3 421 3 c 1
 367 89 313 176 260 263 c 1
 233 263 206 263 179 263 c 1
 179 176 179 89 179 2 c 1
 152 2 126 2 99 2 c 1
 99 207 99 411 99 616 c 1
 208 615 l 2
 295 614 321 613 337 610 c 0
 379 602 399 594 422 570 c 0
 449 542 459 515 459 475 c 0
 459 409 422 343 364 305 c 0
 354 298 341 291 341 289 c 0
307 549 m 0
 294 552 278 553 234 554 c 1
 179 554 l 1
 179 477 179 401 179 324 c 1
 217 324 255 324 293 324 c 1
 313 338 l 1
 344 358 364 384 377 417 c 0
 382 430 383 435 383 458 c 0
 383 483 383 485 377 498 c 0
 365 524 343 540 307 549 c 0
EndSplineSet
EndChar

StartChar: S
Encoding: 83 83 51
Width: 565
VWidth: 0
Flags: HW
LayerCount: 2
Back
Fore
SplineSet
302 573 m 2
 244 573 188 542 188 484 c 2
 188 477 l 1
 189 449 195 436 217 414 c 0
 236 395 242 390 321 343 c 0
 396 298 398 297 420 276 c 0
 456 242 474 202 474 157 c 2
 474 147 l 1
 472 122 468 105 457 83 c 0
 425 19 361 -14 266 -14 c 0
 211 -14 181 -9 134 6 c 2
 102 16 l 1
 102 41 102 65 102 90 c 1
 127 79 l 2
 166 62 226 46 272 46 c 0
 328 46 369 66 387 105 c 0
 393 118 396 132 396 145 c 0
 396 171 385 197 362 219 c 0
 342 239 323 251 257 289 c 0
 195 324 183 333 159 357 c 0
 126 390 109 423 109 474 c 0
 109 534 143 589 197 614 c 0
 225 626 263 634 303 634 c 0
 340 634 381 628 418 619 c 2
 433 615 l 1
 433 593 433 570 433 548 c 1
 413 554 l 2
 386 563 344 571 316 573 c 1
 302 573 l 2
EndSplineSet
EndChar

StartChar: T
Encoding: 84 84 52
Width: 565
VWidth: 0
Flags: HW
LayerCount: 2
Back
Fore
SplineSet
60 550 m 1
 60 572 60 594 60 616 c 1
 208 616 357 616 505 616 c 1
 505 594 505 572 505 550 c 1
 444 550 383 550 322 550 c 1
 322 367 322 185 322 2 c 1
 296 2 269 2 243 2 c 1
 243 185 243 367 243 550 c 1
 182 550 121 550 60 550 c 1
EndSplineSet
EndChar

StartChar: U
Encoding: 85 85 53
Width: 565
VWidth: 0
Flags: HW
LayerCount: 2
Back
Fore
SplineSet
88 412 m 2
 88 616 l 1
 115 616 141 616 168 616 c 1
 168 383 l 1
 169 169 169 149 173 132 c 0
 184 77 221 46 284 46 c 0
 324 46 347 57 366 78 c 0
 387 100 395 126 399 182 c 0
 400 199 402 298 402 413 c 2
 402 616 l 1
 426 616 451 616 475 616 c 1
 474 392 l 2
 473 179 472 168 468 146 c 0
 448 48 392 -14 278 -14 c 0
 186 -14 128 24 105 87 c 0
 91 127 88 167 88 412 c 2
EndSplineSet
EndChar

StartChar: V
Encoding: 86 86 54
Width: 565
VWidth: 0
Flags: HW
LayerCount: 2
Back
Fore
SplineSet
243 2 m 1
 238 22 57 603 53 616 c 1
 81 616 108 616 136 616 c 1
 203 401 l 2
 240 283 273 173 277 158 c 0
 281 144 285 128 286 128 c 0
 287 128 292 143 298 164 c 0
 309 205 434 611 437 614 c 0
 438 615 455 615 475 615 c 2
 511 615 l 1
 448 411 386 207 323 3 c 1
 283 3 l 1
 243 2 l 1
EndSplineSet
EndChar

StartChar: W
Encoding: 87 87 55
Width: 565
VWidth: 0
Flags: HW
LayerCount: 2
Back
Fore
SplineSet
121 3 m 1
 121 11 51 607 51 615 c 0
 51 616 67 616 86 616 c 0
 121 616 121 616 122 611 c 0
 123 607 171 179 171 179 c 1
 172 180 175 198 178 219 c 0
 183 253 240 588 245 616 c 1
 281 615 l 1
 316 615 l 1
 352 426 l 2
 372 322 390 226 392 211 c 0
 396 182 397 168 399 168 c 0
 401 168 402 180 404 204 c 0
 406 224 417 324 429 427 c 2
 451 615 l 1
 482 615 l 1
 505 616 512 615 512 613 c 0
 512 598 439 14 439 6 c 0
 439 3 434 2 402 2 c 0
 365 2 364 2 363 7 c 0
 358 29 284 427 281 448 c 0
 277 474 277 481 276 481 c 2
 275 481 l 2
 274 480 272 463 269 443 c 0
 266 423 249 316 230 205 c 2
 195 3 l 1
 170 3 146 3 121 3 c 1
EndSplineSet
EndChar

StartChar: X
Encoding: 88 88 56
Width: 565
VWidth: 0
Flags: HW
LayerCount: 2
Back
Fore
SplineSet
238 323 m 0
 238 328 85 602 77 616 c 1
 107 616 137 616 167 616 c 1
 225 511 l 2
 257 453 284 406 285 406 c 0
 286 406 313 453 346 511 c 2
 405 616 l 1
 433 616 460 616 488 616 c 1
 476 595 327 335 327 329 c 0
 327 325 505 7 505 3 c 0
 505 2 485 2 460 2 c 2
 416 2 l 1
 348 125 l 2
 311 192 281 247 280 247 c 0
 279 247 249 192 211 125 c 2
 142 2 l 1
 102 2 l 2
 70 2 63 2 63 5 c 2
 63 6 l 1
 79 37 238 318 238 323 c 0
EndSplineSet
EndChar

StartChar: Y
Encoding: 89 89 57
Width: 565
VWidth: 0
Flags: HW
LayerCount: 2
Back
Fore
SplineSet
287 373 m 0
 289 373 422 615 425 615 c 0
 451 615 477 615 503 615 c 1
 443 505 383 396 322 287 c 1
 322 192 322 97 322 2 c 1
 296 2 269 2 243 2 c 1
 243 97 243 192 243 287 c 1
 152 450 l 2
 102 540 62 614 62 615 c 1
 92 615 121 615 151 615 c 1
 218 494 l 2
 255 428 286 373 287 373 c 0
EndSplineSet
EndChar

StartChar: Z
Encoding: 90 90 58
Width: 565
VWidth: 0
Flags: HW
LayerCount: 2
Back
Fore
SplineSet
97 554 m 1
 97 575 97 595 97 616 c 1
 221 616 346 616 470 616 c 1
 470 595 470 574 470 553 c 1
 326 313 l 2
 246 181 181 72 181 71 c 0
 181 70 236 68 329 68 c 2
 477 68 l 1
 477 46 477 24 477 2 c 1
 347 2 218 2 88 2 c 1
 88 25 88 47 88 70 c 1
 185 231 282 392 379 553 c 1
 238 553 l 1
 97 554 l 1
EndSplineSet
EndChar

StartChar: bracketleft
Encoding: 91 91 59
Width: 565
VWidth: 0
Flags: HW
LayerCount: 2
Back
Fore
SplineSet
181 -146 m 1
 181 120 181 385 181 651 c 1
 287 651 393 651 499 651 c 1
 499 630 499 610 499 589 c 1
 417 589 336 589 254 589 c 1
 254 252 l 1
 255 -85 l 1
 377 -85 l 1
 499 -86 l 1
 499 -106 499 -126 499 -146 c 1
 393 -146 287 -146 181 -146 c 1
EndSplineSet
EndChar

StartChar: backslash
Encoding: 92 92 60
Width: 565
VWidth: 0
Flags: HW
LayerCount: 2
Back
Fore
SplineSet
71 603 m 2
 53 634 l 1
 76 633 99 633 122 632 c 1
 316 310 l 2
 422 133 510 -13 510 -14 c 0
 510 -15 494 -15 475 -15 c 2
 440 -15 l 1
 265 278 l 2
 169 440 81 586 71 603 c 2
EndSplineSet
EndChar

StartChar: bracketright
Encoding: 93 93 61
Width: 565
VWidth: 0
Flags: HW
LayerCount: 2
Back
Fore
SplineSet
66 589 m 1
 66 610 66 630 66 651 c 1
 172 651 278 651 384 651 c 1
 384 385 384 120 384 -146 c 1
 278 -146 172 -146 66 -146 c 1
 66 -126 66 -106 66 -86 c 1
 188 -85 l 1
 310 -85 l 1
 311 252 l 1
 311 589 l 1
 229 589 148 589 66 589 c 1
EndSplineSet
EndChar

StartChar: asciicircum
Encoding: 94 94 62
Width: 565
VWidth: 0
Flags: HW
LayerCount: 2
Back
Fore
SplineSet
69 185 m 1
 140 328 210 470 281 613 c 1
 388 401 l 2
 447 284 494 188 494 187 c 0
 494 186 480 185 462 185 c 2
 429 185 l 1
 380 284 331 383 282 482 c 1
 232 384 183 285 135 185 c 1
 113 185 91 185 69 185 c 1
EndSplineSet
EndChar

StartChar: underscore
Encoding: 95 95 63
Width: 565
VWidth: 0
Flags: HW
LayerCount: 2
Back
Fore
SplineSet
68 -57 m 1
 68 -37 68 -18 68 2 c 1
 211 2 354 2 497 2 c 1
 497 -18 497 -37 497 -57 c 1
 354 -57 211 -57 68 -57 c 1
EndSplineSet
EndChar

StartChar: grave
Encoding: 96 96 64
Width: 565
VWidth: 0
Flags: HW
LayerCount: 2
Back
Fore
SplineSet
178 629 m 2
 167 640 l 1
 195 640 222 640 250 640 c 1
 286 601 l 2
 305 580 331 551 344 537 c 2
 367 512 l 1
 345 512 323 512 301 512 c 1
 245 565 l 2
 214 594 184 623 178 629 c 2
EndSplineSet
EndChar

StartChar: a
Encoding: 97 97 65
Width: 565
VWidth: 0
Flags: HW
LayerCount: 2
Back
Fore
SplineSet
306 449 m 0
 356 449 368 444 423 444 c 2
 465 444 l 1
 466 254 l 2
 467 49 480 52 480 5 c 0
 480 2 475 2 444 2 c 2
 407 2 l 1
 404 13 l 2
 402 23 397 57 393 88 c 1
 392 102 l 1
 380 85 l 2
 349 41 306 8 252 -6 c 0
 243 -8 233 -9 224 -9 c 0
 189 -9 156 7 128 36 c 0
 97 70 82 117 82 181 c 0
 82 187 82 193 82 199 c 0
 84 247 94 284 112 321 c 0
 149 396 206 439 278 448 c 0
 284 449 295 449 306 449 c 0
393 377 m 1
 380 383 344 388 322 388 c 0
 295 388 271 383 252 373 c 0
 195 342 161 286 161 200 c 0
 161 179 163 156 165 144 c 0
 174 99 203 64 235 60 c 1
 242 60 l 2
 284 60 344 108 385 176 c 2
 393 189 l 1
 393 252 393 314 393 377 c 1
EndSplineSet
EndChar

StartChar: b
Encoding: 98 98 66
Width: 565
VWidth: 0
Flags: HW
LayerCount: 2
Back
Fore
SplineSet
95 3 m 1
 95 215 95 428 95 640 c 1
 119 640 144 640 168 640 c 1
 168 492 l 1
 169 343 l 1
 179 359 l 2
 199 390 241 426 275 441 c 0
 291 448 312 455 335 455 c 0
 350 455 365 453 376 448 c 0
 444 422 479 356 479 264 c 0
 479 144 416 42 334 11 c 0
 310 2 292 -2 263 -2 c 0
 255 -2 246 -1 236 -1 c 0
 214 0 173 0 145 1 c 2
 95 3 l 1
343 380 m 0
 335 383 324 385 314 385 c 0
 309 385 305 385 301 384 c 0
 261 374 212 329 176 270 c 2
 168 257 l 1
 168 194 168 130 168 67 c 1
 187 63 l 2
 204 60 222 58 239 58 c 0
 253 58 264 59 273 61 c 0
 348 77 399 148 399 248 c 0
 399 272 397 299 394 310 c 0
 385 342 364 371 343 380 c 0
EndSplineSet
EndChar

StartChar: c
Encoding: 99 99 67
Width: 565
VWidth: 0
Flags: HW
LayerCount: 2
Back
Fore
SplineSet
336 394 m 0
 245 394 184 326 184 223 c 0
 184 198 189 176 200 150 c 0
 228 85 269 57 344 57 c 0
 376 57 407 63 449 76 c 2
 472 83 l 1
 472 60 472 37 472 14 c 1
 448 7 l 1
 408 -4 378 -10 332 -10 c 0
 221 -10 139 61 113 157 c 0
 108 176 107 181 107 222 c 0
 107 260 108 269 112 283 c 0
 120 311 130 334 142 352 c 0
 183 415 245 453 327 453 c 0
 366 453 416 446 458 433 c 2
 471 429 l 1
 472 394 l 2
 472 383 473 375 473 370 c 0
 473 362 472 360 471 360 c 2
 471 360 470 361 469 361 c 0
 414 383 373 394 336 394 c 0
EndSplineSet
EndChar

StartChar: d
Encoding: 100 100 68
Width: 565
VWidth: 0
Flags: HW
LayerCount: 2
Back
Fore
SplineSet
397 443 m 1
 397 509 397 574 397 640 c 1
 421 640 446 640 470 640 c 1
 470 427 470 215 470 2 c 1
 446 2 421 2 397 2 c 1
 397 52 l 1
 396 102 l 1
 385 86 l 2
 356 44 312 7 258 -5 c 0
 248 -8 238 -9 228 -9 c 0
 195 -9 165 5 137 33 c 0
 104 66 87 108 87 176 c 0
 87 200 89 226 92 246 c 0
 107 329 159 402 224 432 c 0
 250 444 278 449 315 449 c 0
 336 449 359 447 386 444 c 2
 397 443 l 1
397 377 m 1
 385 384 347 388 326 388 c 0
 299 388 275 383 256 373 c 0
 198 342 166 283 166 197 c 0
 166 172 168 145 171 134 c 0
 182 94 211 63 240 60 c 1
 245 60 l 2
 259 60 278 66 297 77 c 0
 327 95 364 135 389 176 c 2
 397 189 l 1
 397 252 397 314 397 377 c 1
EndSplineSet
EndChar

StartChar: e
Encoding: 101 101 69
Width: 565
VWidth: 0
Flags: HW
LayerCount: 2
Back
Fore
SplineSet
217 436 m 0
 239 446 263 454 297 454 c 0
 350 454 381 440 412 412 c 0
 452 375 470 325 474 238 c 2
 475 210 l 1
 373 210 271 210 169 210 c 1
 171 194 l 1
 174 153 190 115 216 88 c 0
 243 60 270 51 314 51 c 0
 355 51 392 60 441 84 c 2
 468 97 l 1
 467 63 l 1
 467 30 l 1
 438 18 l 1
 391 0 344 -10 303 -10 c 0
 181 -10 114 76 95 182 c 0
 94 191 93 203 93 216 c 0
 93 328 145 403 217 436 c 0
394 286 m 2
 389 348 361 393 297 393 c 0
 281 393 266 390 253 384 c 0
 219 369 194 335 180 288 c 0
 177 278 174 268 174 267 c 0
 174 266 222 265 285 265 c 2
 396 265 l 1
 394 286 l 2
EndSplineSet
EndChar

StartChar: f
Encoding: 102 102 70
Width: 565
VWidth: 0
Flags: HW
LayerCount: 2
Back
Fore
SplineSet
498 572 m 1
 477 578 428 590 398 590 c 0
 338 590 298 563 284 511 c 0
 280 497 280 484 279 450 c 2
 277 406 l 1
 335 406 394 406 452 406 c 1
 452 386 452 367 452 347 c 1
 394 347 336 347 278 347 c 1
 278 232 278 117 278 2 c 1
 254 2 229 2 205 2 c 1
 205 174 l 1
 204 345 l 1
 172 346 140 346 108 347 c 1
 108 367 108 386 108 406 c 1
 140 406 173 406 205 406 c 1
 206 445 l 2
 209 524 220 560 253 596 c 0
 285 630 322 651 383 651 c 0
 413 651 462 647 487 642 c 2
 499 640 l 1
 499 606 l 2
 499 587 498 572 498 572 c 1
EndSplineSet
EndChar

StartChar: g
Encoding: 103 103 71
Width: 565
VWidth: 0
Flags: HW
LayerCount: 2
Back
Fore
SplineSet
86 182 m 0
 86 331 176 449 310 449 c 0
 357 449 378 444 430 444 c 2
 471 444 l 1
 469 222 l 1
 468 -11 468 -8 458 -50 c 0
 447 -97 417 -132 370 -155 c 0
 335 -172 295 -181 253 -181 c 0
 207 -181 159 -171 112 -151 c 2
 88 -141 l 1
 88 -105 l 2
 88 -85 89 -68 89 -68 c 1
 89 -68 97 -72 105 -77 c 0
 151 -104 206 -120 252 -120 c 0
 330 -120 380 -82 392 -24 c 0
 395 -10 397 50 397 81 c 0
 397 93 397 100 396 100 c 0
 395 100 389 90 383 83 c 0
 356 43 310 6 258 -5 c 0
 248 -8 238 -9 228 -9 c 0
 195 -9 165 5 137 33 c 0
 103 67 86 113 86 182 c 0
397 377 m 1
 385 384 347 388 326 388 c 0
 299 388 275 383 256 373 c 0
 198 342 166 283 166 197 c 0
 166 172 168 145 171 134 c 0
 182 94 211 63 240 60 c 1
 245 60 l 2
 259 60 278 66 297 77 c 0
 327 95 364 135 389 176 c 2
 397 189 l 1
 397 252 397 314 397 377 c 1
EndSplineSet
EndChar

StartChar: h
Encoding: 104 104 72
Width: 565
VWidth: 0
Flags: HW
LayerCount: 2
Back
Fore
SplineSet
102 2 m 1
 102 215 102 427 102 640 c 1
 126 640 150 640 174 640 c 1
 175 494 l 1
 175 348 l 1
 185 362 l 2
 207 394 244 426 277 441 c 0
 298 450 318 455 338 455 c 0
 360 455 381 449 401 439 c 0
 433 422 450 400 462 359 c 0
 466 343 466 338 467 173 c 2
 468 2 l 1
 444 2 419 2 395 2 c 1
 395 156 l 2
 395 246 394 316 393 325 c 0
 388 358 368 388 330 388 c 0
 329 388 327 388 325 388 c 0
 313 387 304 385 294 381 c 0
 255 364 209 321 182 274 c 2
 174 260 l 1
 174 174 174 88 174 2 c 1
 150 2 126 2 102 2 c 1
EndSplineSet
EndChar

StartChar: i
Encoding: 105 105 73
Width: 565
VWidth: 0
Flags: HW
LayerCount: 2
Back
Fore
SplineSet
104 384 m 1
 104 404 104 424 104 444 c 1
 169 444 233 444 298 444 c 1
 298 253 l 1
 299 63 l 1
 360 62 l 1
 422 62 l 1
 422 42 422 22 422 2 c 1
 356 2 291 2 225 2 c 1
 225 129 225 257 225 384 c 1
 185 384 144 384 104 384 c 1
310 603 m 0
 310 577 289 555 263 555 c 0
 255 555 246 557 236 563 c 0
 220 572 215 583 215 601 c 0
 215 627 223 637 241 645 c 0
 249 649 256 651 263 651 c 0
 293 651 310 627 310 603 c 0
EndSplineSet
EndChar

StartChar: j
Encoding: 106 106 74
Width: 565
VWidth: 0
Flags: HW
LayerCount: 2
Back
Fore
SplineSet
141 384 m 1
 141 404 141 424 141 444 c 1
 228 444 315 444 402 444 c 1
 401 219 l 2
 400 20 399 -9 396 -30 c 0
 388 -79 377 -104 348 -133 c 0
 326 -155 308 -166 279 -174 c 0
 259 -179 253 -180 212 -180 c 0
 170 -180 153 -178 120 -172 c 2
 108 -170 l 1
 108 -137 l 2
 108 -119 108 -104 109 -104 c 0
 110 -104 120 -106 133 -109 c 0
 163 -116 189 -120 212 -120 c 0
 276 -120 312 -91 324 -33 c 0
 327 -16 328 5 328 184 c 2
 328 383 l 1
 234 383 l 1
 141 384 l 1
366 555 m 0
 339 555 318 574 318 605 c 0
 318 631 338 651 364 651 c 0
 390 651 413 629 413 603 c 0
 413 578 396 555 366 555 c 0
EndSplineSet
EndChar

StartChar: k
Encoding: 107 107 75
Width: 565
VWidth: 0
Flags: HW
LayerCount: 2
Back
Fore
SplineSet
302 343 m 2
 407 444 l 1
 439 444 472 444 504 444 c 1
 499 438 l 1
 408 351 295 241 295 239 c 0
 295 234 505 7 506 5 c 0
 506 5 506 5 506 5 c 0
 506 3 497 2 459 2 c 2
 409 2 l 1
 303 120 l 2
 245 184 198 238 198 239 c 0
 198 240 244 288 302 343 c 2
121 2 m 1
 121 215 121 427 121 640 c 1
 145 640 170 640 194 640 c 1
 194 427 194 215 194 2 c 1
 170 2 145 2 121 2 c 1
EndSplineSet
EndChar

StartChar: l
Encoding: 108 108 76
Width: 565
VWidth: 0
Flags: HW
LayerCount: 2
Back
Fore
SplineSet
88 578 m 1
 88 599 88 619 88 640 c 1
 157 640 225 640 294 640 c 1
 294 351 l 1
 295 63 l 1
 362 62 l 1
 430 62 l 1
 430 42 430 22 430 2 c 1
 360 2 291 2 221 2 c 1
 221 194 221 386 221 578 c 1
 177 578 132 578 88 578 c 1
EndSplineSet
EndChar

StartChar: m
Encoding: 109 109 77
Width: 565
VWidth: 0
Flags: HW
LayerCount: 2
Back
Fore
SplineSet
220 451 m 0
 227 454 235 455 247 454 c 0
 291 452 313 416 314 348 c 1
 314 337 l 1
 322 357 l 2
 335 387 343 401 365 423 c 0
 391 449 400 453 426 453 c 0
 457 453 472 441 483 421 c 0
 496 396 495 396 496 191 c 2
 497 2 l 1
 476 2 454 2 433 2 c 1
 432 181 l 2
 431 373 432 363 420 376 c 0
 416 380 411 382 406 382 c 0
 394 382 379 372 364 354 c 0
 352 339 333 303 321 271 c 2
 313 250 l 1
 313 167 313 85 313 2 c 1
 293 2 272 2 252 2 c 1
 252 169 l 2
 252 349 251 360 241 371 c 0
 234 378 227 383 219 383 c 0
 216 383 214 382 211 381 c 0
 191 374 164 335 140 277 c 2
 132 258 l 1
 132 173 132 87 132 2 c 1
 111 2 89 2 68 2 c 1
 68 149 68 297 68 444 c 1
 89 444 111 444 132 444 c 1
 132 410 132 377 132 343 c 1
 144 364 l 1
 173 417 191 439 220 451 c 0
EndSplineSet
EndChar

StartChar: n
Encoding: 110 110 78
Width: 565
VWidth: 0
Flags: HW
LayerCount: 2
Back
Fore
SplineSet
304 450 m 0
 314 453 328 454 342 454 c 0
 393 454 432 427 449 394 c 0
 466 362 468 329 468 145 c 2
 468 2 l 1
 444 2 419 2 395 2 c 1
 395 154 l 2
 395 310 394 332 386 350 c 0
 377 369 358 389 330 389 c 0
 301 389 266 370 230 335 c 0
 213 318 199 301 185 278 c 2
 174 261 l 1
 174 175 174 88 174 2 c 1
 150 2 126 2 102 2 c 1
 102 149 102 297 102 444 c 1
 126 444 150 444 174 444 c 1
 175 396 l 1
 175 348 l 1
 183 360 l 2
 210 401 261 438 304 450 c 0
EndSplineSet
EndChar

StartChar: o
Encoding: 111 111 79
Width: 565
VWidth: 0
Flags: HW
LayerCount: 2
Back
Fore
SplineSet
143 400 m 0
 180 437 220 453 283 453 c 2
 294 453 l 1
 374 449 429 412 464 339 c 0
 482 302 489 269 489 226 c 2
 489 210 l 1
 485 109 435 34 363 5 c 0
 339 -5 319 -10 285 -10 c 0
 265 -10 243 -8 228 -4 c 0
 174 9 131 46 103 99 c 0
 85 135 78 164 76 211 c 0
 76 216 76 221 76 226 c 0
 76 298 97 355 143 400 c 0
411 222 m 0
 411 321 369 393 282 393 c 0
 258 393 235 388 220 377 c 0
 172 343 154 295 154 212 c 0
 154 128 193 69 250 54 c 0
 258 52 270 51 282 51 c 0
 294 51 307 52 315 54 c 0
 376 71 411 135 411 222 c 0
EndSplineSet
EndChar

StartChar: p
Encoding: 112 112 80
Width: 565
VWidth: 0
Flags: HW
LayerCount: 2
Back
Fore
SplineSet
244 -4 m 0
 222 -4 191 -2 168 3 c 1
 168 -55 168 -112 168 -170 c 1
 144 -170 119 -170 95 -170 c 1
 95 34 95 237 95 441 c 1
 119 441 144 441 168 441 c 1
 168 393 l 1
 169 344 l 1
 179 359 l 2
 210 404 261 441 310 452 c 0
 316 453 324 454 332 454 c 0
 347 454 363 452 375 448 c 0
 403 438 435 412 452 384 c 0
 470 356 478 316 478 263 c 0
 478 240 477 216 474 201 c 0
 462 135 428 76 382 39 c 0
 346 10 303 -4 244 -4 c 0
400 260 m 0
 400 315 381 354 352 374 c 0
 341 381 330 384 318 384 c 0
 306 384 292 381 277 373 c 0
 245 357 213 326 183 281 c 2
 168 258 l 1
 168 194 168 131 168 67 c 1
 184 63 l 2
 203 59 223 57 241 57 c 0
 254 57 265 58 274 60 c 0
 304 66 338 88 359 114 c 0
 387 151 400 193 400 260 c 0
EndSplineSet
EndChar

StartChar: q
Encoding: 113 113 81
Width: 565
VWidth: 0
Flags: HW
LayerCount: 2
Back
Fore
SplineSet
315 448 m 0
 356 448 394 441 436 441 c 2
 470 441 l 1
 470 237 470 34 470 -170 c 1
 446 -170 421 -170 397 -170 c 1
 397 -35 l 2
 397 39 397 99 396 99 c 0
 395 99 390 94 386 87 c 0
 361 48 317 14 273 -2 c 0
 261 -6 240 -9 222 -9 c 0
 214 -9 207 -8 201 -7 c 0
 167 1 129 31 111 65 c 0
 94 97 86 140 86 184 c 0
 86 227 94 271 110 308 c 0
 125 343 138 360 166 388 c 0
 207 429 242 448 315 448 c 0
376 382 m 2
 365 384 345 386 332 387 c 1
 322 387 l 2
 277 387 246 371 220 343 c 0
 196 319 182 295 173 261 c 0
 168 241 167 235 167 194 c 0
 167 145 168 134 180 109 c 0
 187 95 205 75 218 67 c 0
 226 62 236 60 247 60 c 0
 261 60 277 64 291 72 c 0
 324 91 363 132 389 175 c 1
 397 189 l 1
 397 284 l 1
 396 379 l 1
 376 382 l 2
EndSplineSet
EndChar

StartChar: r
Encoding: 114 114 82
Width: 565
VWidth: 0
Flags: HW
LayerCount: 2
Back
Fore
SplineSet
277 418 m 0
 309 441 342 455 391 455 c 0
 412 455 433 452 455 447 c 2
 470 443 l 1
 470 390 470 338 470 285 c 1
 446 285 423 285 399 285 c 1
 399 319 399 352 399 386 c 1
 389 388 l 2
 386 388 382 389 378 389 c 0
 364 389 347 386 336 383 c 0
 297 371 255 326 229 285 c 1
 212 260 l 1
 212 174 212 88 212 2 c 1
 188 2 163 2 139 2 c 1
 139 149 139 297 139 444 c 1
 163 444 188 444 212 444 c 1
 212 396 l 2
 212 366 213 350 214 350 c 0
 215 350 220 358 225 364 c 0
 238 383 261 406 277 418 c 0
EndSplineSet
EndChar

StartChar: s
Encoding: 115 115 83
Width: 565
VWidth: 0
Flags: HW
LayerCount: 2
Back
Fore
SplineSet
131 382 m 0
 153 428 212 454 288 454 c 0
 331 454 377 449 416 438 c 2
 430 434 l 1
 430 401 l 2
 430 374 430 370 428 370 c 2
 427 370 l 1
 366 389 340 393 297 393 c 0
 263 393 248 391 230 382 c 0
 207 371 195 354 195 336 c 0
 195 330 196 324 199 318 c 0
 208 299 230 287 309 258 c 0
 369 236 402 221 422 205 c 0
 449 184 461 161 463 128 c 0
 463 125 463 122 463 119 c 0
 463 85 453 59 429 36 c 0
 395 3 355 -9 281 -9 c 0
 225 -9 177 -1 125 18 c 2
 106 25 l 1
 106 50 106 76 106 101 c 1
 125 90 l 2
 167 66 223 50 288 50 c 0
 322 50 351 58 366 70 c 0
 380 82 388 99 388 114 c 0
 388 119 387 124 385 129 c 0
 377 150 361 158 271 194 c 0
 209 218 179 234 159 248 c 0
 133 266 119 298 119 331 c 0
 119 348 123 366 131 382 c 0
EndSplineSet
EndChar

StartChar: t
Encoding: 116 116 84
Width: 565
VWidth: 0
Flags: HW
LayerCount: 2
Back
Fore
SplineSet
188 404 m 1
 188 464 188 523 188 583 c 1
 212 583 236 583 260 583 c 1
 261 524 261 464 262 405 c 1
 359 404 l 1
 457 404 l 1
 457 384 457 364 457 344 c 1
 391 344 326 344 260 344 c 1
 261 235 l 2
 262 139 263 123 266 111 c 0
 277 72 306 51 356 51 c 0
 371 51 387 52 402 56 c 0
 423 61 460 76 462 80 c 0
 463 81 463 82 464 82 c 0
 467 82 468 72 468 50 c 2
 468 18 l 1
 448 11 l 2
 408 -4 383 -10 354 -10 c 0
 265 -10 211 28 194 99 c 0
 190 118 189 128 188 232 c 2
 187 344 l 1
 150 344 114 344 77 344 c 1
 77 364 77 384 77 404 c 1
 114 404 151 404 188 404 c 1
EndSplineSet
EndChar

StartChar: u
Encoding: 117 117 85
Width: 565
VWidth: 0
Flags: HW
LayerCount: 2
Back
Fore
SplineSet
97 301 m 2
 97 444 l 1
 121 444 146 444 170 444 c 1
 170 291 l 2
 170 195 171 133 172 122 c 0
 177 86 199 58 236 58 c 0
 249 58 264 61 279 69 c 0
 314 85 356 127 383 172 c 2
 391 185 l 1
 391 271 391 358 391 444 c 1
 415 444 439 444 463 444 c 1
 463 297 463 149 463 2 c 1
 439 2 415 2 391 2 c 1
 390 50 l 1
 390 98 l 1
 379 84 l 1
 349 43 312 14 271 -1 c 0
 257 -6 238 -9 221 -9 c 0
 157 -9 115 35 105 84 c 0
 99 113 97 158 97 301 c 2
EndSplineSet
EndChar

StartChar: v
Encoding: 118 118 86
Width: 565
VWidth: 0
Flags: HW
LayerCount: 2
Back
Fore
SplineSet
53 442 m 0
 53 443 68 444 92 444 c 2
 132 444 l 1
 207 270 l 2
 248 175 283 97 284 97 c 0
 285 97 320 175 362 270 c 2
 438 443 l 1
 474 443 l 2
 485 443 493 444 498 444 c 0
 509 444 510 443 509 440 c 0
 508 438 465 339 413 220 c 2
 318 3 l 1
 281 3 l 1
 244 2 l 1
 149 221 l 2
 97 341 53 441 53 442 c 0
EndSplineSet
EndChar

StartChar: w
Encoding: 119 119 87
Width: 565
VWidth: 0
Flags: HW
LayerCount: 2
Back
Fore
SplineSet
517 444 m 1
 515 430 446 13 446 5 c 0
 446 3 436 2 412 2 c 2
 378 2 l 1
 361 63 292 290 286 317 c 0
 282 334 279 349 278 349 c 0
 277 349 274 335 271 319 c 0
 268 303 248 225 228 146 c 2
 191 2 l 1
 167 2 144 2 120 2 c 1
 85 218 l 2
 65 343 50 434 48 444 c 1
 82 443 l 1
 116 443 l 1
 133 333 l 2
 154 194 163 131 169 114 c 1
 172 122 172 130 175 146 c 0
 177 158 195 229 215 305 c 2
 250 444 l 1
 272 444 293 444 315 444 c 1
 317 436 l 1
 331 393 396 169 400 150 c 0
 407 119 408 115 409 115 c 0
 411 115 413 130 415 147 c 0
 422 191 459 433 462 444 c 1
 480 444 499 444 517 444 c 1
EndSplineSet
EndChar

StartChar: x
Encoding: 120 120 88
Width: 565
VWidth: 0
Flags: HW
LayerCount: 2
Back
Fore
SplineSet
233 235 m 0
 233 238 75 439 75 442 c 0
 75 443 96 444 121 444 c 2
 167 443 l 1
 224 369 l 2
 263 318 280 298 283 298 c 0
 284 299 310 332 340 372 c 2
 394 444 l 1
 434 444 l 2
 456 444 474 444 474 443 c 0
 474 440 324 244 324 241 c 0
 324 240 503 6 503 3 c 0
 503 2 482 2 457 2 c 2
 412 2 l 1
 344 91 l 2
 307 139 278 178 276 178 c 0
 275 177 246 138 211 90 c 2
 146 3 l 1
 104 3 l 1
 62 2 l 1
 148 117 l 2
 219 211 233 229 233 235 c 0
EndSplineSet
EndChar

StartChar: y
Encoding: 121 121 89
Width: 565
VWidth: 0
Flags: HW
LayerCount: 2
Back
Fore
SplineSet
62 443 m 0
 62 444 79 444 101 444 c 2
 140 444 l 1
 222 278 l 2
 289 142 302 116 305 116 c 2
 306 117 l 2
 307 120 338 195 374 283 c 2
 440 444 l 1
 476 444 l 2
 502 444 511 443 511 441 c 0
 511 397 320 -15 312 -30 c 0
 261 -133 222 -168 144 -179 c 0
 137 -180 126 -181 114 -181 c 0
 91 -181 70 -178 54 -175 c 1
 53 -144 l 2
 53 -127 53 -113 54 -113 c 0
 55 -113 62 -114 70 -116 c 0
 80 -119 96 -120 111 -120 c 0
 152 -120 177 -110 199 -89 c 0
 220 -70 244 -32 259 6 c 1
 265 20 l 1
 163 231 l 2
 107 347 62 442 62 443 c 0
EndSplineSet
EndChar

StartChar: z
Encoding: 122 122 90
Width: 565
VWidth: 0
Flags: HW
LayerCount: 2
Back
Fore
SplineSet
99 384 m 1
 99 404 99 424 99 444 c 1
 220 444 340 444 461 444 c 1
 461 424 461 403 461 383 c 1
 325 228 l 2
 250 143 190 72 190 71 c 0
 190 70 245 68 330 68 c 2
 470 68 l 1
 470 46 470 24 470 2 c 1
 345 2 220 2 95 2 c 1
 95 25 95 49 95 72 c 1
 229 226 l 2
 302 311 362 381 362 382 c 0
 362 383 319 384 231 384 c 2
 99 384 l 1
EndSplineSet
EndChar

StartChar: braceleft
Encoding: 123 123 91
Width: 565
VWidth: 0
Flags: HW
LayerCount: 2
Back
Fore
SplineSet
342 132 m 0
 342 101 318 1 318 -29 c 0
 318 -54 334 -70 352 -77 c 0
 368 -83 399 -86 440 -86 c 2
 474 -86 l 1
 474 -106 474 -126 474 -146 c 1
 438 -146 l 2
 369 -146 324 -140 297 -127 c 0
 267 -113 243 -78 243 -31 c 0
 243 -15 245 4 249 22 c 0
 263 85 269 115 269 136 c 0
 269 150 266 159 261 170 c 0
 243 207 219 219 156 222 c 2
 124 224 l 1
 124 243 124 263 124 282 c 1
 158 283 l 2
 188 284 195 285 211 290 c 0
 248 303 269 332 269 373 c 0
 269 389 269 391 257 447 c 0
 247 497 243 520 243 538 c 0
 243 581 268 618 297 632 c 0
 332 648 376 651 433 651 c 2
 474 651 l 1
 474 631 474 610 474 590 c 1
 422 589 l 2
 381 588 367 587 358 584 c 0
 343 579 334 572 326 561 c 0
 319 552 319 551 319 526 c 0
 319 504 321 493 330 452 c 0
 340 409 341 402 341 376 c 0
 341 343 339 333 325 312 c 0
 313 294 295 277 274 264 c 0
 264 258 256 253 256 252 c 0
 256 251 263 247 272 242 c 0
 294 230 321 202 330 183 c 0
 338 167 342 152 342 132 c 0
EndSplineSet
EndChar

StartChar: bar
Encoding: 124 124 92
Width: 565
VWidth: 0
Flags: HW
LayerCount: 2
Back
Fore
SplineSet
249 -15 m 1
 249 201 249 417 249 633 c 1
 270 633 292 633 313 633 c 1
 313 417 313 201 313 -15 c 1
 292 -15 270 -15 249 -15 c 1
EndSplineSet
EndChar

StartChar: braceright
Encoding: 125 125 93
Width: 565
VWidth: 0
Flags: HW
LayerCount: 2
Back
Fore
SplineSet
90 590 m 1
 90 610 90 631 90 651 c 1
 127 651 l 2
 195 651 241 645 268 632 c 0
 297 617 322 580 322 535 c 0
 322 497 311 466 304 427 c 0
 299 405 296 383 296 374 c 0
 296 347 304 325 321 308 c 0
 339 290 358 285 405 283 c 2
 441 282 l 1
 441 263 441 243 441 224 c 1
 410 222 l 1
 346 220 321 208 303 169 c 0
 298 159 297 152 296 137 c 1
 296 129 l 2
 296 114 299 98 318 10 c 0
 321 -2 322 -16 322 -29 c 0
 322 -69 307 -97 286 -116 c 0
 262 -137 215 -146 133 -146 c 2
 90 -146 l 1
 90 -126 90 -106 90 -86 c 1
 125 -86 l 2
 166 -86 197 -83 213 -77 c 0
 232 -70 248 -52 248 -27 c 0
 248 -10 242 19 229 81 c 0
 225 97 224 115 224 131 c 0
 224 147 225 162 229 171 c 0
 239 198 263 225 293 242 c 0
 302 247 309 251 309 252 c 0
 309 253 301 258 291 264 c 0
 250 289 226 323 223 363 c 0
 223 366 223 369 223 372 c 0
 223 391 228 416 237 459 c 0
 245 493 246 504 246 526 c 0
 246 551 246 552 239 561 c 0
 231 572 222 579 207 584 c 0
 198 587 184 588 143 589 c 2
 90 590 l 1
EndSplineSet
EndChar

StartChar: asciitilde
Encoding: 126 126 94
Width: 565
VWidth: 0
Flags: HW
LayerCount: 2
Back
Fore
SplineSet
62 165 m 0
 62 228 96 279 145 293 c 0
 152 295 164 295 180 295 c 0
 201 294 207 294 222 288 c 0
 241 281 250 276 299 248 c 0
 346 222 372 211 395 211 c 0
 428 211 450 235 452 269 c 2
 453 285 l 1
 470 285 487 285 504 285 c 1
 502 266 l 1
 498 214 477 183 435 163 c 0
 419 155 403 151 387 151 c 0
 357 151 324 164 271 194 c 0
 219 223 213 227 193 232 c 0
 184 234 175 236 168 236 c 0
 134 236 114 206 109 174 c 1
 108 163 l 1
 85 163 l 2
 72 163 62 164 62 165 c 0
EndSplineSet
EndChar

StartChar: exclamdown
Encoding: 161 161 96
Width: 565
VWidth: 0
Flags: HW
LayerCount: 2
Back
Fore
SplineSet
254 249 m 2
 254 260 l 1
 275 260 295 260 316 260 c 1
 316 250 l 2
 316 236 330 -127 332 -155 c 2
 333 -177 l 1
 301 -177 268 -177 236 -177 c 1
 237 -152 l 2
 239 -114 254 235 254 249 c 2
269 452 m 0
 273 453 277 453 281 453 c 0
 301 453 322 441 332 423 c 0
 335 417 336 408 336 399 c 0
 336 390 335 381 332 375 c 0
 323 357 301 342 282 342 c 0
 259 342 235 360 228 383 c 0
 226 388 226 394 226 399 c 0
 226 423 243 445 269 452 c 0
EndSplineSet
EndChar

StartChar: cent
Encoding: 162 162 97
Width: 565
VWidth: 0
Flags: HW
LayerCount: 2
Back
Fore
SplineSet
280 534 m 1
 280 581 280 628 280 675 c 1
 301 675 321 675 342 675 c 1
 342 628 342 582 342 535 c 1
 368 531 l 2
 396 527 428 521 444 516 c 2
 454 513 l 1
 454 490 455 467 455 444 c 1
 439 451 l 2
 420 460 389 470 364 474 c 0
 354 476 345 477 344 477 c 0
 343 477 342 401 342 306 c 2
 342 135 l 1
 349 135 l 2
 353 135 366 137 377 139 c 0
 388 141 414 167 452 167 c 0
 454 167 455 159 455 134 c 0
 455 115 454 99 453 98 c 0
 447 94 396 83 371 80 c 2
 342 76 l 1
 342 31 342 -15 342 -60 c 1
 321 -60 301 -60 280 -60 c 1
 280 -15 280 32 280 77 c 1
 266 79 l 2
 245 83 230 88 215 95 c 0
 163 119 114 174 98 230 c 0
 91 253 88 281 88 307 c 0
 88 319 89 332 91 343 c 0
 105 440 170 510 263 531 c 2
 280 534 l 1
280 305 m 0
 280 438 280 472 278 472 c 0
 273 472 248 461 236 453 c 0
 192 425 167 370 167 304 c 0
 167 242 192 185 234 157 c 0
 242 152 275 137 279 137 c 0
 280 137 280 213 280 305 c 0
EndSplineSet
EndChar

StartChar: sterling
Encoding: 163 163 98
Width: 565
VWidth: 0
Flags: HW
LayerCount: 2
Back
Fore
SplineSet
328 631 m 0
 342 632 345 633 349 633 c 0
 353 633 357 632 371 631 c 0
 396 628 420 623 440 615 c 2
 454 610 l 1
 454 575 l 2
 454 570 454 565 454 560 c 0
 454 549 455 541 454 541 c 0
 453 541 446 543 439 547 c 0
 410 562 371 572 344 572 c 0
 339 572 335 572 331 571 c 0
 300 566 273 538 265 502 c 0
 261 482 258 450 258 408 c 2
 258 366 l 1
 301 366 343 366 386 366 c 1
 386 346 386 327 386 307 c 1
 344 307 301 307 259 307 c 1
 257 251 l 2
 255 164 253 128 210 81 c 2
 198 68 l 1
 292 68 385 68 479 68 c 1
 479 46 479 24 479 2 c 1
 352 2 224 2 97 2 c 1
 97 25 97 47 97 70 c 1
 108 73 l 2
 135 80 154 94 165 114 c 0
 180 141 185 175 185 239 c 0
 185 244 185 250 185 256 c 2
 184 306 l 1
 155 306 126 307 97 307 c 1
 97 327 97 346 97 366 c 1
 126 366 156 366 185 366 c 1
 186 413 l 2
 188 484 193 517 208 549 c 0
 230 596 269 625 328 631 c 0
EndSplineSet
EndChar

StartChar: currency
Encoding: 164 164 99
Width: 565
VWidth: 0
Flags: HW
LayerCount: 2
Back
Fore
SplineSet
91 528 m 2
 103 539 113 547 113 547 c 0
 113 547 130 529 150 506 c 2
 186 464 l 1
 204 474 l 2
 231 488 244 491 282 491 c 0
 320 491 334 488 361 474 c 2
 379 464 l 1
 415 506 l 2
 435 529 452 547 452 547 c 0
 452 547 462 539 474 528 c 2
 496 508 l 1
 463 470 l 2
 445 449 429 430 427 428 c 0
 424 425 424 423 431 413 c 0
 457 375 464 352 464 308 c 0
 464 264 457 241 434 206 c 0
 426 194 425 191 427 188 c 0
 428 186 444 167 463 146 c 2
 496 108 l 1
 474 89 l 2
 462 79 451 71 450 72 c 0
 448 74 384 147 382 149 c 0
 378 153 378 152 360 144 c 0
 332 131 317 127 282 127 c 0
 247 127 233 131 205 144 c 0
 187 152 187 153 183 149 c 0
 181 147 117 74 115 72 c 0
 114 71 103 79 91 89 c 2
 69 108 l 1
 105 149 l 2
 124 171 140 191 140 193 c 0
 140 194 133 202 128 210 c 0
 107 243 101 265 101 308 c 0
 101 352 108 375 133 412 c 2
 141 424 l 1
 132 435 l 2
 127 441 110 460 95 477 c 2
 69 508 l 1
 91 528 l 2
365 400 m 0
 347 416 315 432 282 432 c 0
 277 432 273 432 268 431 c 0
 207 422 165 375 162 315 c 0
 162 311 161 307 161 304 c 0
 161 270 171 248 195 224 c 0
 219 200 252 185 282 185 c 0
 342 185 392 233 402 280 c 0
 404 289 404 297 404 305 c 0
 404 345 386 381 365 400 c 0
EndSplineSet
EndChar

StartChar: yen
Encoding: 165 165 100
Width: 565
VWidth: 0
Flags: HW
LayerCount: 2
Back
Fore
SplineSet
243 288 m 0
 243 291 65 600 65 611 c 0
 65 613 72 614 103 614 c 2
 142 614 l 1
 214 488 l 2
 254 419 286 362 287 362 c 0
 288 362 321 419 360 488 c 2
 431 613 l 1
 455 613 479 614 503 614 c 1
 495 598 l 2
 490 589 449 516 403 435 c 2
 320 288 l 1
 362 288 404 287 446 287 c 1
 446 269 446 250 446 232 c 1
 404 232 362 232 320 232 c 1
 320 206 320 181 320 155 c 1
 362 155 404 155 446 155 c 1
 446 137 446 120 446 102 c 1
 404 102 362 102 320 102 c 1
 320 69 320 35 320 2 c 1
 296 2 271 2 247 2 c 1
 247 35 246 67 246 100 c 1
 204 100 161 102 119 102 c 1
 119 120 119 137 119 155 c 1
 162 155 204 155 247 155 c 1
 247 181 247 206 247 232 c 1
 204 232 162 232 119 232 c 1
 119 250 119 269 119 287 c 1
 181 287 l 2
 215 287 243 288 243 288 c 0
EndSplineSet
EndChar

StartChar: brokenbar
Encoding: 166 166 101
Width: 565
VWidth: 0
Flags: HW
LayerCount: 2
Back
Fore
SplineSet
252 -159 m 1
 252 -49 252 60 252 170 c 1
 273 170 295 170 316 170 c 1
 316 60 316 -49 316 -159 c 1
 295 -159 273 -159 252 -159 c 1
252 329 m 1
 252 436 252 542 252 649 c 1
 273 649 295 649 316 649 c 1
 316 542 316 436 316 329 c 1
 295 329 273 329 252 329 c 1
EndSplineSet
EndChar

StartChar: section
Encoding: 167 167 102
Width: 565
VWidth: 0
Flags: HW
LayerCount: 2
Back
Fore
SplineSet
187 606 m 0
 223 625 240 631 287 631 c 0
 293 631 300 630 307 630 c 0
 351 629 377 626 417 614 c 2
 431 610 l 1
 431 587 433 564 433 541 c 1
 421 546 l 2
 389 560 343 570 303 571 c 0
 299 571 295 571 291 571 c 0
 251 571 230 563 211 543 c 0
 198 529 193 519 193 503 c 0
 193 471 217 449 308 396 c 0
 372 359 410 334 432 313 c 0
 448 298 452 292 460 275 c 0
 469 255 474 235 474 215 c 0
 474 179 460 143 432 114 c 0
 425 106 419 99 419 98 c 0
 419 97 427 90 436 81 c 0
 454 63 459 53 464 32 c 0
 466 23 468 14 468 5 c 0
 468 -47 432 -99 376 -124 c 0
 346 -137 306 -144 262 -144 c 0
 214 -144 161 -137 110 -121 c 2
 100 -118 l 1
 100 -79 l 2
 100 -73 100 -68 100 -63 c 0
 100 -49 101 -40 101 -40 c 0
 102 -40 108 -42 115 -46 c 0
 156 -67 215 -84 269 -84 c 0
 308 -84 343 -75 367 -52 c 0
 382 -37 390 -22 390 -7 c 0
 390 -2 390 2 388 7 c 0
 380 35 365 47 265 103 c 0
 181 151 142 183 122 223 c 0
 113 242 109 254 109 278 c 0
 109 317 120 342 150 377 c 2
 164 393 l 1
 149 408 l 2
 126 431 115 460 115 490 c 0
 115 509 120 528 129 547 c 0
 138 566 168 596 187 606 c 0
278 329 m 0
 244 349 215 364 214 364 c 0
 212 364 200 347 192 335 c 0
 186 325 181 308 181 292 c 0
 181 265 189 250 209 230 c 0
 228 211 250 196 315 158 c 0
 348 139 362 130 370 130 c 0
 377 130 380 136 387 145 c 0
 402 164 407 177 407 199 c 0
 407 223 401 238 380 259 c 0
 357 283 345 291 278 329 c 0
EndSplineSet
EndChar

StartChar: dieresis
Encoding: 168 168 103
Width: 565
VWidth: 0
Flags: HW
LayerCount: 2
Back
Fore
SplineSet
335 595 m 0
 344 604 356 608 368 608 c 0
 381 608 395 602 405 591 c 0
 413 581 417 571 417 560 c 0
 417 535 397 512 369 512 c 0
 367 512 366 513 364 513 c 0
 337 515 320 537 320 560 c 0
 320 572 324 585 335 595 c 0
150 574 m 0
 156 595 176 607 197 607 c 0
 210 607 223 602 233 591 c 0
 241 582 245 572 245 561 c 0
 245 553 243 546 239 538 c 0
 231 522 215 512 197 512 c 0
 190 512 182 514 174 518 c 0
 157 527 148 543 148 561 c 0
 148 565 149 570 150 574 c 0
EndSplineSet
EndChar

StartChar: copyright
Encoding: 169 169 104
Width: 565
VWidth: 0
Flags: HW
LayerCount: 2
Back
Fore
SplineSet
269 514 m 0
 274 515 284 516 295 516 c 0
 318 516 349 514 368 510 c 2
 393 505 l 1
 393 484 393 464 393 443 c 1
 368 450 329 456 301 456 c 0
 290 456 280 455 274 453 c 0
 242 443 215 409 203 365 c 0
 200 352 197 330 197 308 c 0
 197 289 199 269 202 257 c 0
 213 210 243 173 282 161 c 0
 291 158 304 157 316 157 c 0
 338 157 362 161 381 169 c 0
 385 171 390 172 391 172 c 0
 392 172 393 159 393 143 c 2
 393 115 l 1
 376 109 339 102 307 102 c 0
 294 102 281 104 271 106 c 0
 219 119 180 153 154 205 c 0
 138 236 130 272 130 309 c 0
 130 360 146 412 174 450 c 0
 201 486 229 506 269 514 c 0
181 610 m 0
 208 624 246 633 285 633 c 0
 310 633 336 630 358 622 c 0
 443 592 506 493 521 366 c 0
 522 356 523 339 523 320 c 0
 523 285 521 243 518 228 c 0
 503 152 476 92 435 48 c 0
 409 20 380 2 341 -8 c 0
 322 -13 315 -14 284 -14 c 0
 245 -14 223 -11 196 1 c 0
 119 33 60 129 45 246 c 0
 42 269 41 290 41 312 c 0
 41 452 100 566 181 610 c 0
327 579 m 0
 316 582 292 584 273 584 c 0
 265 584 257 584 253 583 c 0
 198 571 151 531 124 471 c 0
 101 422 90 366 90 310 c 0
 90 250 102 190 127 140 c 0
 156 81 197 49 254 37 c 0
 265 35 275 33 284 33 c 0
 293 33 301 34 311 36 c 0
 396 53 455 133 472 255 c 0
 474 268 475 288 475 309 c 0
 475 330 474 350 472 363 c 0
 456 477 402 557 327 579 c 0
EndSplineSet
EndChar

StartChar: ordfeminine
Encoding: 170 170 105
Width: 565
VWidth: 0
Flags: HW
LayerCount: 2
Back
Fore
SplineSet
384 360 m 1
 380 372 373 403 373 413 c 0
 373 417 373 419 372 419 c 0
 371 419 366 414 360 408 c 0
 336 382 293 360 254 355 c 0
 249 354 244 354 239 354 c 0
 196 354 151 378 135 412 c 0
 127 429 124 450 124 471 c 0
 124 490 127 508 133 525 c 0
 152 577 201 616 260 628 c 0
 266 629 294 629 324 629 c 0
 359 629 396 629 406 629 c 2
 426 629 l 1
 426 521 l 2
 426 405 427 397 437 374 c 2
 443 360 l 1
 423 360 404 360 384 360 c 1
371 580 m 1
 360 580 352 581 334 582 c 0
 327 582 321 583 314 583 c 0
 294 583 277 581 265 577 c 0
 213 560 183 524 183 477 c 0
 183 474 184 470 184 467 c 0
 187 428 213 406 249 406 c 0
 268 406 290 413 313 426 c 0
 332 438 351 452 362 466 c 2
 371 477 l 1
 371 511 371 546 371 580 c 1
EndSplineSet
EndChar

StartChar: guillemotleft
Encoding: 171 171 106
Width: 565
VWidth: 0
Flags: HW
LayerCount: 2
Back
Fore
SplineSet
176 334 m 2
 217 379 251 415 252 415 c 0
 253 415 264 406 275 395 c 2
 296 375 l 1
 237 302 l 2
 205 262 177 227 175 225 c 0
 173 222 174 219 186 204 c 0
 194 194 222 160 248 126 c 2
 295 65 l 1
 273 45 l 2
 261 34 251 27 251 27 c 1
 251 27 217 64 176 109 c 2
 102 190 l 1
 102 211 102 232 102 253 c 1
 176 334 l 2
481 375 m 0
 481 371 361 226 361 222 c 0
 361 218 481 68 481 64 c 0
 481 59 439 28 437 28 c 0
 436 29 402 66 361 110 c 2
 287 191 l 1
 287 252 l 1
 337 307 388 361 438 416 c 1
 460 397 l 2
 472 386 481 376 481 375 c 0
EndSplineSet
EndChar

StartChar: logicalnot
Encoding: 172 172 107
Width: 565
VWidth: 0
Flags: HW
LayerCount: 2
Back
Fore
SplineSet
68 185 m 1
 68 206 68 226 68 247 c 1
 211 247 354 247 497 247 c 1
 497 186 497 125 497 64 c 1
 477 64 457 64 437 64 c 1
 437 104 437 145 437 185 c 1
 314 185 191 185 68 185 c 1
EndSplineSet
EndChar

StartChar: uni00AD
Encoding: 173 173 108
Width: 565
VWidth: 0
Flags: HW
LayerCount: 2
Back
Fore
SplineSet
113 188 m 1
 113 208 113 227 113 247 c 1
 226 247 339 247 452 247 c 1
 452 227 452 208 452 188 c 1
 339 188 226 188 113 188 c 1
EndSplineSet
EndChar

StartChar: registered
Encoding: 174 174 109
Width: 565
VWidth: 0
Flags: HW
LayerCount: 2
Back
Fore
SplineSet
179 135 m 1
 179 255 179 374 179 494 c 1
 239 494 l 2
 303 494 318 492 339 483 c 0
 365 472 384 441 384 410 c 0
 384 387 369 351 352 332 c 0
 351 331 316 306 316 303 c 0
 316 302 377 190 408 136 c 0
 408 136 408 136 408 136 c 0
 408 135 393 135 376 135 c 2
 344 136 l 1
 318 185 293 235 267 284 c 1
 256 284 245 285 234 285 c 1
 234 235 234 185 234 135 c 1
 216 135 197 135 179 135 c 1
330 400 m 0
 330 439 301 452 257 452 c 2
 234 452 l 1
 234 410 234 369 234 327 c 1
 256 327 l 2
 275 327 279 327 286 332 c 0
 315 350 330 373 330 400 c 0
238 628 m 0
 250 630 265 631 279 631 c 0
 306 631 334 627 355 620 c 0
 455 586 523 460 523 309 c 0
 523 302 522 296 522 289 c 0
 518 183 484 100 430 43 c 0
 390 1 346 -16 282 -16 c 0
 281 -16 l 0
 217 -16 178 -1 137 40 c 0
 75 101 40 199 40 307 c 0
 40 331 42 355 45 379 c 0
 58 469 98 549 152 590 c 0
 181 612 204 622 238 628 c 0
324 577 m 0
 312 581 296 583 280 583 c 0
 274 583 269 583 263 582 c 0
 208 577 155 537 125 476 c 0
 118 462 105 424 99 402 c 0
 91 373 88 342 88 310 c 0
 88 235 108 158 146 104 c 0
 178 58 231 31 283 31 c 0
 298 31 312 34 326 38 c 0
 393 59 439 117 463 212 c 0
 470 241 475 274 475 307 c 0
 475 340 471 373 463 403 c 0
 441 489 398 554 324 577 c 0
EndSplineSet
EndChar

StartChar: macron
Encoding: 175 175 110
Width: 565
VWidth: 0
Flags: HW
LayerCount: 2
Back
Fore
SplineSet
172 512 m 1
 172 528 172 545 172 561 c 1
 246 561 319 561 393 561 c 1
 393 545 393 528 393 512 c 1
 319 512 246 512 172 512 c 1
EndSplineSet
EndChar

StartChar: degree
Encoding: 176 176 111
Width: 565
VWidth: 0
Flags: HW
LayerCount: 2
Back
Fore
SplineSet
280 420 m 0
 224 420 175 470 175 526 c 0
 175 586 223 633 281 633 c 0
 332 633 369 599 382 561 c 0
 386 549 388 538 388 526 c 0
 388 468 340 420 280 420 c 0
352 526 m 0
 352 562 324 596 281 596 c 0
 238 596 211 562 211 526 c 0
 211 483 249 456 281 456 c 0
 313 456 352 483 352 526 c 0
EndSplineSet
EndChar

StartChar: plusminus
Encoding: 177 177 112
Width: 565
VWidth: 0
Flags: HW
LayerCount: 2
Back
Fore
SplineSet
68 4 m 1
 68 24 68 44 68 64 c 1
 211 64 354 64 497 64 c 1
 497 44 497 24 497 4 c 1
 354 4 211 4 68 4 c 1
252 369 m 1
 252 431 252 492 252 554 c 1
 273 554 292 554 313 554 c 1
 313 492 313 431 313 369 c 1
 374 369 436 369 497 369 c 1
 497 349 497 329 497 309 c 1
 436 309 374 309 313 309 c 1
 313 248 313 187 313 126 c 1
 292 126 273 126 252 126 c 1
 252 187 252 248 252 309 c 1
 191 309 129 309 68 309 c 1
 68 329 68 349 68 369 c 1
 129 369 191 369 252 369 c 1
EndSplineSet
EndChar

StartChar: uni00B2
Encoding: 178 178 113
Width: 565
VWidth: 0
Flags: HW
LayerCount: 2
Back
Fore
SplineSet
332 594 m 0
 332 624 310 644 279 644 c 0
 249 644 235 639 208 620 c 0
 201 615 194 611 193 611 c 0
 192 611 186 619 179 629 c 2
 166 646 l 1
 175 654 l 2
 188 665 225 683 244 687 c 0
 252 689 263 690 275 690 c 0
 344 690 387 662 387 595 c 0
 387 582 386 569 383 560 c 0
 374 531 344 495 274 429 c 0
 251 407 232 389 232 388 c 0
 232 387 267 386 310 386 c 2
 388 386 l 1
 388 370 388 354 388 338 c 1
 312 338 237 338 161 338 c 1
 161 352 161 367 161 381 c 1
 227 445 l 2
 314 530 325 544 331 578 c 0
 332 584 332 589 332 594 c 0
EndSplineSet
EndChar

StartChar: uni00B3
Encoding: 179 179 114
Width: 565
VWidth: 0
Flags: HW
LayerCount: 2
Back
Fore
SplineSet
331 599 m 0
 331 630 310 647 273 647 c 0
 251 647 232 641 207 628 c 0
 195 622 190 619 186 619 c 0
 181 619 179 625 169 637 c 2
 157 653 l 1
 167 660 l 2
 190 676 226 692 264 692 c 0
 324 692 364 677 382 638 c 0
 386 629 387 620 387 600 c 0
 387 581 386 577 381 566 c 0
 374 550 358 534 342 527 c 0
 333 523 326 520 337 517 c 0
 373 508 399 480 399 439 c 0
 399 365 340 334 260 334 c 0
 228 334 196 339 169 350 c 2
 154 356 l 1
 154 373 154 389 154 406 c 1
 165 401 l 2
 198 386 233 379 263 379 c 0
 308 379 342 399 342 440 c 0
 342 455 336 470 324 479 c 0
 305 493 295 495 249 496 c 2
 207 497 l 1
 207 511 207 526 207 540 c 1
 245 541 l 2
 289 542 298 544 314 558 c 0
 326 568 331 582 331 599 c 0
EndSplineSet
EndChar

StartChar: acute
Encoding: 180 180 115
Width: 565
VWidth: 0
Flags: HW
LayerCount: 2
Back
Fore
SplineSet
248 601 m 2
 284 640 l 1
 312 640 339 640 367 640 c 1
 356 629 l 2
 350 623 320 594 289 565 c 2
 233 512 l 1
 211 512 189 512 167 512 c 1
 190 537 l 2
 203 551 229 580 248 601 c 2
EndSplineSet
EndChar

StartChar: mu
Encoding: 181 181 116
Width: 565
VWidth: 0
Flags: HW
LayerCount: 2
Back
Fore
SplineSet
88 -143 m 1
 88 52 88 248 88 444 c 1
 112 444 137 444 161 444 c 1
 162 292 l 2
 163 155 163 139 167 125 c 0
 172 103 180 88 191 76 c 0
 206 61 223 54 243 54 c 0
 264 54 287 63 310 80 c 0
 326 92 352 123 375 158 c 2
 393 184 l 1
 393 271 393 357 393 444 c 1
 416 444 440 444 463 444 c 1
 463 296 463 149 463 2 c 1
 440 2 416 2 393 2 c 1
 392 34 392 66 392 98 c 1
 378 77 l 2
 354 40 331 19 298 4 c 0
 281 -4 261 -8 243 -8 c 0
 218 -8 194 -1 176 11 c 0
 169 16 163 20 162 20 c 0
 162 20 161 -17 161 -62 c 2
 161 -143 l 1
 137 -143 113 -143 88 -143 c 1
EndSplineSet
EndChar

StartChar: paragraph
Encoding: 182 182 117
Width: 565
VWidth: 0
Flags: HW
LayerCount: 2
Back
Fore
SplineSet
106 547 m 0
 150 611 214 616 320 616 c 0
 338 616 357 615 378 615 c 0
 382 615 386 615 390 615 c 2
 505 616 l 1
 505 595 505 575 505 554 c 1
 483 554 461 554 439 554 c 1
 439 322 439 89 439 -143 c 1
 419 -143 400 -143 380 -143 c 1
 380 89 380 322 380 554 c 1
 359 554 339 554 318 554 c 1
 318 322 318 89 318 -143 c 1
 298 -143 278 -143 258 -143 c 1
 258 -4 257 133 257 272 c 1
 232 277 l 2
 175 288 138 308 110 343 c 0
 86 373 74 410 74 447 c 0
 74 482 85 517 106 547 c 0
EndSplineSet
EndChar

StartChar: periodcentered
Encoding: 183 183 118
Width: 565
VWidth: 0
Flags: HW
LayerCount: 2
Back
Fore
SplineSet
217 225 m 0
 217 261 243 291 281 291 c 0
 315 291 346 265 346 225 c 0
 346 196 328 177 309 167 c 0
 302 163 291 162 281 162 c 0
 241 162 217 193 217 225 c 0
EndSplineSet
EndChar

StartChar: cedilla
Encoding: 184 184 119
Width: 565
VWidth: 0
Flags: HW
LayerCount: 2
Back
Fore
SplineSet
273 -169 m 0
 252 -169 238 -165 214 -159 c 1
 214 -142 l 2
 214 -133 215 -126 216 -126 c 0
 217 -126 222 -128 228 -130 c 0
 238 -134 247 -136 256 -136 c 0
 272 -136 297 -126 297 -110 c 0
 297 -107 296 -104 294 -100 c 0
 287 -88 262 -81 225 -75 c 1
 235 -56 l 2
 241 -45 250 -28 256 -17 c 2
 267 2 l 1
 281 2 295 2 309 2 c 1
 295 -23 l 2
 287 -37 280 -49 280 -49 c 0
 280 -49 286 -51 292 -53 c 0
 324 -60 348 -79 348 -113 c 0
 348 -127 341 -142 333 -150 c 0
 322 -162 297 -169 273 -169 c 0
EndSplineSet
EndChar

StartChar: uni00B9
Encoding: 185 185 120
Width: 565
VWidth: 0
Flags: HW
LayerCount: 2
Back
Fore
SplineSet
227 649 m 2
 277 684 l 1
 296 684 316 684 335 684 c 1
 335 569 335 453 335 338 c 1
 316 338 297 338 278 338 c 1
 278 456 l 2
 278 521 279 588 280 604 c 0
 281 620 281 633 281 633 c 0
 281 633 205 572 200 572 c 0
 198 572 174 604 174 611 c 0
 174 613 200 630 227 649 c 2
EndSplineSet
EndChar

StartChar: ordmasculine
Encoding: 186 186 121
Width: 565
VWidth: 0
Flags: HW
LayerCount: 2
Back
Fore
SplineSet
111 493 m 0
 111 580 181 633 277 633 c 0
 320 633 359 626 386 610 c 0
 429 584 452 539 452 493 c 0
 452 474 448 455 439 436 c 0
 412 380 362 353 282 353 c 0
 239 353 201 362 175 378 c 0
 141 398 111 443 111 493 c 0
392 493 m 0
 392 552 349 585 281 585 c 0
 217 585 171 556 171 494 c 0
 171 434 216 401 282 401 c 0
 347 401 392 435 392 493 c 0
EndSplineSet
EndChar

StartChar: guillemotright
Encoding: 187 187 122
Width: 565
VWidth: 0
Flags: HW
LayerCount: 2
Back
Fore
SplineSet
269 379 m 1
 284 392 299 404 314 417 c 1
 365 362 415 306 466 251 c 1
 466 231 466 212 466 192 c 1
 455 180 l 2
 449 173 323 37 317 30 c 0
 316 29 315 28 314 28 c 0
 311 28 306 32 292 46 c 0
 281 57 271 68 271 69 c 0
 271 70 391 194 391 220 c 0
 391 224 368 255 289 355 c 2
 269 379 l 1
84 68 m 0
 84 72 205 219 205 222 c 0
 205 224 90 370 85 377 c 0
 84 379 91 386 105 398 c 2
 127 417 l 1
 136 407 163 379 207 330 c 2
 278 252 l 1
 278 232 278 211 278 191 c 1
 228 136 177 82 127 27 c 1
 106 47 l 2
 94 58 84 67 84 68 c 0
EndSplineSet
EndChar

StartChar: onequarter
Encoding: 188 188 123
Width: 565
VWidth: 0
Flags: HW
LayerCount: 2
Back
Fore
SplineSet
307 121 m 1
 357 197 406 273 456 349 c 1
 512 349 l 1
 512 128 l 1
 558 128 l 1
 558 79 l 1
 512 79 l 1
 512 2 l 1
 493 2 474 2 455 2 c 1
 455 79 l 1
 307 79 l 1
 307 93 307 107 307 121 c 1
456 206 m 1
 456 275 l 2
 456 288 456 285 452 277 c 0
 446 265 395 184 359 128 c 1
 454 128 l 1
 456 206 l 1
423 573 m 0
 426 578 428 578 454 578 c 2
 482 578 l 1
 476 568 406 447 313 285 c 2
 152 2 l 1
 124 2 l 2
 109 2 97 2 97 3 c 0
 97 4 417 563 423 573 c 0
128 527 m 1
 113 515 57 468 53 468 c 0
 52 468 46 477 39 487 c 2
 26 505 l 1
 62 532 l 2
 82 547 103 564 110 569 c 2
 122 578 l 1
 141 578 160 578 179 578 c 1
 179 234 l 1
 126 234 l 1
 126 355 l 2
 126 414 128 527 128 527 c 1
EndSplineSet
EndChar

StartChar: onehalf
Encoding: 189 189 124
Width: 565
VWidth: 0
Flags: HW
LayerCount: 2
Back
Fore
SplineSet
432 355 m 0
 496 355 533 318 533 263 c 0
 533 257 533 251 532 245 c 0
 527 203 508 177 424 89 c 0
 405 69 391 53 391 52 c 0
 391 51 422 51 461 51 c 2
 532 51 l 1
 532 35 532 18 532 2 c 1
 464 2 395 2 327 2 c 1
 327 16 327 32 327 46 c 1
 382 105 l 2
 471 200 482 217 482 257 c 0
 482 292 465 309 432 309 c 0
 407 309 391 302 369 285 c 0
 363 280 357 276 357 276 c 0
 355 276 332 310 332 313 c 0
 332 329 395 350 400 351 c 0
 409 353 420 355 432 355 c 0
232 293 m 2
 390 578 l 1
 408 578 426 578 444 578 c 1
 436 564 370 446 280 283 c 2
 125 2 l 1
 99 2 l 2
 80 2 72 3 73 5 c 0
 73 6 145 136 232 293 c 2
17 506 m 1
 27 513 40 524 68 546 c 2
 109 578 l 1
 128 578 147 578 166 578 c 1
 166 463 166 349 166 234 c 1
 149 234 132 234 115 234 c 1
 115 333 116 430 116 529 c 1
 103 517 l 2
 92 506 53 474 45 469 c 0
 43 468 37 474 29 487 c 2
 17 506 l 1
EndSplineSet
EndChar

StartChar: threequarters
Encoding: 190 190 125
Width: 565
VWidth: 0
Flags: HW
LayerCount: 2
Back
Fore
SplineSet
454 337 m 2
 461 349 l 1
 479 349 496 349 514 349 c 1
 514 275 514 202 514 128 c 1
 529 128 543 128 558 128 c 1
 558 112 558 95 558 79 c 1
 543 79 529 79 514 79 c 1
 514 53 514 28 514 2 c 1
 496 2 479 2 461 2 c 1
 461 28 461 53 461 79 c 1
 414 79 367 79 320 79 c 1
 320 94 320 108 320 123 c 1
 383 224 l 2
 418 280 450 331 454 337 c 2
462 206 m 2
 462 236 462 263 462 276 c 0
 462 281 462 284 462 284 c 2
 462 284 400 179 383 152 c 2
 369 128 l 1
 400 128 430 128 461 128 c 1
 462 206 l 2
286 300 m 2
 438 578 l 1
 464 578 l 2
 478 578 490 577 490 577 c 0
 490 577 420 448 334 290 c 2
 177 3 l 1
 159 3 141 2 123 2 c 1
 128 12 l 2
 131 17 202 147 286 300 c 2
170 493 m 0
 170 523 148 541 118 541 c 0
 96 541 70 532 47 516 c 2
 38 510 l 1
 25 529 l 2
 18 539 15 544 15 547 c 0
 15 550 18 551 26 557 c 0
 53 576 79 587 117 587 c 0
 179 587 220 553 220 496 c 0
 220 464 203 432 177 420 c 0
 163 414 166 413 181 408 c 0
 211 397 230 371 230 332 c 0
 230 294 210 257 178 242 c 0
 158 233 132 228 105 228 c 0
 76 228 47 233 23 244 c 2
 11 250 l 1
 11 274 l 2
 11 293 12 298 14 297 c 0
 59 278 76 273 104 273 c 0
 152 273 178 292 178 336 c 0
 178 377 146 388 93 390 c 2
 57 391 l 1
 57 405 57 421 57 435 c 1
 87 435 l 2
 122 435 137 439 150 450 c 0
 163 461 170 477 170 493 c 0
EndSplineSet
EndChar

StartChar: questiondown
Encoding: 191 191 126
Width: 565
VWidth: 0
Flags: HW
LayerCount: 2
Back
Fore
SplineSet
294 310 m 2
 294 329 l 1
 318 329 343 329 367 329 c 1
 366 302 l 2
 363 246 350 221 288 154 c 0
 256 120 221 75 208 55 c 0
 196 36 190 21 190 5 c 0
 190 -12 193 -21 204 -35 c 0
 221 -57 246 -66 290 -66 c 0
 336 -66 375 -56 420 -34 c 2
 444 -22 l 1
 444 -45 444 -69 444 -92 c 1
 428 -99 l 2
 380 -119 341 -126 289 -126 c 0
 249 -126 225 -123 198 -113 c 0
 142 -93 110 -49 110 1 c 0
 110 18 114 35 121 52 c 0
 132 77 150 100 206 158 c 0
 273 228 284 242 290 275 c 0
 292 284 294 300 294 310 c 2
272 463 m 0
 272 491 293 517 327 517 c 0
 356 517 382 492 382 462 c 0
 382 432 356 406 326 406 c 0
 297 406 272 429 272 463 c 0
EndSplineSet
EndChar

StartChar: Agrave
Encoding: 192 192 127
Width: 565
VWidth: 0
Flags: HW
LayerCount: 2
Back
Fore
SplineSet
148 312 m 2
 241 616 l 1
 321 616 l 1
 415 311 l 2
 467 143 510 5 510 4 c 0
 510 3 491 2 469 2 c 2
 428 2 l 1
 418 34 l 2
 413 51 404 80 398 99 c 0
 392 118 387 134 386 136 c 0
 384 138 360 139 277 139 c 2
 170 139 l 1
 161 110 l 2
 152 82 139 37 131 13 c 1
 128 2 l 1
 90 2 l 2
 62 2 53 3 53 5 c 0
 53 7 97 145 148 312 c 2
286 462 m 0
 282 478 277 492 277 492 c 1
 277 492 240 365 223 311 c 2
 188 199 l 1
 279 199 l 2
 356 199 368 199 368 202 c 0
 368 213 292 441 286 462 c 0
254 742 m 2
 215 780 192 800 182 810 c 1
 210 810 238 810 266 810 c 1
 302 771 l 2
 322 749 347 721 359 708 c 2
 380 684 l 1
 358 684 336 684 314 684 c 1
 254 742 l 2
EndSplineSet
EndChar

StartChar: Aacute
Encoding: 193 193 128
Width: 565
VWidth: 0
Flags: HW
LayerCount: 2
Back
Fore
SplineSet
242 614 m 0
 242 615 260 616 282 616 c 2
 322 616 l 1
 325 605 l 1
 349 532 511 17 511 5 c 0
 511 3 505 2 471 2 c 2
 429 2 l 1
 415 47 401 93 387 138 c 1
 315 138 244 139 172 139 c 1
 167 126 161 105 148 63 c 2
 129 2 l 1
 104 2 78 2 53 2 c 1
 57 15 l 2
 129 245 239 609 242 614 c 0
287 462 m 0
 282 479 280 490 278 490 c 0
 276 490 274 482 270 466 c 0
 267 452 247 386 227 320 c 0
 207 254 190 201 190 200 c 0
 190 199 230 199 279 199 c 0
 328 199 369 199 369 200 c 0
 369 201 352 255 331 319 c 0
 310 383 291 447 287 462 c 0
252 761 m 2
 297 810 l 1
 325 810 353 810 381 810 c 1
 369 798 348 779 308 741 c 2
 249 684 l 1
 227 684 205 684 183 684 c 1
 195 698 l 2
 202 706 228 734 252 761 c 2
EndSplineSet
EndChar

StartChar: Acircumflex
Encoding: 194 194 129
Width: 565
VWidth: 0
Flags: HW
LayerCount: 2
Back
Fore
SplineSet
241 613 m 2
 241 613 259 614 281 614 c 2
 322 614 l 1
 327 599 l 2
 329 591 371 453 421 293 c 2
 511 2 l 1
 483 2 456 2 428 2 c 1
 422 24 l 2
 418 36 409 66 401 91 c 2
 387 136 l 1
 314 136 242 136 169 136 c 1
 155 92 142 47 128 3 c 1
 91 3 l 2
 79 3 72 2 66 2 c 0
 56 2 54 3 54 5 c 0
 54 26 241 611 241 613 c 2
289 452 m 0
 283 473 277 492 277 492 c 2
 277 492 241 368 225 316 c 0
 206 254 190 201 190 199 c 0
 190 197 208 196 278 196 c 0
 327 196 367 197 367 198 c 0
 367 202 352 250 334 307 c 0
 315 366 295 431 289 452 c 0
213 748 m 2
 257 810 l 1
 273 810 291 810 307 810 c 1
 337 768 367 725 397 683 c 1
 369 682 l 2
 354 682 340 682 339 683 c 0
 338 683 283 748 282 748 c 0
 281 748 269 733 254 715 c 2
 226 682 l 1
 197 682 l 2
 180 682 168 683 168 684 c 0
 168 685 189 714 213 748 c 2
EndSplineSet
EndChar

StartChar: Atilde
Encoding: 195 195 130
Width: 565
VWidth: 0
Flags: HW
LayerCount: 2
Back
Fore
SplineSet
148 311 m 2
 241 614 l 1
 268 614 295 614 322 614 c 1
 327 599 l 2
 330 591 372 454 421 294 c 2
 511 3 l 1
 470 3 l 2
 438 3 429 3 428 5 c 0
 427 7 418 37 407 72 c 2
 387 136 l 1
 169 136 l 1
 155 92 143 47 129 3 c 1
 91 3 l 2
 62 3 54 3 54 5 c 0
 55 7 97 145 148 311 c 2
333 311 m 0
 305 397 292 443 277 492 c 1
 277 492 241 367 225 315 c 0
 206 253 190 200 190 199 c 0
 190 197 215 196 279 196 c 0
 328 196 369 197 369 198 c 0
 369 199 353 250 333 311 c 0
413 775 m 2
 413 726 389 684 339 684 c 0
 320 684 307 689 281 705 c 0
 255 721 241 728 232 728 c 0
 226 728 222 726 217 721 c 0
 210 715 209 712 207 698 c 2
 204 682 l 1
 188 682 172 682 156 682 c 1
 158 698 l 1
 162 750 184 782 228 782 c 0
 245 782 263 776 290 760 c 0
 321 742 330 737 340 737 c 0
 354 737 364 753 364 776 c 2
 364 783 l 1
 413 783 l 1
 413 775 l 2
EndSplineSet
EndChar

StartChar: Adieresis
Encoding: 196 196 131
Width: 565
VWidth: 0
Flags: HW
LayerCount: 2
Back
Fore
SplineSet
242 614 m 0
 242 615 260 616 282 616 c 2
 322 616 l 1
 325 605 l 1
 349 532 511 17 511 5 c 0
 511 3 505 2 471 2 c 2
 429 2 l 1
 415 47 401 93 387 138 c 1
 315 138 244 139 172 139 c 1
 167 126 161 105 148 63 c 2
 129 2 l 1
 104 2 78 2 53 2 c 1
 57 15 l 2
 129 245 239 609 242 614 c 0
287 462 m 0
 282 479 280 490 278 490 c 0
 276 490 274 482 270 466 c 0
 267 452 247 386 227 320 c 0
 207 254 190 201 190 200 c 0
 190 199 230 199 279 199 c 0
 328 199 369 199 369 200 c 0
 369 201 352 255 331 319 c 0
 310 383 291 447 287 462 c 0
348 775 m 0
 354 778 362 779 370 779 c 0
 377 779 383 778 388 776 c 0
 407 768 416 750 416 733 c 0
 416 710 400 687 373 685 c 0
 371 685 369 685 367 685 c 0
 354 685 345 688 336 696 c 0
 325 706 320 718 320 731 c 0
 320 749 330 767 348 775 c 0
177 776 m 0
 182 778 189 779 195 779 c 0
 203 779 211 777 218 774 c 0
 236 766 244 749 244 732 c 0
 244 715 236 698 218 689 c 0
 212 686 205 684 197 684 c 0
 187 684 176 687 169 692 c 0
 155 701 148 716 148 731 c 0
 148 749 158 768 177 776 c 0
EndSplineSet
EndChar

StartChar: Aring
Encoding: 197 197 132
Width: 565
VWidth: 0
Flags: HW
LayerCount: 2
Back
Fore
SplineSet
250 742 m 0
 259 747 264 748 274 748 c 0
 277 748 280 748 284 748 c 0
 318 747 335 731 347 708 c 0
 351 700 352 695 352 676 c 0
 352 647 345 636 331 623 c 0
 326 619 322 615 322 614 c 0
 322 613 365 475 417 307 c 2
 511 2 l 1
 483 2 456 2 428 2 c 1
 422 24 l 2
 418 36 409 66 401 91 c 2
 387 136 l 1
 314 136 242 136 169 136 c 1
 155 92 142 47 128 3 c 1
 91 3 l 2
 79 3 72 2 66 2 c 0
 56 2 54 3 54 5 c 0
 54 46 241 612 241 614 c 0
 241 615 237 620 232 624 c 0
 220 635 209 654 209 676 c 0
 209 705 224 729 250 742 c 0
302 707 m 0
 296 711 289 714 282 714 c 0
 275 714 267 711 261 707 c 0
 250 699 245 687 245 676 c 0
 245 664 250 653 262 645 c 0
 267 641 274 640 281 640 c 0
 288 640 295 641 300 645 c 0
 312 653 318 665 318 677 c 0
 318 688 313 699 302 707 c 0
289 452 m 0
 283 473 277 492 277 492 c 2
 277 492 245 380 227 322 c 0
 207 256 190 201 190 199 c 0
 190 197 208 196 278 196 c 0
 327 196 367 197 367 198 c 0
 367 202 352 250 334 307 c 0
 315 366 295 431 289 452 c 0
EndSplineSet
EndChar

StartChar: AE
Encoding: 198 198 133
Width: 565
VWidth: 0
Flags: HW
LayerCount: 2
Back
Fore
SplineSet
44 12 m 2
 50 26 287 605 291 616 c 1
 362 616 434 616 505 616 c 1
 505 595 505 575 505 554 c 1
 458 554 411 554 364 554 c 1
 364 483 364 413 364 342 c 1
 409 342 454 342 499 342 c 1
 499 322 499 303 499 283 c 1
 454 283 409 283 364 283 c 1
 364 212 364 139 364 68 c 1
 411 68 458 68 505 68 c 1
 505 46 505 24 505 2 c 1
 434 2 362 2 291 2 c 1
 291 51 291 101 291 150 c 1
 249 150 208 150 166 150 c 1
 146 101 127 52 107 3 c 1
 85 3 62 2 40 2 c 1
 44 12 l 2
290 206 m 0
 291 207 291 263 291 329 c 0
 291 417 290 443 288 443 c 0
 280 443 190 205 190 205 c 2
 190 204 208 203 228 203 c 0
 256 203 289 204 290 206 c 0
EndSplineSet
EndChar

StartChar: Ccedilla
Encoding: 199 199 134
Width: 565
VWidth: 0
Flags: HW
LayerCount: 2
Back
Fore
SplineSet
283 624 m 0
 304 629 325 632 346 632 c 0
 386 632 427 623 469 608 c 1
 470 572 l 2
 470 552 470 537 469 537 c 0
 420 562 387 571 349 571 c 0
 345 571 342 571 338 571 c 0
 319 570 311 568 297 563 c 0
 240 541 198 480 178 392 c 0
 172 369 170 336 170 305 c 0
 170 286 171 267 173 252 c 0
 188 153 235 77 297 53 c 0
 312 47 328 45 346 45 c 0
 379 45 416 54 451 71 c 0
 461 76 469 79 469 79 c 0
 469 79 470 63 470 44 c 2
 470 9 l 1
 446 1 l 2
 416 -9 385 -18 349 -18 c 2
 337 -18 l 1
 328 -33 l 2
 323 -41 320 -48 320 -49 c 0
 320 -53 344 -53 366 -69 c 0
 379 -78 386 -95 386 -112 c 0
 386 -121 384 -130 380 -138 c 0
 373 -150 359 -162 346 -166 c 0
 340 -168 329 -168 317 -168 c 0
 300 -168 281 -167 270 -164 c 2
 255 -160 l 1
 254 -143 l 2
 254 -134 254 -126 254 -126 c 0
 254 -126 259 -128 265 -130 c 0
 275 -135 286 -137 297 -137 c 0
 310 -137 321 -134 328 -127 c 0
 334 -122 336 -116 336 -111 c 0
 336 -96 315 -82 280 -78 c 0
 274 -77 266 -76 266 -75 c 0
 266 -71 296 -17 296 -16 c 0
 296 -14 288 -11 274 -6 c 0
 190 23 132 85 105 171 c 0
 94 207 88 253 88 300 c 0
 88 357 97 415 113 460 c 0
 143 542 208 605 283 624 c 0
EndSplineSet
EndChar

StartChar: Egrave
Encoding: 200 200 135
Width: 565
VWidth: 0
Flags: HW
LayerCount: 2
Back
Fore
SplineSet
119 2 m 1
 119 207 119 411 119 616 c 1
 227 616 336 616 444 616 c 1
 444 595 444 575 444 554 c 1
 362 554 281 554 199 554 c 1
 199 484 199 414 199 344 c 1
 273 344 345 344 419 344 c 1
 419 324 419 305 419 285 c 1
 345 285 273 285 199 285 c 1
 199 213 199 140 199 68 c 1
 283 68 366 68 450 68 c 1
 450 46 450 24 450 2 c 1
 340 2 229 2 119 2 c 1
199 798 m 2
 186 810 l 1
 214 810 242 810 270 810 c 1
 308 768 346 726 384 684 c 1
 362 684 340 684 318 684 c 1
 264 735 l 2
 235 763 206 792 199 798 c 2
EndSplineSet
EndChar

StartChar: Eacute
Encoding: 201 201 136
Width: 565
VWidth: 0
Flags: HW
LayerCount: 2
Back
Fore
SplineSet
119 2 m 1
 119 207 119 411 119 616 c 1
 227 616 336 616 444 616 c 1
 444 595 444 575 444 554 c 1
 362 554 281 554 199 554 c 1
 199 484 199 414 199 344 c 1
 273 344 345 344 419 344 c 1
 419 324 419 305 419 285 c 1
 345 285 273 285 199 285 c 1
 199 213 199 140 199 68 c 1
 283 68 366 68 450 68 c 1
 450 46 450 24 450 2 c 1
 340 2 229 2 119 2 c 1
187 685 m 1
 224 726 262 769 299 810 c 1
 327 810 355 810 383 810 c 1
 361 788 l 2
 349 776 319 748 295 725 c 2
 252 684 l 1
 230 684 209 685 187 685 c 1
EndSplineSet
EndChar

StartChar: Ecircumflex
Encoding: 202 202 137
Width: 565
VWidth: 0
Flags: HW
LayerCount: 2
Back
Fore
SplineSet
119 2 m 1
 119 207 119 411 119 616 c 1
 227 616 336 616 444 616 c 1
 444 595 444 575 444 554 c 1
 362 554 281 554 199 554 c 1
 199 484 199 414 199 344 c 1
 273 344 345 344 419 344 c 1
 419 324 419 305 419 285 c 1
 345 285 273 285 199 285 c 1
 199 213 199 140 199 68 c 1
 283 68 366 68 450 68 c 1
 450 46 450 24 450 2 c 1
 340 2 229 2 119 2 c 1
214 750 m 2
 257 810 l 1
 274 810 291 809 308 809 c 1
 351 748 l 2
 375 714 395 686 395 685 c 0
 395 684 381 684 365 684 c 2
 336 684 l 1
 310 716 l 2
 296 733 283 748 282 748 c 0
 281 748 269 734 254 716 c 2
 227 684 l 1
 197 684 l 2
 173 684 168 685 169 687 c 0
 170 689 190 717 214 750 c 2
EndSplineSet
EndChar

StartChar: Edieresis
Encoding: 203 203 138
Width: 565
VWidth: 0
Flags: HW
LayerCount: 2
Back
Fore
SplineSet
119 2 m 1
 119 207 119 411 119 616 c 1
 227 616 336 616 444 616 c 1
 444 595 444 575 444 554 c 1
 362 554 281 554 199 554 c 1
 199 484 199 414 199 344 c 1
 273 344 345 344 419 344 c 1
 419 324 419 305 419 285 c 1
 345 285 273 285 199 285 c 1
 199 213 199 140 199 68 c 1
 283 68 366 68 450 68 c 1
 450 46 450 24 450 2 c 1
 340 2 229 2 119 2 c 1
350 775 m 0
 356 778 364 779 372 779 c 0
 379 779 385 778 390 776 c 0
 409 768 418 750 418 733 c 0
 418 710 402 687 375 685 c 0
 373 685 371 685 369 685 c 0
 356 685 347 688 338 696 c 0
 327 706 322 718 322 731 c 0
 322 749 332 767 350 775 c 0
181 777 m 0
 184 779 190 779 195 779 c 0
 204 779 214 777 220 775 c 0
 237 767 247 750 247 732 c 0
 247 721 243 709 235 700 c 0
 225 690 211 684 197 684 c 0
 188 684 179 687 171 692 c 0
 157 702 151 716 151 731 c 0
 151 750 161 769 181 777 c 0
EndSplineSet
EndChar

StartChar: Igrave
Encoding: 204 204 139
Width: 565
VWidth: 0
Flags: HW
LayerCount: 2
Back
Fore
SplineSet
108 554 m 1
 108 575 108 595 108 616 c 1
 224 616 341 616 457 616 c 1
 457 595 457 575 457 554 c 1
 412 554 367 554 322 554 c 1
 322 390 322 226 322 62 c 1
 367 62 412 62 457 62 c 1
 457 42 457 22 457 2 c 1
 341 2 224 2 108 2 c 1
 108 22 108 42 108 62 c 1
 153 62 198 62 243 62 c 1
 243 226 243 390 243 554 c 1
 198 554 153 554 108 554 c 1
194 800 m 2
 184 810 l 1
 212 810 240 810 268 810 c 1
 302 772 l 2
 321 751 346 723 359 709 c 2
 382 684 l 1
 360 684 338 684 316 684 c 1
 260 737 l 2
 229 766 199 795 194 800 c 2
EndSplineSet
EndChar

StartChar: Iacute
Encoding: 205 205 140
Width: 565
VWidth: 0
Flags: HW
LayerCount: 2
Back
Fore
SplineSet
108 554 m 1
 108 575 108 595 108 616 c 1
 224 616 341 616 457 616 c 1
 457 595 457 575 457 554 c 1
 412 554 367 554 322 554 c 1
 322 390 322 226 322 62 c 1
 367 62 412 62 457 62 c 1
 457 42 457 22 457 2 c 1
 341 2 224 2 108 2 c 1
 108 22 108 42 108 62 c 1
 153 62 198 62 243 62 c 1
 243 226 243 390 243 554 c 1
 198 554 153 554 108 554 c 1
185 684 m 1
 193 694 212 715 246 752 c 2
 298 810 l 1
 326 810 353 810 381 810 c 1
 354 784 l 2
 339 770 310 741 289 721 c 2
 250 684 l 1
 228 684 207 684 185 684 c 1
EndSplineSet
EndChar

StartChar: Icircumflex
Encoding: 206 206 141
Width: 565
VWidth: 0
Flags: HW
LayerCount: 2
Back
Fore
SplineSet
108 554 m 1
 108 575 108 595 108 616 c 1
 224 616 341 616 457 616 c 1
 457 595 457 575 457 554 c 1
 412 554 367 554 322 554 c 1
 322 390 322 226 322 62 c 1
 367 62 412 62 457 62 c 1
 457 42 457 22 457 2 c 1
 341 2 224 2 108 2 c 1
 108 22 108 42 108 62 c 1
 153 62 198 62 243 62 c 1
 243 226 243 390 243 554 c 1
 198 554 153 554 108 554 c 1
214 749 m 2
 257 810 l 1
 274 810 291 810 308 810 c 1
 342 762 l 2
 361 736 381 707 387 699 c 2
 397 684 l 1
 377 684 357 684 337 684 c 1
 311 716 l 2
 297 733 284 748 283 748 c 0
 282 748 270 734 255 716 c 2
 228 684 l 1
 199 684 l 2
 182 684 170 685 170 686 c 0
 170 687 190 715 214 749 c 2
EndSplineSet
EndChar

StartChar: Idieresis
Encoding: 207 207 142
Width: 565
VWidth: 0
Flags: HW
LayerCount: 2
Back
Fore
SplineSet
108 554 m 1
 108 575 108 595 108 616 c 1
 224 616 341 616 457 616 c 1
 457 595 457 575 457 554 c 1
 412 554 367 554 322 554 c 1
 322 390 322 226 322 62 c 1
 367 62 412 62 457 62 c 1
 457 42 457 22 457 2 c 1
 341 2 224 2 108 2 c 1
 108 22 108 42 108 62 c 1
 153 62 198 62 243 62 c 1
 243 226 243 390 243 554 c 1
 198 554 153 554 108 554 c 1
347 775 m 0
 353 778 360 779 367 779 c 0
 380 779 393 775 401 767 c 0
 409 760 417 742 417 731 c 0
 417 707 394 684 367 684 c 0
 362 684 357 684 352 686 c 0
 341 690 329 701 324 712 c 0
 321 718 320 724 320 731 c 0
 320 749 330 768 347 775 c 0
174 774 m 0
 181 777 190 779 198 779 c 0
 204 779 211 778 216 776 c 0
 235 768 245 749 245 731 c 0
 245 712 234 693 213 686 c 0
 209 685 203 684 198 684 c 0
 187 684 176 687 169 692 c 0
 155 702 149 717 149 732 c 0
 149 749 157 765 174 774 c 0
EndSplineSet
EndChar

StartChar: Eth
Encoding: 208 208 143
Width: 565
VWidth: 0
Flags: HW
LayerCount: 2
Back
SplineSet
79.4482421875 450.241210938 m 1
 79.4482421875 580.448242188 l 1
 166.1796875 580.448242188 l 2
 258.869140625 580.448242188 289.314453125 578.669921875 321.986328125 571.348632812 c 0
 412.91015625 550.97265625 478.454101562 489.357421875 502.932617188 401.248046875 c 0
 526.661132812 315.841796875 517.27734375 200.981445312 481.028320312 133.110351562 c 0
 446.544921875 68.546875 390.841796875 29.34765625 306.758789062 10.4775390625 c 0
 287.33984375 6.1201171875 278.1796875 5.7158203125 182.62109375 5 c 2
 79.4482421875 4.2275390625 l 1
 79.4482421875 131.234375 l 1
 79.4482421875 258.241210938 l 1
 50.7587890625 258.241210938 l 1
 22.0693359375 258.241210938 l 1
 22.0693359375 289.137695312 l 1
 22.0693359375 320.034179688 l 1
 50.7587890625 320.034179688 l 1
 79.4482421875 320.034179688 l 1
 79.4482421875 450.241210938 l 1
301.020507812 511.215820312 m 0
 280.604492188 516.517578125 274.869140625 516.961914062 213.517578125 517.993164062 c 2
 147.862304688 519.096679688 l 1
 147.862304688 419.565429688 l 1
 147.862304688 320.034179688 l 1
 217.37890625 320.034179688 l 1
 286.896484375 320.034179688 l 1
 286.896484375 289.137695312 l 1
 286.896484375 258.241210938 l 1
 217.930664062 257.689453125 l 1
 148.965820312 257.137695312 l 1
 148.965820312 161.137695312 l 1
 148.965820312 65.1376953125 l 1
 201.930664062 65.1376953125 l 2
 260.193359375 65.1376953125 280.463867188 67.4072265625 311.393554688 77.39453125 c 0
 346.041015625 88.58203125 374.728515625 106.34765625 392.450195312 127.592773438 c 0
 425.810546875 167.584960938 440.405273438 211.455078125 442.891601562 279.20703125 c 0
 447.694335938 410.076171875 401.861328125 485.028320312 301.020507812 511.215820312 c 0
EndSplineSet
Fore
SplineSet
79 320 m 1
 79 407 79 493 79 580 c 1
 166 580 l 2
 259 580 289 578 322 571 c 0
 413 551 479 489 503 401 c 0
 512 370 516 335 516 299 c 0
 516 238 504 176 481 133 c 0
 447 68 391 29 307 10 c 0
 288 6 279 6 183 5 c 2
 79 4 l 1
 79 89 79 173 79 258 c 1
 60 258 41 258 22 258 c 1
 22 279 22 299 22 320 c 1
 41 320 60 320 79 320 c 1
301 511 m 0
 281 516 275 517 214 518 c 2
 148 519 l 1
 148 453 148 386 148 320 c 1
 194 320 241 320 287 320 c 1
 287 299 287 279 287 258 c 1
 218 258 l 1
 149 257 l 1
 149 193 149 129 149 65 c 1
 202 65 l 2
 260 65 280 67 311 77 c 0
 346 88 374 107 392 128 c 0
 425 168 441 211 443 279 c 0
 443 285 443 292 443 298 c 0
 443 417 397 486 301 511 c 0
EndSplineSet
EndChar

StartChar: Ntilde
Encoding: 209 209 144
Width: 565
VWidth: 0
Flags: HW
LayerCount: 2
Back
Fore
SplineSet
88 2 m 1
 88 207 88 411 88 616 c 1
 112 616 136 616 160 616 c 1
 270 409 l 2
 350 258 382 194 390 174 c 0
 396 159 401 146 402 146 c 0
 402 146 402 158 402 178 c 0
 402 219 402 295 402 381 c 2
 401 616 l 1
 425 616 450 616 474 616 c 1
 474 411 474 207 474 2 c 1
 438 3 l 1
 401 3 l 1
 296 202 l 2
 239 311 185 415 177 433 c 0
 169 450 162 466 161 466 c 0
 161 466 161 455 161 435 c 0
 161 395 161 320 161 235 c 2
 161 2 l 1
 137 2 112 2 88 2 c 1
157 693 m 2
 157 739 178 773 215 782 c 0
 219 783 223 783 227 783 c 0
 244 783 262 776 289 760 c 0
 318 743 329 738 338 738 c 0
 340 738 342 738 343 738 c 0
 353 740 360 749 363 768 c 2
 365 783 l 1
 389 783 l 2
 392 783 395 783 397 783 c 0
 409 783 412 782 412 775 c 0
 412 771 411 764 409 753 c 0
 402 712 382 685 340 685 c 0
 339 685 338 685 336 685 c 0
 310 687 288 699 271 711 c 0
 251 724 242 728 232 728 c 0
 217 728 205 712 205 691 c 2
 205 684 l 1
 189 684 173 684 157 684 c 1
 157 693 l 2
EndSplineSet
EndChar

StartChar: Ograve
Encoding: 210 210 145
Width: 565
VWidth: 0
Flags: HW
LayerCount: 2
Back
Fore
SplineSet
242 628 m 0
 253 631 266 632 280 632 c 0
 304 632 329 628 349 621 c 0
 407 602 454 544 477 463 c 0
 491 413 495 377 495 309 c 0
 495 218 484 157 456 98 c 0
 419 21 362 -16 282 -16 c 0
 165 -16 94 68 72 232 c 0
 70 245 70 275 70 310 c 0
 70 357 71 373 75 398 c 0
 95 532 151 608 242 628 c 0
307 568 m 0
 298 571 290 572 282 572 c 0
 244 572 213 546 195 520 c 0
 163 475 149 412 149 316 c 0
 149 307 149 298 149 288 c 0
 150 224 155 189 168 150 c 0
 183 106 212 69 244 53 c 0
 259 46 260 45 282 45 c 0
 304 45 306 46 321 53 c 0
 353 69 382 106 397 150 c 0
 410 189 414 224 416 288 c 0
 416 299 416 309 416 319 c 0
 416 379 411 422 398 462 c 0
 380 517 347 556 307 568 c 0
211 783 m 2
 183 810 l 1
 211 810 238 810 266 810 c 1
 317 754 l 2
 345 723 371 695 375 690 c 2
 382 682 l 1
 360 682 339 682 317 682 c 1
 278 719 l 2
 257 739 227 768 211 783 c 2
EndSplineSet
EndChar

StartChar: Oacute
Encoding: 211 211 146
Width: 565
VWidth: 0
Flags: HW
LayerCount: 2
Back
Fore
SplineSet
242 628 m 0
 253 631 266 632 280 632 c 0
 304 632 329 628 349 621 c 0
 407 602 454 544 477 463 c 0
 491 413 495 377 495 309 c 0
 495 218 484 157 456 98 c 0
 419 21 362 -16 282 -16 c 0
 165 -16 94 68 72 232 c 0
 70 245 70 275 70 310 c 0
 70 357 71 373 75 398 c 0
 95 532 151 608 242 628 c 0
307 568 m 0
 298 571 290 572 282 572 c 0
 244 572 213 546 195 520 c 0
 163 475 149 412 149 316 c 0
 149 307 149 298 149 288 c 0
 150 224 155 189 168 150 c 0
 183 106 212 69 244 53 c 0
 259 46 260 45 282 45 c 0
 304 45 306 46 321 53 c 0
 353 69 382 106 397 150 c 0
 410 189 414 224 416 288 c 0
 416 299 416 309 416 319 c 0
 416 379 411 422 398 462 c 0
 380 517 347 556 307 568 c 0
264 771 m 2
 299 810 l 1
 327 810 355 810 383 810 c 1
 372 799 l 2
 366 793 336 764 305 735 c 2
 249 682 l 1
 227 682 205 682 183 682 c 1
 206 707 l 2
 219 721 245 750 264 771 c 2
EndSplineSet
EndChar

StartChar: Ocircumflex
Encoding: 212 212 147
Width: 565
VWidth: 0
Flags: HW
LayerCount: 2
Back
Fore
SplineSet
239 628 m 0
 249 630 266 631 282 631 c 0
 298 631 314 630 324 628 c 0
 442 604 490 478 496 329 c 0
 496 321 496 314 496 306 c 0
 496 170 455 59 387 14 c 0
 358 -6 327 -15 288 -15 c 0
 284 -15 280 -15 276 -15 c 0
 217 -13 177 5 142 47 c 0
 95 102 69 197 69 306 c 0
 69 314 69 321 69 329 c 0
 74 478 124 603 239 628 c 0
365 527 m 0
 347 550 327 569 287 571 c 0
 282 571 278 571 275 571 c 0
 261 571 255 569 243 563 c 0
 196 539 166 485 153 401 c 0
 150 383 148 345 148 308 c 0
 148 271 150 234 153 216 c 0
 161 167 173 130 190 104 c 0
 216 63 249 44 282 44 c 0
 333 44 383 91 404 174 c 0
 414 214 416 239 416 309 c 0
 416 363 415 381 412 401 c 0
 403 456 389 496 365 527 c 0
215 749 m 2
 259 810 l 1
 275 810 292 810 308 810 c 1
 352 748 l 2
 376 714 397 685 397 684 c 0
 397 683 384 682 368 682 c 2
 338 682 l 1
 311 715 l 2
 296 733 284 748 283 748 c 0
 282 748 269 733 254 715 c 2
 227 682 l 1
 197 682 l 2
 173 682 168 683 169 685 c 0
 170 687 191 715 215 749 c 2
EndSplineSet
EndChar

StartChar: Otilde
Encoding: 213 213 148
Width: 565
VWidth: 0
Flags: HW
LayerCount: 2
Back
Fore
SplineSet
256 631 m 0
 263 632 271 632 279 632 c 0
 295 632 313 631 327 628 c 0
 442 604 490 477 496 329 c 0
 496 321 496 314 496 306 c 0
 496 170 455 59 387 14 c 0
 358 -6 327 -15 288 -15 c 0
 284 -15 280 -15 276 -15 c 0
 217 -13 177 5 142 47 c 0
 95 102 69 197 69 306 c 0
 69 314 69 321 69 329 c 0
 75 484 128 615 256 631 c 0
321 564 m 0
 310 569 296 572 282 572 c 0
 268 572 255 569 244 564 c 0
 198 543 166 486 153 401 c 0
 150 381 149 363 149 309 c 0
 149 236 151 212 162 170 c 0
 183 91 230 44 282 44 c 0
 296 44 309 47 323 54 c 0
 340 62 367 88 378 108 c 0
 394 136 405 169 412 216 c 0
 415 234 416 271 416 308 c 0
 416 345 415 383 412 401 c 0
 399 486 367 543 321 564 c 0
213 781 m 0
 218 782 222 782 227 782 c 0
 242 782 257 778 275 767 c 0
 309 747 329 737 336 737 c 0
 350 737 359 748 361 770 c 1
 363 783 l 1
 379 783 395 783 411 783 c 1
 410 767 l 1
 406 725 392 702 365 689 c 0
 355 685 349 684 337 684 c 0
 317 684 303 689 271 709 c 0
 258 717 245 725 242 726 c 0
 238 727 235 728 232 728 c 0
 216 728 203 712 203 689 c 2
 203 682 l 1
 187 682 170 682 154 682 c 1
 155 690 l 1
 155 727 170 763 195 776 c 0
 199 778 208 780 213 781 c 0
EndSplineSet
EndChar

StartChar: Odieresis
Encoding: 214 214 149
Width: 565
VWidth: 0
Flags: HW
LayerCount: 2
Back
Fore
SplineSet
255 632 m 0
 258 633 263 633 269 633 c 0
 289 633 321 630 333 627 c 0
 420 603 473 525 491 393 c 0
 494 375 495 340 495 307 c 0
 495 277 494 249 492 234 c 0
 470 71 399 -14 284 -14 c 0
 276 -14 268 -14 259 -13 c 0
 156 -3 92 81 72 234 c 0
 70 248 69 278 69 308 c 0
 69 338 70 369 72 384 c 0
 90 523 147 608 235 628 c 0
 244 630 253 631 255 632 c 0
351 543 m 0
 332 561 311 573 283 573 c 0
 277 573 270 572 263 571 c 0
 244 567 230 559 214 543 c 0
 182 511 164 470 153 402 c 0
 150 384 148 347 148 310 c 0
 148 273 150 235 153 217 c 0
 162 157 178 118 204 86 c 0
 225 60 252 46 282 46 c 0
 312 46 340 60 361 86 c 0
 387 118 403 157 412 217 c 0
 415 235 416 273 416 310 c 0
 416 347 415 384 412 402 c 0
 401 470 383 511 351 543 c 0
323 749 m 0
 330 768 350 780 370 780 c 0
 383 780 395 775 405 764 c 0
 413 755 417 744 417 733 c 0
 417 708 396 685 367 685 c 0
 338 685 320 708 320 732 c 0
 320 738 321 744 323 749 c 0
186 779 m 0
 190 780 193 780 197 780 c 0
 224 780 244 758 244 733 c 0
 244 731 244 729 244 727 c 0
 242 701 221 684 198 684 c 0
 191 684 183 685 176 689 c 0
 157 698 148 715 148 732 c 0
 148 752 161 773 186 779 c 0
EndSplineSet
EndChar

StartChar: multiply
Encoding: 215 215 150
Width: 565
VWidth: 0
Flags: HW
LayerCount: 2
Back
Fore
SplineSet
97 372 m 2
 107 382 117 391 118 391 c 0
 119 391 157 354 201 310 c 2
 281 230 l 1
 335 283 389 337 442 391 c 1
 455 378 469 364 482 351 c 1
 429 297 375 243 322 189 c 1
 402 109 l 2
 446 65 481 29 481 28 c 0
 481 27 472 17 462 7 c 2
 444 -12 l 1
 390 41 336 95 282 149 c 1
 228 95 174 41 120 -13 c 1
 101 5 l 2
 90 15 82 24 82 25 c 0
 82 26 118 64 162 108 c 2
 243 189 l 1
 188 244 133 299 78 353 c 1
 97 372 l 2
EndSplineSet
EndChar

StartChar: Oslash
Encoding: 216 216 151
Width: 565
VWidth: 0
Flags: HW
LayerCount: 2
Back
Fore
SplineSet
408 589 m 1
 420 612 433 635 445 658 c 1
 462 658 480 658 497 658 c 1
 490 646 482 629 465 597 c 2
 441 552 l 1
 455 522 l 1
 480 473 488 435 494 350 c 0
 495 334 496 317 496 301 c 0
 496 272 494 243 490 217 c 0
 473 100 422 20 351 -4 c 0
 330 -11 301 -15 277 -15 c 0
 274 -15 272 -15 269 -15 c 0
 229 -13 205 -4 175 20 c 0
 169 25 163 29 162 29 c 0
 161 29 151 14 141 -5 c 2
 122 -40 l 1
 104 -40 87 -40 69 -40 c 1
 97 13 l 2
 113 42 126 67 126 68 c 0
 126 69 121 79 115 90 c 0
 85 144 69 232 69 318 c 0
 69 381 78 443 95 489 c 0
 122 562 170 611 231 627 c 0
 246 631 262 633 279 633 c 0
 322 633 367 620 397 598 c 1
 408 589 l 1
361 542 m 2
 343 559 317 574 286 574 c 0
 278 574 271 573 263 571 c 0
 229 564 200 533 184 502 c 0
 158 451 148 397 148 303 c 0
 148 227 150 197 162 157 c 0
 164 150 167 146 168 147 c 0
 173 152 372 523 375 528 c 1
 361 542 l 2
413 418 m 0
 412 426 408 444 405 455 c 2
 400 476 l 1
 395 466 l 1
 381 442 194 93 194 91 c 0
 194 88 216 68 227 61 c 0
 243 51 261 46 280 46 c 0
 303 46 326 53 343 66 c 0
 360 79 371 93 383 118 c 0
 400 152 410 194 415 249 c 0
 416 261 417 286 417 313 c 0
 417 355 415 403 413 418 c 0
EndSplineSet
EndChar

StartChar: Ugrave
Encoding: 217 217 152
Width: 565
VWidth: 0
Flags: HW
LayerCount: 2
Back
Fore
SplineSet
88 412 m 2
 88 616 l 1
 115 616 141 616 168 616 c 1
 168 397 l 2
 168 179 169 150 176 121 c 0
 182 94 202 71 227 58 c 0
 247 48 259 46 286 46 c 0
 322 46 344 55 366 78 c 0
 387 100 395 126 399 182 c 0
 400 199 402 298 402 413 c 2
 402 616 l 1
 426 616 451 616 475 616 c 1
 474 392 l 2
 473 176 472 168 468 145 c 0
 462 116 458 100 447 79 c 0
 432 50 410 28 384 11 c 0
 358 -5 331 -13 291 -15 c 0
 286 -15 282 -15 278 -15 c 0
 193 -15 128 21 105 85 c 0
 90 126 88 165 88 412 c 2
209 785 m 2
 184 810 l 1
 212 810 239 810 267 810 c 1
 316 755 l 2
 343 725 369 697 373 692 c 2
 380 684 l 1
 358 684 336 684 314 684 c 1
 275 722 l 2
 253 743 223 771 209 785 c 2
EndSplineSet
EndChar

StartChar: Uacute
Encoding: 218 218 153
Width: 565
VWidth: 0
Flags: HW
LayerCount: 2
Back
Fore
SplineSet
88 412 m 2
 88 616 l 1
 168 616 l 1
 168 397 l 2
 168 179 169 150 176 121 c 0
 182 94 202 71 227 58 c 0
 247 48 259 46 286 46 c 0
 322 46 344 55 366 78 c 0
 387 100 395 126 399 182 c 0
 400 199 402 298 402 413 c 2
 402 616 l 1
 475 616 l 1
 474 392 l 2
 473 176 472 168 468 145 c 0
 462 116 458 100 447 79 c 0
 432 50 410 28 384 11 c 0
 358 -5 331 -13 291 -15 c 1
 278 -15 l 2
 193 -15 128 21 105 85 c 0
 90 126 88 165 88 412 c 2
248 756 m 2
 296 810 l 1
 338 810 l 2
 362 810 378 809 378 808 c 0
 377 807 347 778 312 745 c 2
 248 684 l 1
 183 684 l 1
 191 694 l 2
 196 699 221 727 248 756 c 2
EndSplineSet
EndChar

StartChar: Ucircumflex
Encoding: 219 219 154
Width: 565
VWidth: 0
Flags: HW
LayerCount: 2
Back
Fore
SplineSet
88 412 m 2
 88 616 l 1
 115 616 141 616 168 616 c 1
 168 397 l 2
 168 179 169 150 176 121 c 0
 182 94 202 71 227 58 c 0
 247 48 259 46 286 46 c 0
 322 46 344 55 366 78 c 0
 387 100 395 126 399 182 c 0
 400 199 402 298 402 413 c 2
 402 616 l 1
 426 616 451 616 475 616 c 1
 474 392 l 2
 473 176 472 168 468 145 c 0
 462 116 458 100 447 79 c 0
 432 50 410 28 384 11 c 0
 358 -5 331 -13 291 -15 c 0
 286 -15 282 -15 278 -15 c 0
 193 -15 128 21 105 85 c 0
 90 126 88 165 88 412 c 2
214 750 m 2
 256 810 l 1
 273 810 290 810 307 810 c 1
 347 753 l 2
 373 716 389 695 395 684 c 1
 375 684 356 684 336 684 c 1
 310 716 l 2
 296 733 283 748 282 748 c 0
 281 748 267 733 253 716 c 2
 227 684 l 1
 197 684 l 2
 173 684 168 685 169 687 c 0
 170 689 191 717 214 750 c 2
EndSplineSet
EndChar

StartChar: Udieresis
Encoding: 220 220 155
Width: 565
VWidth: 0
Flags: HW
LayerCount: 2
Back
Fore
SplineSet
88 412 m 2
 88 616 l 1
 115 616 141 616 168 616 c 1
 168 383 l 1
 169 169 169 149 173 132 c 0
 184 77 221 46 284 46 c 0
 324 46 347 57 366 78 c 0
 387 100 395 126 399 182 c 0
 400 199 402 298 402 413 c 2
 402 616 l 1
 426 616 451 616 475 616 c 1
 474 392 l 2
 473 179 472 168 468 146 c 0
 452 65 407 6 330 -10 c 0
 318 -12 298 -14 278 -14 c 0
 258 -14 238 -12 226 -10 c 0
 165 3 123 37 105 87 c 0
 91 127 88 167 88 412 c 2
358 779 m 0
 361 780 365 780 368 780 c 0
 392 780 412 762 414 737 c 0
 414 735 414 733 414 731 c 0
 414 718 411 709 403 700 c 0
 394 689 381 684 368 684 c 0
 355 684 341 690 331 701 c 0
 323 710 319 721 319 732 c 0
 319 754 334 774 358 779 c 0
185 779 m 0
 188 780 191 780 194 780 c 0
 219 780 240 762 242 738 c 0
 242 735 242 733 242 731 c 0
 242 718 240 711 232 702 c 0
 222 690 208 684 194 684 c 0
 181 684 169 689 160 700 c 0
 152 709 148 720 148 731 c 0
 148 753 162 774 185 779 c 0
EndSplineSet
EndChar

StartChar: Yacute
Encoding: 221 221 156
Width: 565
VWidth: 0
Flags: HW
LayerCount: 2
Back
Fore
SplineSet
56 575 m 0
 56 577 65 578 93 578 c 2
 132 578 l 1
 206 437 l 2
 247 359 281 296 281 296 c 1
 281 296 316 359 357 437 c 2
 431 578 l 1
 470 578 l 2
 491 578 508 578 508 577 c 0
 508 576 465 498 413 402 c 2
 318 228 l 1
 318 2 l 1
 245 2 l 1
 245 76 245 150 245 224 c 1
 151 398 l 2
 99 494 57 573 56 575 c 0
305 756 m 2
 310 766 l 1
 352 766 l 2
 393 766 395 766 395 762 c 0
 395 753 335 684 301 654 c 1
 282 638 l 1
 258 638 l 2
 242 638 234 638 234 643 c 0
 234 647 240 654 250 668 c 0
 267 692 297 741 305 756 c 2
EndSplineSet
EndChar

StartChar: Thorn
Encoding: 222 222 157
Width: 565
VWidth: 0
Flags: HW
LayerCount: 2
Back
Fore
SplineSet
117 2 m 1
 117 194 117 386 117 578 c 1
 141 578 166 578 190 578 c 1
 190 545 190 512 190 479 c 1
 243 479 l 2
 374 479 452 457 479 363 c 0
 483 351 484 331 484 312 c 0
 484 293 483 274 479 260 c 0
 462 195 415 153 350 138 c 0
 320 131 305 130 248 129 c 2
 190 127 l 1
 190 85 190 44 190 2 c 1
 166 2 141 2 117 2 c 1
411 307 m 0
 411 370 380 399 327 412 c 0
 314 415 298 416 250 417 c 2
 190 418 l 1
 190 341 190 264 190 187 c 1
 239 188 l 1
 346 192 411 209 411 307 c 0
EndSplineSet
EndChar

StartChar: germandbls
Encoding: 223 223 158
Width: 565
VWidth: 0
Flags: HW
LayerCount: 2
Back
Fore
SplineSet
243 649 m 0
 252 650 271 650 286 650 c 0
 333 648 362 637 386 612 c 0
 406 591 416 566 416 542 c 0
 416 540 416 537 416 535 c 0
 413 504 398 480 354 441 c 0
 306 398 288 379 285 369 c 0
 284 365 283 362 283 358 c 0
 283 350 286 343 292 336 c 0
 300 327 332 303 373 275 c 0
 425 239 458 208 473 181 c 0
 482 164 487 142 487 121 c 0
 487 111 486 102 484 93 c 0
 471 43 427 6 374 -5 c 0
 361 -8 354 -9 339 -9 c 0
 331 -9 322 -8 309 -8 c 0
 265 -7 258 -5 230 2 c 1
 230 73 l 1
 248 67 l 1
 276 57 304 52 328 52 c 0
 356 52 379 58 394 71 c 0
 408 83 414 98 414 114 c 0
 414 122 413 129 410 137 c 0
 400 164 379 184 311 230 c 0
 265 261 208 295 208 349 c 0
 208 357 209 365 212 374 c 0
 218 393 232 410 264 441 c 0
 332 506 338 515 338 542 c 0
 338 562 326 575 299 585 c 0
 288 589 277 591 266 591 c 0
 251 591 235 587 220 580 c 0
 195 568 178 545 169 515 c 0
 164 498 165 497 164 250 c 2
 163 2 l 1
 139 2 114 2 90 2 c 1
 91 249 l 2
 92 490 92 496 96 515 c 0
 114 590 164 639 243 649 c 0
EndSplineSet
EndChar

StartChar: agrave
Encoding: 224 224 159
Width: 565
VWidth: 0
Flags: HW
LayerCount: 2
Back
Fore
SplineSet
278 448 m 0
 288 449 299 450 309 450 c 0
 345 450 380 444 423 444 c 2
 465 444 l 1
 466 254 l 2
 467 49 480 52 480 5 c 0
 480 2 475 2 444 2 c 2
 407 2 l 1
 404 13 l 2
 402 23 397 57 393 88 c 1
 392 102 l 1
 380 85 l 2
 349 41 306 8 252 -6 c 0
 243 -8 233 -9 224 -9 c 0
 189 -9 156 7 128 36 c 0
 97 70 82 117 82 181 c 0
 82 187 82 193 82 199 c 0
 84 247 94 284 112 321 c 0
 149 396 206 439 278 448 c 0
393 377 m 1
 380 383 344 388 322 388 c 0
 295 388 271 383 252 373 c 0
 195 342 161 286 161 200 c 0
 161 179 163 156 165 144 c 0
 174 99 203 64 235 60 c 1
 242 60 l 2
 284 60 344 108 385 176 c 2
 393 189 l 1
 393 377 l 1
218 617 m 2
 194 640 l 1
 222 640 250 640 278 640 c 1
 331 581 l 2
 365 544 385 521 393 512 c 1
 328 512 l 1
 285 553 l 2
 261 576 231 604 218 617 c 2
EndSplineSet
EndChar

StartChar: aacute
Encoding: 225 225 160
Width: 565
VWidth: 0
Flags: HW
LayerCount: 2
Back
Fore
SplineSet
278 448 m 0
 288 449 299 450 309 450 c 0
 345 450 380 444 423 444 c 2
 465 444 l 1
 466 254 l 2
 467 49 480 52 480 5 c 0
 480 2 475 2 444 2 c 2
 407 2 l 1
 404 13 l 2
 402 23 397 57 393 88 c 1
 392 102 l 1
 380 85 l 2
 349 41 306 8 252 -6 c 0
 243 -8 233 -9 224 -9 c 0
 189 -9 156 7 128 36 c 0
 97 70 82 117 82 181 c 0
 82 187 82 193 82 199 c 0
 84 247 94 284 112 321 c 0
 149 396 206 439 278 448 c 0
393 377 m 1
 380 383 344 388 322 388 c 0
 295 388 271 383 252 373 c 0
 195 342 161 286 161 200 c 0
 161 179 163 156 165 144 c 0
 174 99 203 64 235 60 c 1
 242 60 l 2
 284 60 344 108 385 176 c 2
 393 189 l 1
 393 377 l 1
301 589 m 2
 348 640 l 1
 431 640 l 1
 422 630 l 2
 417 625 385 596 354 566 c 2
 297 512 l 1
 275 512 253 512 231 512 c 1
 243 525 l 2
 249 532 276 561 301 589 c 2
EndSplineSet
EndChar

StartChar: acircumflex
Encoding: 226 226 161
Width: 565
VWidth: 0
Flags: HW
LayerCount: 2
Back
Fore
SplineSet
278 448 m 0
 288 449 299 450 309 450 c 0
 345 450 380 444 423 444 c 2
 465 444 l 1
 466 254 l 2
 467 49 480 52 480 5 c 0
 480 2 475 2 444 2 c 2
 407 2 l 1
 404 13 l 2
 402 23 397 57 393 88 c 1
 392 102 l 1
 380 85 l 2
 349 41 306 8 252 -6 c 0
 243 -8 233 -9 224 -9 c 0
 189 -9 156 7 128 36 c 0
 97 70 82 117 82 181 c 0
 82 187 82 193 82 199 c 0
 84 247 94 284 112 321 c 0
 149 396 206 439 278 448 c 0
393 377 m 1
 380 383 344 388 322 388 c 0
 295 388 271 383 252 373 c 0
 195 342 161 286 161 200 c 0
 161 179 163 156 165 144 c 0
 174 99 203 64 235 60 c 1
 242 60 l 2
 284 60 344 108 385 176 c 2
 393 189 l 1
 393 377 l 1
258 589 m 2
 294 640 l 1
 319 640 l 1
 343 639 l 1
 386 579 l 2
 410 546 430 518 431 516 c 0
 433 512 431 512 403 512 c 2
 373 512 l 1
 348 542 l 2
 334 559 322 574 321 576 c 1
 320 576 l 2
 317 576 311 568 291 545 c 2
 264 512 l 1
 203 512 l 1
 212 525 l 2
 217 532 238 561 258 589 c 2
EndSplineSet
EndChar

StartChar: atilde
Encoding: 227 227 162
Width: 565
VWidth: 0
Flags: HW
LayerCount: 2
Back
Fore
SplineSet
278 448 m 0
 288 449 299 450 309 450 c 0
 345 450 380 444 423 444 c 2
 465 444 l 1
 466 254 l 2
 467 49 480 52 480 5 c 0
 480 2 475 2 444 2 c 2
 407 2 l 1
 404 13 l 2
 402 23 397 57 393 88 c 1
 392 102 l 1
 380 85 l 2
 349 41 306 8 252 -6 c 0
 243 -8 233 -9 224 -9 c 0
 189 -9 156 7 128 36 c 0
 97 70 82 117 82 181 c 0
 82 187 82 193 82 199 c 0
 84 247 94 284 112 321 c 0
 149 396 206 439 278 448 c 0
393 377 m 1
 380 383 344 388 322 388 c 0
 295 388 271 383 252 373 c 0
 195 342 161 286 161 200 c 0
 161 179 163 156 165 144 c 0
 174 99 203 64 235 60 c 1
 242 60 l 2
 284 60 344 108 385 176 c 2
 393 189 l 1
 393 377 l 1
356 566 m 0
 372 566 380 587 380 604 c 2
 380 611 l 1
 396 611 412 611 428 611 c 1
 428 604 l 2
 428 555 401 513 357 513 c 0
 355 513 353 513 351 513 c 0
 332 514 316 520 288 539 c 0
 268 552 257 558 248 558 c 0
 231 558 223 540 221 524 c 2
 220 512 l 1
 171 512 l 1
 173 528 l 1
 177 573 192 596 223 608 c 0
 231 611 238 612 245 612 c 0
 269 612 288 599 307 587 c 0
 332 573 346 566 356 566 c 0
EndSplineSet
EndChar

StartChar: adieresis
Encoding: 228 228 163
Width: 565
VWidth: 0
Flags: HW
LayerCount: 2
Back
Fore
SplineSet
278 448 m 0
 288 449 299 450 309 450 c 0
 345 450 380 444 423 444 c 2
 465 444 l 1
 466 254 l 2
 467 49 480 52 480 5 c 0
 480 2 475 2 444 2 c 2
 407 2 l 1
 404 13 l 2
 402 23 397 57 393 88 c 1
 392 102 l 1
 380 85 l 2
 349 41 306 8 252 -6 c 0
 243 -8 233 -9 224 -9 c 0
 189 -9 156 7 128 36 c 0
 97 70 82 117 82 181 c 0
 82 187 82 193 82 199 c 0
 84 247 94 284 112 321 c 0
 149 396 206 439 278 448 c 0
393 377 m 1
 380 383 344 388 322 388 c 0
 295 388 271 383 252 373 c 0
 195 342 161 286 161 200 c 0
 161 179 163 156 165 144 c 0
 174 99 203 64 235 60 c 1
 242 60 l 2
 284 60 344 108 385 176 c 2
 393 189 l 1
 393 377 l 1
439 559 m 0
 439 529 414 512 391 512 c 0
 378 512 366 517 356 528 c 0
 346 539 344 546 344 561 c 0
 344 590 369 607 393 607 c 0
 417 607 439 588 439 559 c 0
173 559 m 0
 173 584 190 608 219 608 c 0
 245 608 268 589 268 562 c 0
 268 533 245 512 218 512 c 0
 193 512 173 533 173 559 c 0
EndSplineSet
EndChar

StartChar: aring
Encoding: 229 229 164
Width: 565
VWidth: 0
Flags: HW
LayerCount: 2
Back
Fore
SplineSet
278 448 m 0
 288 449 299 450 309 450 c 0
 345 450 380 444 423 444 c 2
 465 444 l 1
 466 254 l 2
 467 49 480 52 480 5 c 0
 480 2 475 2 444 2 c 2
 407 2 l 1
 404 13 l 2
 402 23 397 57 393 88 c 1
 392 102 l 1
 380 85 l 2
 349 41 306 8 252 -6 c 0
 243 -8 233 -9 224 -9 c 0
 189 -9 156 7 128 36 c 0
 97 70 82 117 82 181 c 0
 82 187 82 193 82 199 c 0
 84 247 94 284 112 321 c 0
 149 396 206 439 278 448 c 0
393 377 m 1
 380 383 344 388 322 388 c 0
 295 388 271 383 252 373 c 0
 195 342 161 286 161 200 c 0
 161 179 163 156 165 144 c 0
 174 99 203 64 235 60 c 1
 242 60 l 2
 284 60 344 108 385 176 c 2
 393 189 l 1
 393 377 l 1
227 589 m 0
 227 625 263 658 300 658 c 0
 331 658 355 637 366 615 c 0
 370 606 372 600 372 586 c 0
 372 541 335 513 298 513 c 0
 274 513 250 525 237 552 c 0
 231 564 227 577 227 589 c 0
337 585 m 0
 337 601 321 622 300 622 c 0
 280 622 263 605 263 585 c 0
 263 566 283 547 302 547 c 0
 320 547 337 566 337 585 c 0
EndSplineSet
EndChar

StartChar: ae
Encoding: 230 230 165
Width: 565
VWidth: 0
Flags: HW
LayerCount: 2
Back
Fore
SplineSet
145 422 m 0
 166 442 186 455 223 455 c 0
 251 455 282 447 299 436 c 0
 309 430 313 428 316 430 c 0
 344 450 353 454 392 454 c 0
 409 453 414 452 426 446 c 0
 442 438 460 423 469 408 c 0
 488 378 499 321 499 247 c 2
 499 214 l 1
 339 214 l 1
 341 170 l 2
 343 121 344 111 353 92 c 0
 367 64 388 52 414 52 c 0
 435 52 460 60 485 74 c 2
 499 82 l 1
 499 60 499 38 499 16 c 1
 481 9 l 2
 451 -2 423 -8 398 -8 c 0
 342 -8 300 20 280 76 c 0
 277 84 275 91 274 91 c 0
 273 91 267 81 262 70 c 0
 245 35 224 10 201 -1 c 0
 190 -6 186 -8 172 -8 c 0
 158 -8 154 -6 145 -1 c 0
 90 31 66 102 66 194 c 0
 66 295 93 374 145 422 c 0
254 389 m 2
 246 393 237 395 229 395 c 0
 221 395 214 393 206 389 c 0
 183 378 169 356 156 313 c 0
 144 273 138 230 138 191 c 0
 138 138 149 94 169 78 c 0
 174 74 179 73 184 73 c 0
 206 73 232 104 256 160 c 2
 267 186 l 1
 267 383 l 1
 254 389 l 2
399 391 m 0
 394 394 389 395 384 395 c 0
 373 395 362 388 355 373 c 0
 346 355 341 333 341 297 c 2
 341 266 l 1
 384 265 l 1
 427 265 l 1
 425 305 l 2
 423 361 418 379 399 391 c 0
EndSplineSet
EndChar

StartChar: ccedilla
Encoding: 231 231 166
Width: 565
VWidth: 0
Flags: HW
LayerCount: 2
Back
Fore
SplineSet
334 -110 m 0
 334 -88 285 -79 263 -76 c 1
 263 -73 275 -50 297 -11 c 0
 297 -10 291 -8 282 -6 c 0
 210 10 154 54 126 115 c 0
 112 146 106 175 106 217 c 0
 106 292 128 348 176 393 c 0
 220 435 273 453 335 453 c 0
 373 453 414 446 458 433 c 2
 471 429 l 1
 472 394 l 2
 472 383 473 375 473 370 c 0
 473 362 472 360 471 360 c 2
 471 360 470 361 469 361 c 0
 414 383 373 394 336 394 c 0
 245 394 184 326 184 223 c 0
 184 198 189 176 200 150 c 0
 228 84 277 57 341 57 c 0
 373 57 410 64 449 76 c 2
 472 83 l 1
 472 48 l 2
 472 29 471 13 471 13 c 1
 440 5 390 -8 356 -10 c 2
 339 -11 l 1
 328 -30 l 2
 322 -40 318 -48 318 -49 c 0
 318 -50 326 -53 336 -56 c 0
 366 -65 384 -79 384 -112 c 0
 384 -151 351 -169 310 -169 c 0
 296 -169 281 -167 268 -164 c 2
 253 -160 l 1
 252 -143 l 1
 252 -126 l 1
 265 -131 281 -136 296 -136 c 0
 311 -136 334 -126 334 -110 c 0
EndSplineSet
EndChar

StartChar: egrave
Encoding: 232 232 167
Width: 565
VWidth: 0
Flags: HW
LayerCount: 2
Back
Fore
SplineSet
93 216 m 0
 93 328 145 403 217 436 c 0
 239 446 270 454 302 454 c 0
 351 454 382 439 412 412 c 0
 452 375 470 325 474 238 c 2
 475 210 l 1
 373 210 271 210 169 210 c 1
 171 194 l 1
 174 153 190 115 216 88 c 0
 243 60 270 51 314 51 c 0
 355 51 392 60 441 84 c 2
 468 97 l 1
 467 63 l 1
 467 30 l 1
 438 18 l 1
 391 0 347 -10 305 -10 c 0
 250 -10 201 7 162 45 c 0
 127 80 105 126 95 182 c 0
 94 191 93 203 93 216 c 0
394 286 m 2
 389 348 361 393 297 393 c 0
 281 393 266 390 253 384 c 0
 219 369 194 335 180 288 c 0
 177 278 174 268 174 267 c 0
 174 266 222 265 285 265 c 2
 396 265 l 1
 394 286 l 2
225 613 m 2
 200 638 l 1
 242 637 l 1
 284 637 l 1
 322 595 360 553 397 511 c 1
 365 510 l 1
 333 510 l 1
 292 549 l 2
 269 571 239 599 225 613 c 2
EndSplineSet
EndChar

StartChar: eacute
Encoding: 233 233 168
Width: 565
VWidth: 0
Flags: HW
LayerCount: 2
Back
Fore
SplineSet
93 216 m 0
 93 328 145 403 217 436 c 0
 239 446 270 454 302 454 c 0
 351 454 382 439 412 412 c 0
 452 375 470 325 474 238 c 2
 475 210 l 1
 373 210 271 210 169 210 c 1
 171 194 l 1
 174 153 190 115 216 88 c 0
 243 60 270 51 314 51 c 0
 355 51 392 60 441 84 c 2
 468 97 l 1
 467 63 l 1
 467 30 l 1
 438 18 l 1
 391 0 347 -10 305 -10 c 0
 250 -10 201 7 162 45 c 0
 127 80 105 126 95 182 c 0
 94 191 93 203 93 216 c 0
394 286 m 2
 389 348 361 393 297 393 c 0
 281 393 266 390 253 384 c 0
 219 369 194 335 180 288 c 0
 177 278 174 268 174 267 c 0
 174 266 222 265 285 265 c 2
 396 265 l 1
 394 286 l 2
306 609 m 2
 332 638 l 1
 360 638 388 638 416 638 c 1
 408 630 l 2
 404 626 374 597 341 566 c 2
 282 510 l 1
 260 510 238 510 216 510 c 1
 248 545 l 2
 265 564 291 593 306 609 c 2
EndSplineSet
EndChar

StartChar: ecircumflex
Encoding: 234 234 169
Width: 565
VWidth: 0
Flags: HW
LayerCount: 2
Back
Fore
SplineSet
93 216 m 0
 93 328 145 403 217 436 c 0
 239 446 270 454 302 454 c 0
 351 454 382 439 412 412 c 0
 452 375 470 325 474 238 c 2
 475 210 l 1
 373 210 271 210 169 210 c 1
 171 194 l 1
 174 153 190 115 216 88 c 0
 243 60 270 51 314 51 c 0
 355 51 392 60 441 84 c 2
 468 97 l 1
 467 63 l 1
 467 30 l 1
 438 18 l 1
 391 0 347 -10 305 -10 c 0
 250 -10 201 7 162 45 c 0
 127 80 105 126 95 182 c 0
 94 191 93 203 93 216 c 0
394 286 m 2
 389 348 361 393 297 393 c 0
 281 393 266 390 253 384 c 0
 219 369 194 335 180 288 c 0
 177 278 174 268 174 267 c 0
 174 266 222 265 285 265 c 2
 396 265 l 1
 394 286 l 2
271 634 m 0
 274 637 278 638 299 638 c 2
 323 638 l 1
 367 576 l 2
 391 542 412 513 412 512 c 0
 412 511 399 510 383 510 c 2
 354 510 l 1
 327 542 l 2
 312 560 299 575 298 575 c 0
 297 575 284 561 269 543 c 2
 242 510 l 1
 212 510 l 2
 189 510 184 511 185 513 c 0
 188 518 268 630 271 634 c 0
EndSplineSet
EndChar

StartChar: edieresis
Encoding: 235 235 170
Width: 565
VWidth: 0
Flags: HW
LayerCount: 2
Back
Fore
SplineSet
93 216 m 0
 93 328 145 403 217 436 c 0
 239 446 270 454 302 454 c 0
 351 454 382 439 412 412 c 0
 452 375 470 325 474 238 c 2
 475 210 l 1
 373 210 271 210 169 210 c 1
 171 194 l 1
 174 153 190 115 216 88 c 0
 243 60 270 51 314 51 c 0
 355 51 392 60 441 84 c 2
 468 97 l 1
 467 63 l 1
 467 30 l 1
 438 18 l 1
 391 0 347 -10 305 -10 c 0
 250 -10 201 7 162 45 c 0
 127 80 105 126 95 182 c 0
 94 191 93 203 93 216 c 0
394 286 m 2
 389 348 361 393 297 393 c 0
 281 393 266 390 253 384 c 0
 219 369 194 335 180 288 c 0
 177 278 174 268 174 267 c 0
 174 266 222 265 285 265 c 2
 396 265 l 1
 394 286 l 2
341 557 m 0
 341 580 359 607 389 607 c 0
 416 607 436 586 436 559 c 2
 436 554 l 1
 434 528 412 511 388 511 c 0
 360 511 341 533 341 557 c 0
217 511 m 0
 194 511 169 531 169 558 c 0
 169 583 190 607 217 607 c 0
 245 607 264 587 264 558 c 0
 264 529 241 511 217 511 c 0
EndSplineSet
EndChar

StartChar: igrave
Encoding: 236 236 171
Width: 565
VWidth: 0
Flags: HW
LayerCount: 2
Back
Fore
SplineSet
104 384 m 1
 104 404 104 424 104 444 c 1
 298 444 l 1
 298 253 l 1
 299 63 l 1
 360 62 l 1
 422 62 l 1
 422 42 422 22 422 2 c 1
 225 2 l 1
 225 384 l 1
 104 384 l 1
163 639 m 1
 163 639 182 640 205 640 c 2
 246 640 l 1
 302 578 l 2
 333 544 359 515 359 514 c 0
 359 513 346 512 328 512 c 2
 296 512 l 1
 230 575 l 2
 194 610 163 639 163 639 c 1
EndSplineSet
EndChar

StartChar: iacute
Encoding: 237 237 172
Width: 565
VWidth: 0
Flags: HW
LayerCount: 2
Back
Fore
SplineSet
104 384 m 1
 104 404 104 424 104 444 c 1
 298 444 l 1
 298 253 l 1
 299 63 l 1
 360 62 l 1
 422 62 l 1
 422 42 422 22 422 2 c 1
 225 2 l 1
 225 384 l 1
 104 384 l 1
163 513 m 1
 201 556 239 598 278 640 c 1
 319 640 l 2
 342 640 359 639 359 638 c 0
 358 637 329 608 293 574 c 2
 228 512 l 1
 195 512 l 1
 163 513 l 1
EndSplineSet
EndChar

StartChar: icircumflex
Encoding: 238 238 173
Width: 565
VWidth: 0
Flags: HW
LayerCount: 2
Back
Fore
SplineSet
104 384 m 1
 104 404 104 424 104 444 c 1
 298 444 l 1
 298 253 l 1
 299 63 l 1
 360 62 l 1
 422 62 l 1
 422 42 422 22 422 2 c 1
 225 2 l 1
 225 384 l 1
 104 384 l 1
195 579 m 2
 239 640 l 1
 286 640 l 1
 330 579 l 2
 354 545 375 517 376 515 c 0
 378 513 371 512 347 512 c 2
 317 512 l 1
 299 534 281 556 262 578 c 1
 244 556 226 534 207 512 c 1
 177 512 l 2
 154 512 148 513 149 515 c 0
 150 517 171 545 195 579 c 2
EndSplineSet
EndChar

StartChar: idieresis
Encoding: 239 239 174
Width: 565
VWidth: 0
Flags: HW
LayerCount: 2
Back
Fore
SplineSet
104 384 m 1
 104 404 104 424 104 444 c 1
 298 444 l 1
 298 253 l 1
 299 63 l 1
 360 62 l 1
 422 62 l 1
 422 42 422 22 422 2 c 1
 225 2 l 1
 225 384 l 1
 104 384 l 1
300 557 m 0
 300 585 320 608 348 608 c 0
 375 608 396 587 396 559 c 0
 396 535 377 512 348 512 c 0
 323 512 300 532 300 557 c 0
175 608 m 0
 200 608 225 587 225 560 c 0
 225 545 218 530 204 520 c 0
 194 513 191 513 176 513 c 0
 161 513 159 514 150 520 c 0
 139 528 128 546 128 558 c 0
 128 583 148 608 175 608 c 0
EndSplineSet
EndChar

StartChar: eth
Encoding: 240 240 175
Width: 565
VWidth: 0
Flags: HW
LayerCount: 2
Back
Fore
SplineSet
184 573 m 1
 193 589 203 604 212 620 c 1
 240 606 l 2
 263 594 280 584 311 564 c 1
 312 564 l 2
 323 564 401 614 408 614 c 1
 413 608 437 574 437 573 c 0
 428 567 383 542 372 536 c 2
 357 527 l 1
 371 512 l 2
 398 484 421 452 440 414 c 0
 470 354 482 301 482 228 c 0
 482 103 439 30 342 2 c 0
 328 -2 300 -4 276 -4 c 0
 263 -4 250 -3 242 -2 c 0
 147 15 84 79 84 191 c 0
 84 257 101 301 141 338 c 0
 173 367 217 383 270 383 c 0
 322 383 362 372 387 349 c 0
 394 343 401 336 401 339 c 0
 401 345 390 374 379 395 c 0
 366 420 339 456 317 478 c 2
 301 494 l 1
 250 465 l 2
 222 449 198 435 197 435 c 0
 196 435 189 444 181 456 c 2
 166 478 l 1
 211 503 l 2
 236 517 256 529 256 530 c 0
 256 531 217 554 195 566 c 1
 184 573 l 1
411 200 m 0
 411 284 364 327 283 327 c 0
 196 327 155 280 155 192 c 0
 155 98 201 52 286 52 c 0
 373 52 411 112 411 200 c 0
EndSplineSet
EndChar

StartChar: ntilde
Encoding: 241 241 176
Width: 565
VWidth: 0
Flags: HW
LayerCount: 2
Back
Fore
SplineSet
305 450 m 0
 314 453 327 454 339 454 c 0
 355 454 371 452 382 448 c 0
 411 438 438 416 451 390 c 0
 466 360 468 328 468 147 c 2
 468 2 l 1
 395 2 l 1
 395 155 l 2
 395 241 394 315 393 324 c 0
 389 360 364 388 328 388 c 0
 322 388 315 387 308 385 c 0
 265 374 216 331 182 274 c 2
 174 261 l 1
 174 2 l 1
 150 2 126 2 102 2 c 1
 102 444 l 1
 126 444 150 444 174 444 c 1
 174 412 175 380 175 348 c 1
 185 362 l 2
 215 405 260 437 305 450 c 0
161 526 m 2
 161 577 189 611 231 611 c 0
 250 611 270 602 304 582 c 0
 322 571 334 566 343 566 c 0
 358 566 365 579 366 597 c 2
 367 611 l 1
 416 611 l 1
 411 569 406 548 390 532 c 0
 375 516 366 513 342 513 c 0
 318 513 309 516 277 537 c 0
 252 554 246 557 236 557 c 0
 217 557 210 538 207 512 c 1
 161 512 l 1
 161 526 l 2
EndSplineSet
EndChar

StartChar: ograve
Encoding: 242 242 177
Width: 565
VWidth: 0
Flags: HW
LayerCount: 2
Back
Fore
SplineSet
241 452 m 0
 249 454 265 454 281 454 c 0
 327 454 357 448 386 430 c 0
 435 400 471 348 485 283 c 0
 488 270 489 244 489 219 c 0
 489 199 488 180 486 169 c 0
 470 91 423 28 359 5 c 0
 335 -4 308 -8 282 -8 c 0
 166 -8 99 69 79 169 c 0
 77 179 76 199 76 219 c 0
 76 243 77 269 80 282 c 0
 98 369 152 436 241 452 c 0
281 51 m 0
 369 51 411 124 411 226 c 0
 411 286 396 330 365 361 c 0
 341 385 324 395 282 395 c 0
 270 395 258 394 251 392 c 0
 188 375 154 312 154 224 c 0
 154 200 156 176 161 157 c 0
 177 92 225 51 281 51 c 0
253 573 m 2
 217 608 187 635 184 638 c 0
 184 640 193 640 224 640 c 2
 266 640 l 1
 316 585 l 2
 343 555 369 526 374 521 c 2
 382 512 l 1
 317 512 l 1
 253 573 l 2
EndSplineSet
EndChar

StartChar: oacute
Encoding: 243 243 178
Width: 565
VWidth: 0
Flags: HW
LayerCount: 2
Back
Fore
SplineSet
241 452 m 0
 249 454 265 454 281 454 c 0
 327 454 357 448 386 430 c 0
 435 400 471 348 485 283 c 0
 488 270 489 244 489 219 c 0
 489 199 488 180 486 169 c 0
 470 91 423 28 359 5 c 0
 335 -4 308 -8 282 -8 c 0
 166 -8 99 69 79 169 c 0
 77 179 76 199 76 219 c 0
 76 243 77 269 80 282 c 0
 98 369 152 436 241 452 c 0
281 51 m 0
 369 51 411 124 411 226 c 0
 411 286 396 330 365 361 c 0
 341 385 324 395 282 395 c 0
 270 395 258 394 251 392 c 0
 188 375 154 312 154 224 c 0
 154 200 156 176 161 157 c 0
 177 92 225 51 281 51 c 0
252 588 m 2
 299 640 l 1
 327 640 355 640 383 640 c 1
 375 632 l 2
 371 628 341 599 308 568 c 2
 248 512 l 1
 183 512 l 1
 193 524 l 2
 199 530 226 559 252 588 c 2
EndSplineSet
EndChar

StartChar: ocircumflex
Encoding: 244 244 179
Width: 565
VWidth: 0
Flags: HW
LayerCount: 2
Back
Fore
SplineSet
282 -11 m 0
 156 -11 81 89 76 211 c 1
 76 225 l 2
 76 338 134 429 241 450 c 0
 252 452 264 453 277 453 c 0
 306 453 335 448 355 441 c 0
 433 414 489 330 489 224 c 2
 489 210 l 1
 484 92 416 8 319 -8 c 0
 306 -10 294 -11 282 -11 c 0
411 221 m 0
 411 321 369 393 282 393 c 0
 258 393 236 388 220 377 c 0
 177 347 154 295 154 224 c 0
 154 131 195 49 282 49 c 0
 369 49 411 128 411 221 c 0
215 577 m 2
 258 638 l 1
 274 638 292 637 308 637 c 1
 352 574 l 1
 377 540 397 512 397 511 c 0
 397 510 384 510 368 510 c 2
 338 510 l 1
 311 542 l 2
 296 560 284 575 283 575 c 0
 282 575 269 561 254 543 c 2
 227 510 l 1
 197 510 l 2
 174 510 168 511 169 513 c 0
 170 515 191 543 215 577 c 2
EndSplineSet
EndChar

StartChar: otilde
Encoding: 245 245 180
Width: 565
VWidth: 0
Flags: HW
LayerCount: 2
Back
Fore
SplineSet
143 400 m 0
 178 435 217 454 276 454 c 0
 282 454 288 453 294 453 c 0
 374 449 429 412 464 339 c 0
 481 304 489 263 489 221 c 0
 489 177 480 134 462 99 c 0
 428 34 375 -10 285 -10 c 0
 265 -10 243 -8 228 -4 c 0
 141 18 80 100 76 211 c 0
 76 216 76 221 76 226 c 0
 76 298 97 355 143 400 c 0
411 222 m 0
 411 322 367 394 279 394 c 0
 207 394 170 336 158 273 c 0
 156 260 154 235 154 212 c 0
 154 128 193 69 250 54 c 0
 258 52 270 51 282 51 c 0
 294 51 307 52 315 54 c 0
 376 71 411 135 411 222 c 0
154 518 m 2
 154 565 177 609 225 609 c 0
 248 609 269 598 286 588 c 0
 315 571 329 565 340 565 c 0
 354 565 358 578 361 597 c 2
 363 609 l 1
 397 609 l 2
 407 609 410 609 410 602 c 0
 410 554 383 510 339 510 c 0
 319 510 296 519 268 538 c 0
 250 550 239 556 230 556 c 0
 224 556 220 554 215 549 c 0
 205 540 203 528 203 510 c 1
 154 510 l 1
 154 518 l 2
EndSplineSet
EndChar

StartChar: odieresis
Encoding: 246 246 181
Width: 565
VWidth: 0
Flags: HW
LayerCount: 2
Back
Fore
SplineSet
143 400 m 0
 178 435 217 454 276 454 c 0
 282 454 288 453 294 453 c 0
 374 449 429 412 464 339 c 0
 481 304 489 263 489 221 c 0
 489 177 480 134 462 99 c 0
 428 34 375 -10 285 -10 c 0
 265 -10 243 -8 228 -4 c 0
 141 18 80 100 76 211 c 0
 76 216 76 221 76 226 c 0
 76 298 97 355 143 400 c 0
411 222 m 0
 411 322 367 394 279 394 c 0
 207 394 170 336 158 273 c 0
 156 260 154 235 154 212 c 0
 154 128 193 69 250 54 c 0
 258 52 270 51 282 51 c 0
 294 51 307 52 315 54 c 0
 376 71 411 135 411 222 c 0
320 559 m 0
 320 586 341 607 367 607 c 0
 395 607 417 583 417 559 c 0
 417 531 394 511 367 511 c 0
 341 511 320 533 320 559 c 0
148 559 m 0
 148 589 170 606 200 606 c 0
 226 605 244 582 244 558 c 0
 244 534 222 511 197 511 c 0
 168 511 148 536 148 559 c 0
EndSplineSet
EndChar

StartChar: divide
Encoding: 247 247 182
Width: 565
VWidth: 0
Flags: HW
LayerCount: 2
Back
Fore
SplineSet
227 68 m 0
 227 93 249 123 283 123 c 0
 313 123 339 98 339 69 c 0
 339 41 312 11 283 11 c 0
 254 11 227 38 227 68 c 0
68 185 m 1
 68 247 l 1
 211 247 354 247 497 247 c 1
 497 185 l 1
 354 185 211 185 68 185 c 1
283 310 m 0
 254 310 227 336 227 365 c 0
 227 382 236 399 254 413 c 0
 257 416 275 420 283 420 c 0
 313 420 338 393 338 364 c 0
 338 331 309 310 283 310 c 0
EndSplineSet
EndChar

StartChar: oslash
Encoding: 248 248 183
Width: 565
VWidth: 0
Flags: HW
LayerCount: 2
Back
Fore
SplineSet
430 475 m 0
 433 478 438 479 462 479 c 2
 490 479 l 1
 479 462 l 1
 441 408 434 398 434 393 c 2
 434 391 l 1
 463 346 473 326 481 294 c 0
 487 270 490 245 490 221 c 0
 490 160 471 100 435 56 c 0
 401 14 360 -5 293 -10 c 0
 287 -10 281 -11 276 -11 c 0
 245 -11 217 -3 187 11 c 1
 171 20 l 1
 159 2 146 -16 134 -34 c 1
 114 -34 95 -35 75 -35 c 1
 95 -6 114 23 134 52 c 1
 123 67 l 2
 103 95 87 133 79 171 c 0
 77 181 76 201 76 222 c 0
 76 245 77 270 80 282 c 0
 93 340 119 384 157 415 c 0
 189 441 229 454 288 454 c 0
 326 454 359 446 393 427 c 0
 396 427 429 474 430 475 c 0
319 389 m 0
 307 392 295 393 283 393 c 0
 258 393 234 388 217 377 c 0
 177 352 154 294 154 225 c 0
 154 201 156 175 160 159 c 0
 165 137 172 113 174 113 c 0
 176 113 358 371 358 373 c 0
 358 375 332 386 319 389 c 0
397 318 m 0
 394 326 392 333 391 333 c 0
 390 333 210 76 208 72 c 0
 208 70 226 60 244 55 c 0
 255 52 268 50 282 50 c 0
 306 50 332 55 348 65 c 0
 388 88 411 145 411 220 c 0
 411 261 407 286 397 318 c 0
EndSplineSet
EndChar

StartChar: ugrave
Encoding: 249 249 184
Width: 565
VWidth: 0
Flags: HW
LayerCount: 2
Back
Fore
SplineSet
97 301 m 2
 97 444 l 1
 170 444 l 1
 170 291 l 2
 170 194 171 133 172 122 c 0
 177 86 195 59 236 59 c 0
 250 59 258 60 267 63 c 0
 308 79 353 122 383 172 c 2
 391 185 l 1
 391 444 l 1
 415 444 439 444 463 444 c 1
 463 2 l 1
 439 2 415 2 391 2 c 1
 391 100 l 1
 381 87 l 1
 338 26 281 -9 225 -9 c 0
 161 -9 115 32 105 84 c 0
 99 113 97 158 97 301 c 2
185 639 m 1
 185 639 204 640 227 640 c 2
 268 640 l 1
 306 598 345 555 383 513 c 1
 361 513 340 512 318 512 c 1
 251 575 l 2
 215 610 185 639 185 639 c 1
EndSplineSet
EndChar

StartChar: uacute
Encoding: 250 250 185
Width: 565
VWidth: 0
Flags: HW
LayerCount: 2
Back
Fore
SplineSet
97 301 m 2
 97 444 l 1
 170 444 l 1
 170 291 l 2
 170 194 171 133 172 122 c 0
 177 86 195 59 236 59 c 0
 250 59 258 60 267 63 c 0
 308 79 353 122 383 172 c 2
 391 185 l 1
 391 444 l 1
 415 444 439 444 463 444 c 1
 463 2 l 1
 439 2 415 2 391 2 c 1
 391 100 l 1
 381 87 l 1
 338 26 281 -9 225 -9 c 0
 161 -9 115 32 105 84 c 0
 99 113 97 158 97 301 c 2
263 580 m 2
 318 640 l 1
 401 640 l 1
 381 621 l 2
 370 610 340 582 314 557 c 2
 268 512 l 1
 235 512 l 2
 204 512 203 512 206 516 c 0
 208 518 233 547 263 580 c 2
EndSplineSet
EndChar

StartChar: ucircumflex
Encoding: 251 251 186
Width: 565
VWidth: 0
Flags: HW
LayerCount: 2
Back
Fore
SplineSet
97 301 m 2
 97 444 l 1
 170 444 l 1
 170 291 l 2
 170 194 171 133 172 122 c 0
 177 86 195 59 236 59 c 0
 250 59 258 60 267 63 c 0
 308 79 353 122 383 172 c 2
 391 185 l 1
 391 444 l 1
 415 444 439 444 463 444 c 1
 463 2 l 1
 439 2 415 2 391 2 c 1
 391 100 l 1
 381 87 l 1
 338 26 281 -9 225 -9 c 0
 161 -9 115 32 105 84 c 0
 99 113 97 158 97 301 c 2
215 578 m 2
 259 640 l 1
 308 640 l 1
 338 597 369 555 399 512 c 1
 379 512 359 512 339 512 c 1
 311 545 l 2
 296 563 284 578 284 578 c 1
 284 578 271 563 256 545 c 2
 228 512 l 1
 199 512 l 2
 182 512 170 513 170 514 c 0
 170 515 191 544 215 578 c 2
EndSplineSet
EndChar

StartChar: udieresis
Encoding: 252 252 187
Width: 565
VWidth: 0
Flags: HW
LayerCount: 2
Back
Fore
SplineSet
97 301 m 2
 97 444 l 1
 170 444 l 1
 170 291 l 2
 170 194 171 133 172 122 c 0
 177 86 195 59 236 59 c 0
 250 59 258 60 267 63 c 0
 308 79 353 122 383 172 c 2
 391 185 l 1
 391 444 l 1
 415 444 439 444 463 444 c 1
 463 2 l 1
 439 2 415 2 391 2 c 1
 391 100 l 1
 381 87 l 1
 338 26 281 -9 225 -9 c 0
 161 -9 115 32 105 84 c 0
 99 113 97 158 97 301 c 2
321 560 m 0
 321 584 339 608 371 608 c 0
 399 608 417 584 417 560 c 0
 417 531 394 512 370 512 c 0
 346 512 321 533 321 560 c 0
197 512 m 0
 172 512 151 532 151 559 c 0
 151 561 151 563 151 565 c 0
 153 592 175 608 198 608 c 0
 222 608 245 589 245 559 c 0
 245 529 220 512 197 512 c 0
EndSplineSet
EndChar

StartChar: yacute
Encoding: 253 253 188
Width: 565
VWidth: 0
Flags: HW
LayerCount: 2
Back
Fore
SplineSet
252 30 m 0
 252 35 240 62 85 450 c 0
 85 452 94 452 120 452 c 2
 156 452 l 1
 205 324 l 2
 262 175 265 164 280 108 c 0
 283 97 286 98 289 109 c 0
 296 135 326 225 365 332 c 2
 408 451 l 1
 445 452 l 2
 456 452 464 453 469 453 c 0
 478 453 480 452 480 450 c 2
 480 449 l 2
 479 447 291 -47 291 -47 c 1
 278 -76 264 -98 244 -118 c 0
 216 -146 194 -154 146 -154 c 0
 131 -154 112 -153 104 -152 c 2
 90 -150 l 1
 90 -132 90 -114 90 -96 c 1
 102 -97 l 1
 113 -99 124 -100 133 -100 c 0
 174 -100 198 -82 217 -53 c 0
 224 -42 252 24 252 30 c 0
300 615 m 2
 310 633 l 1
 351 633 l 2
 389 633 393 633 393 629 c 0
 393 620 325 545 293 518 c 1
 280 508 l 1
 258 508 l 2
 236 508 236 508 236 513 c 0
 236 516 240 522 244 528 c 0
 256 544 289 595 300 615 c 2
EndSplineSet
EndChar

StartChar: thorn
Encoding: 254 254 189
Width: 565
VWidth: 0
Flags: HW
LayerCount: 2
Back
Fore
SplineSet
102 -190 m 1
 102 618 l 1
 173 618 l 1
 172 498 l 2
 172 432 171 377 171 377 c 1
 192 398 l 2
 221 427 252 443 303 443 c 2
 317 443 l 1
 347 442 367 437 389 426 c 0
 453 393 485 317 485 220 c 0
 485 115 447 37 374 8 c 0
 354 0 329 -4 305 -4 c 0
 248 -4 220 11 187 44 c 0
 178 53 170 60 169 59 c 0
 168 58 169 46 170 32 c 0
 171 18 172 -38 172 -92 c 2
 172 -190 l 1
 102 -190 l 1
172 224 m 0
 172 123 195 60 286 54 c 1
 297 54 l 2
 372 54 412 110 412 218 c 2
 412 237 l 1
 409 312 386 371 326 381 c 0
 314 383 302 384 291 384 c 0
 199 384 172 322 172 224 c 0
EndSplineSet
EndChar

StartChar: ydieresis
Encoding: 255 255 190
Width: 565
VWidth: 0
Flags: HW
LayerCount: 2
Back
Fore
SplineSet
68 443 m 0
 68 444 86 444 108 444 c 2
 147 444 l 1
 227 280 l 2
 271 190 308 115 309 114 c 0
 311 114 339 183 425 391 c 1
 446 444 l 1
 483 444 l 2
 509 444 518 443 518 441 c 0
 492 375 332 -4 319 -30 c 0
 300 -69 279 -102 261 -123 c 0
 228 -161 176 -180 117 -180 c 0
 99 -180 80 -179 61 -175 c 1
 60 -144 l 2
 60 -127 59 -113 60 -113 c 0
 61 -113 69 -114 77 -116 c 0
 87 -119 103 -120 118 -120 c 0
 158 -120 183 -109 205 -89 c 0
 226 -70 251 -32 266 6 c 1
 271 20 l 1
 170 231 l 2
 114 347 68 442 68 443 c 0
388 512 m 0
 363 512 339 532 339 561 c 0
 339 589 366 608 391 608 c 0
 413 608 435 590 435 561 c 0
 435 537 417 512 388 512 c 0
168 559 m 2
 168 583 186 608 215 608 c 0
 240 608 264 589 264 560 c 0
 264 534 244 513 217 513 c 2
 212 513 l 1
 188 515 170 531 168 555 c 1
 168 559 l 2
EndSplineSet
EndChar

StartChar: Amacron
Encoding: 256 256 191
Width: 565
VWidth: 0
Flags: HW
LayerCount: 2
Back
Fore
SplineSet
177 215 m 2
 177 221 l 1
 388 221 l 1
 388 215 l 2
 388 192 371 167 348 159 c 0
 332 153 307 150 282 150 c 0
 243 150 212 156 194 174 c 0
 184 184 177 201 177 215 c 2
177 450 m 0
 177 458 183 463 187 468 c 1
 378 468 l 1
 382 463 388 458 388 450 c 0
 388 437 379 433 364 433 c 2
 351 433 l 1
 351 416 l 2
 351 358 360 335 399 311 c 0
 442 285 459 260 459 208 c 0
 459 153 427 114 365 93 c 0
 339 84 311 80 283 80 c 0
 212 80 144 108 119 154 c 0
 110 170 106 190 106 210 c 0
 106 240 116 269 134 287 c 0
 140 293 154 303 165 310 c 0
 189 325 199 335 205 352 c 0
 210 365 214 395 214 418 c 2
 214 433 l 1
 201 433 l 2
 186 433 177 437 177 450 c 0
316 404 m 2
 315 433 l 1
 250 433 l 1
 249 404 l 2
 246 330 225 307 182 278 c 0
 149 258 143 249 143 209 c 0
 143 188 143 183 147 175 c 0
 166 138 216 116 282 116 c 0
 346 116 397 137 416 173 c 0
 422 184 422 186 422 209 c 0
 422 249 416 258 383 278 c 0
 340 307 319 330 316 404 c 2
EndSplineSet
EndChar

StartChar: amacron
Encoding: 257 257 192
Width: 565
VWidth: 0
Flags: HW
LayerCount: 2
Back
Fore
SplineSet
129 179 m 0
 126 185 74 254 74 254 c 2
 75 254 82 250 90 245 c 0
 147 210 171 174 176 116 c 1
 177 97 l 1
 165 103 153 109 141 115 c 1
 141 126 l 2
 141 142 136 166 129 179 c 0
432 306 m 0
 448 319 455 325 456 325 c 2
 456 325 456 324 455 322 c 0
 384 232 362 190 355 136 c 2
 352 114 l 1
 340 108 329 103 317 97 c 1
 319 117 l 2
 321 141 329 172 338 193 c 0
 355 230 388 271 432 306 c 0
145 357 m 1
 148 357 173 337 196 315 c 0
 251 262 277 217 282 165 c 1
 283 151 l 1
 271 145 260 139 248 133 c 1
 246 153 l 1
 242 204 226 243 178 310 c 0
 161 333 145 354 145 357 c 1
EndSplineSet
EndChar

StartChar: Abreve
Encoding: 258 258 193
Width: 565
VWidth: 0
Flags: HW
LayerCount: 2
Back
Fore
SplineSet
1 383 m 1
 142 529 283 675 424 821 c 1
 495 821 l 1
 278 596 l 2
 159 472 51 361 39 349 c 2
 17 327 l 1
 88 327 l 1
 247 491 405 656 564 820 c 1
 564 796 565 771 565 747 c 1
 539 721 l 2
 515 697 204 373 180 349 c 2
 158 327 l 1
 229 327 l 1
 396 500 l 2
 488 595 564 673 564 673 c 1
 564 673 565 657 565 637 c 2
 565 601 l 1
 476 510 l 2
 427 460 368 397 344 372 c 2
 300 327 l 1
 370 327 l 1
 435 394 499 460 564 527 c 1
 564 503 565 480 565 456 c 1
 548 438 l 2
 538 428 511 399 486 373 c 2
 441 327 l 1
 512 327 l 1
 530 345 547 364 565 382 c 1
 565 291 l 1
 421 291 l 2
 304 291 277 290 271 288 c 0
 262 284 253 274 250 266 c 0
 248 261 247 248 247 235 c 0
 247 224 248 213 250 209 c 0
 254 200 264 191 272 188 c 0
 276 186 326 185 422 185 c 2
 565 185 l 1
 565 150 l 1
 510 150 l 2
 476 150 453 149 449 148 c 0
 441 145 431 135 427 126 c 0
 425 122 424 109 424 97 c 0
 424 85 425 72 427 68 c 0
 431 59 441 50 449 47 c 0
 453 46 476 44 510 44 c 2
 565 44 l 1
 565 9 l 1
 369 9 l 2
 341 9 316 9 295 9 c 0
 158 9 162 8 152 -3 c 0
 143 -12 141 -20 141 -44 c 0
 141 -68 143 -76 152 -85 c 0
 162 -96 158 -97 295 -97 c 0
 316 -97 341 -97 369 -97 c 2
 565 -97 l 1
 565 -132 l 1
 457 -132 l 2
 340 -132 341 -133 329 -145 c 0
 320 -154 318 -161 318 -183 c 2
 318 -203 l 1
 306 -203 294 -203 282 -203 c 1
 282 -183 l 2
 282 -161 281 -154 272 -145 c 0
 260 -132 263 -132 126 -132 c 2
 0 -132 l 1
 0 -97 l 1
 38 -97 l 2
 79 -97 85 -96 95 -85 c 0
 104 -76 106 -68 106 -44 c 0
 106 -20 104 -12 95 -3 c 0
 85 8 79 9 38 9 c 2
 0 9 l 1
 0 44 l 1
 179 44 l 2
 300 44 359 45 363 47 c 0
 371 50 381 59 385 68 c 0
 387 72 388 85 388 97 c 0
 388 109 387 122 385 126 c 0
 381 135 371 145 363 148 c 0
 359 150 300 150 179 150 c 2
 0 150 l 1
 0 185 l 1
 90 185 l 2
 148 185 183 186 187 188 c 0
 195 191 205 200 209 209 c 0
 211 213 212 224 212 238 c 0
 212 252 211 264 209 268 c 0
 205 277 195 286 187 289 c 0
 183 291 148 291 90 291 c 2
 0 291 l 1
 0 322 1 352 1 383 c 1
0 529 m 1
 94 626 189 724 283 821 c 1
 353 821 l 1
 197 659 l 2
 111 570 32 489 21 477 c 2
 0 456 l 1
 0 529 l 1
0 675 m 1
 47 724 94 772 141 821 c 1
 212 821 l 1
 118 723 l 2
 66 669 18 621 12 614 c 2
 0 601 l 1
 0 675 l 1
0 784 m 2
 0 821 l 1
 24 821 48 821 72 821 c 1
 38 786 l 2
 19 767 3 749 2 749 c 0
 1 749 0 765 0 784 c 2
EndSplineSet
EndChar

StartChar: abreve
Encoding: 259 259 194
Width: 565
VWidth: 0
Flags: HW
LayerCount: 2
Back
Fore
SplineSet
106 -26 m 0
 99 -26 93 -26 88 -26 c 0
 68 -26 65 -25 65 -19 c 0
 65 -9 90 3 102 7 c 0
 106 8 106 13 106 79 c 0
 106 147 107 151 112 173 c 0
 125 226 136 250 160 276 c 1
 177 293 l 1
 173 307 l 2
 170 318 161 335 161 344 c 0
 161 345 172 348 185 352 c 2
 209 359 l 1
 190 359 171 360 152 360 c 1
 148 372 l 2
 146 379 143 387 143 391 c 0
 143 396 143 397 140 396 c 0
 138 395 129 395 121 394 c 2
 106 392 l 1
 106 256 l 1
 99 238 l 1
 86 201 67 177 53 177 c 0
 39 177 20 201 7 238 c 1
 0 256 l 1
 0 539 l 1
 106 539 l 1
 106 514 106 489 106 464 c 1
 128 470 l 2
 149 475 150 476 156 472 c 0
 165 467 165 473 167 480 c 1
 172 473 172 468 184 468 c 0
 193 468 194 469 194 474 c 0
 194 480 194 480 198 476 c 0
 202 472 203 472 211 476 c 0
 228 484 247 505 247 514 c 0
 247 518 244 519 240 519 c 0
 229 519 210 511 206 509 c 0
 193 503 191 502 189 493 c 0
 187 484 186 483 184 487 c 0
 178 495 184 503 168 503 c 2
 157 503 l 1
 157 494 l 2
 157 482 154 484 147 500 c 0
 143 509 141 518 141 527 c 0
 141 535 143 543 146 550 c 0
 154 567 150 552 167 559 c 1
 173 561 l 1
 168 563 153 569 155 573 c 0
 156 575 155 576 152 576 c 0
 144 576 128 585 121 593 c 0
 113 603 109 617 109 633 c 0
 109 657 121 688 138 692 c 0
 143 693 143 693 140 680 c 0
 137 669 136 659 136 650 c 0
 136 624 150 603 177 603 c 0
 186 603 207 609 216 609 c 0
 225 609 243 623 265 646 c 0
 283 665 290 679 291 697 c 0
 291 705 293 711 294 711 c 0
 302 711 315 690 315 676 c 0
 315 656 303 628 284 609 c 2
 272 597 l 1
 279 580 l 2
 292 550 292 543 327 529 c 0
 361 514 389 500 398 493 c 0
 414 480 420 461 423 390 c 2
 424 363 l 1
 459 328 l 1
 459 627 l 1
 467 643 l 2
 471 652 476 660 477 660 c 0
 478 660 482 652 486 643 c 2
 494 627 l 1
 494 477 l 2
 494 356 495 327 497 325 c 0
 501 322 510 321 528 323 c 0
 541 324 543 324 545 320 c 0
 548 314 548 304 545 298 c 0
 543 294 541 294 523 295 c 0
 518 295 514 296 510 296 c 0
 500 296 496 294 496 289 c 0
 496 285 498 279 498 276 c 0
 498 267 494 260 494 248 c 0
 493 231 485 217 477 217 c 0
 476 217 474 217 473 218 c 0
 464 224 460 234 460 255 c 2
 460 274 l 1
 452 281 l 2
 448 285 437 291 428 295 c 0
 404 305 396 313 376 349 c 0
 366 366 357 385 356 390 c 0
 353 401 352 401 350 386 c 0
 349 380 345 369 340 360 c 0
 323 327 319 320 318 306 c 0
 317 294 318 291 326 277 c 0
 332 266 336 261 341 259 c 0
 370 247 398 222 419 191 c 0
 437 165 452 147 472 147 c 0
 484 147 497 154 514 169 c 0
 522 176 527 181 527 180 c 0
 527 179 523 171 519 163 c 0
 505 137 487 118 456 118 c 0
 438 118 422 128 394 154 c 0
 380 168 364 182 359 186 c 2
 350 193 l 1
 352 162 l 2
 353 132 354 131 362 115 c 0
 374 92 377 81 382 47 c 0
 387 13 381 12 405 3 c 0
 424 -4 432 -9 432 -15 c 0
 432 -17 431 -20 429 -22 c 0
 426 -26 421 -26 388 -26 c 2
 351 -26 l 1
 347 -18 345 -17 349 -3 c 0
 350 2 351 6 351 9 c 0
 351 15 348 20 337 34 c 0
 324 51 313 71 306 94 c 2
 300 112 l 1
 265 148 l 2
 245 168 228 183 228 183 c 1
 228 183 225 176 221 168 c 0
 211 147 197 129 187 121 c 1
 178 115 l 1
 177 96 l 1
 177 72 174 63 159 44 c 0
 147 29 142 21 142 12 c 0
 142 7 144 1 147 -7 c 0
 151 -17 151 -18 147 -22 c 0
 143 -26 141 -26 106 -26 c 0
194 557 m 0
 203 555 208 562 214 574 c 1
 208 572 185 561 185 560 c 0
 185 559 190 558 194 557 c 0
154 534 m 2
 148 540 147 539 148 531 c 0
 149 524 149 525 159 524 c 0
 169 523 170 524 171 529 c 0
 175 545 162 533 158 529 c 1
 154 534 l 2
226 361 m 0
 225 361 221 368 217 377 c 2
 209 394 l 1
 211 370 l 2
 212 357 213 345 213 345 c 1
 218 345 306 364 307 366 c 1
 307 366 246 362 226 361 c 0
EndSplineSet
EndChar

StartChar: Aogonek
Encoding: 260 260 195
Width: 565
VWidth: 0
Flags: HW
LayerCount: 2
Back
Fore
SplineSet
106 -62 m 1
 106 503 l 1
 141 503 l 1
 141 409 141 315 141 221 c 1
 153 221 l 2
 168 221 177 214 177 203 c 0
 177 192 168 185 153 185 c 2
 141 185 l 1
 141 -62 l 1
 106 -62 l 1
132 611 m 0
 171 630 225 644 284 644 c 0
 304 644 324 643 345 639 c 0
 421 626 486 590 514 533 c 0
 530 500 530 512 530 209 c 2
 530 -62 l 1
 518 -62 506 -62 494 -62 c 1
 494 208 l 2
 494 382 493 482 492 490 c 0
 477 566 380 609 282 609 c 0
 267 609 253 608 238 606 c 0
 148 594 84 549 73 490 c 0
 72 482 71 382 71 208 c 2
 71 -62 l 1
 59 -62 47 -62 35 -62 c 1
 35 209 l 2
 35 512 35 500 51 533 c 0
 66 563 96 593 132 611 c 0
EndSplineSet
EndChar

StartChar: aogonek
Encoding: 261 261 196
Width: 565
VWidth: 0
Flags: HW
LayerCount: 2
Back
Fore
SplineSet
323 74 m 0
 331 82 341 81 351 71 c 0
 370 51 390 44 424 44 c 0
 458 44 478 51 497 71 c 0
 507 81 516 82 524 74 c 0
 528 70 530 67 530 63 c 0
 530 57 526 51 518 43 c 0
 496 20 459 8 423 8 c 0
 387 8 351 20 329 43 c 0
 321 51 317 57 317 63 c 0
 317 67 319 70 323 74 c 0
41 74 m 0
 49 82 58 81 68 71 c 0
 87 51 107 44 141 44 c 0
 175 44 195 51 214 71 c 0
 224 81 234 82 242 74 c 0
 246 70 248 67 248 63 c 0
 248 57 244 51 236 43 c 0
 214 20 178 8 141 8 c 0
 104 8 68 20 46 43 c 0
 39 51 35 57 35 62 c 0
 35 66 37 70 41 74 c 0
323 145 m 0
 326 148 330 150 334 150 c 0
 339 150 345 147 351 141 c 0
 370 121 390 114 424 114 c 0
 458 114 478 121 497 141 c 0
 507 151 516 153 524 145 c 0
 528 141 530 138 530 134 c 0
 530 128 526 122 518 114 c 0
 496 91 459 80 423 80 c 0
 387 80 351 91 329 114 c 0
 321 122 317 128 317 134 c 0
 317 138 319 141 323 145 c 0
41 145 m 0
 49 153 58 151 68 141 c 0
 87 121 107 114 141 114 c 0
 175 114 195 121 214 141 c 0
 220 147 226 150 231 150 c 0
 235 150 239 148 242 145 c 0
 246 141 248 138 248 134 c 0
 248 128 244 122 236 114 c 0
 214 91 178 80 141 80 c 0
 104 80 68 91 46 114 c 0
 39 122 35 128 35 133 c 0
 35 137 37 141 41 145 c 0
395 289 m 0
 400 290 408 290 417 290 c 0
 435 290 456 289 466 286 c 0
 493 278 512 264 523 245 c 0
 527 238 529 229 529 220 c 0
 529 211 527 203 523 196 c 0
 505 166 464 150 424 150 c 0
 384 150 343 166 325 196 c 0
 321 204 318 212 318 220 c 0
 318 228 321 237 325 245 c 0
 337 265 365 284 395 289 c 0
113 289 m 0
 118 290 126 290 135 290 c 0
 152 290 173 289 183 286 c 0
 210 278 229 264 240 245 c 0
 244 238 246 229 246 220 c 0
 246 211 244 203 240 196 c 0
 222 166 182 150 142 150 c 0
 102 150 61 166 43 196 c 0
 39 204 36 212 36 220 c 0
 36 228 39 237 43 245 c 0
 55 265 83 284 113 289 c 0
182 357 m 0
 185 360 189 362 193 362 c 0
 198 362 204 359 210 353 c 0
 229 333 248 326 282 326 c 0
 316 326 336 333 355 353 c 0
 361 359 367 362 372 362 c 0
 376 362 380 360 383 357 c 0
 387 353 389 350 389 346 c 0
 389 340 385 334 377 326 c 0
 355 303 318 292 282 292 c 0
 246 292 210 303 188 326 c 0
 180 334 176 340 176 346 c 0
 176 350 178 353 182 357 c 0
254 501 m 0
 259 502 267 502 276 502 c 0
 293 502 314 501 324 498 c 0
 351 490 370 476 381 457 c 0
 385 450 387 441 387 432 c 0
 387 423 385 415 381 408 c 0
 363 378 322 362 282 362 c 0
 242 362 202 378 184 408 c 0
 180 416 177 424 177 432 c 0
 177 440 180 449 184 457 c 0
 196 477 224 496 254 501 c 0
EndSplineSet
EndChar

StartChar: Cacute
Encoding: 262 262 197
Width: 565
VWidth: 0
Flags: HW
LayerCount: 2
Back
Fore
SplineSet
141 514 m 0
 172 544 224 565 282 565 c 0
 302 565 322 562 343 557 c 0
 398 543 437 513 453 471 c 2
 458 458 l 1
 458 285 459 111 459 -62 c 1
 106 -62 l 1
 106 26 l 1
 116 28 l 1
 133 32 142 48 142 62 c 0
 142 76 133 91 116 95 c 1
 106 98 l 1
 106 168 106 238 106 308 c 1
 116 311 l 1
 133 315 142 330 142 344 c 0
 142 358 133 374 116 378 c 1
 106 381 l 1
 106 414 l 2
 106 466 113 486 141 514 c 0
405 231 m 0
 405 233 405 234 405 236 c 0
 405 254 390 274 371 274 c 0
 366 274 361 273 356 270 c 0
 343 263 335 250 335 237 c 0
 335 228 339 220 347 212 c 0
 353 207 353 206 353 178 c 2
 353 150 l 1
 388 150 l 1
 388 206 l 1
 396 215 l 2
 400 220 404 227 405 231 c 0
132 611 m 0
 171 630 225 644 284 644 c 0
 304 644 324 643 345 639 c 0
 421 626 486 590 514 533 c 0
 530 500 530 512 530 209 c 2
 530 -62 l 1
 518 -62 506 -62 494 -62 c 1
 494 208 l 2
 494 382 493 482 492 490 c 0
 477 566 380 609 282 609 c 0
 267 609 253 608 238 606 c 0
 148 594 84 549 73 490 c 0
 72 482 71 382 71 208 c 2
 71 -62 l 1
 59 -62 47 -62 35 -62 c 1
 35 209 l 2
 35 512 35 500 51 533 c 0
 66 563 96 593 132 611 c 0
EndSplineSet
EndChar

StartChar: cacute
Encoding: 263 263 198
Width: 565
VWidth: 0
Flags: HW
LayerCount: 2
Back
Fore
SplineSet
88 1 m 2
 96 24 104 42 105 42 c 0
 108 42 184 15 184 12 c 0
 184 5 160 -63 156 -67 c 0
 156 -67 156 -67 155 -67 c 0
 150 -67 133 -61 85 -44 c 1
 73 -40 l 1
 88 1 l 2
396 84 m 2
 406 97 l 1
 434 77 l 2
 449 66 461 55 461 54 c 0
 461 53 456 47 451 40 c 2
 441 27 l 1
 414 47 l 2
 399 58 386 68 386 69 c 0
 386 70 391 77 396 84 c 2
266 288 m 0
 272 301 285 308 298 308 c 0
 310 308 323 302 329 288 c 0
 332 283 333 278 333 273 c 0
 333 254 317 238 298 238 c 0
 292 238 286 240 280 243 c 0
 269 249 262 261 262 273 c 0
 262 278 264 283 266 288 c 0
120 515 m 0
 130 519 140 521 148 521 c 0
 158 521 164 518 164 510 c 0
 164 507 163 504 161 500 c 0
 145 466 75 424 44 424 c 0
 39 424 35 425 32 428 c 0
 28 432 29 434 31 441 c 0
 37 463 81 499 120 515 c 0
358 607 m 1
 343 733 l 1
 343 733 354 721 366 706 c 0
 381 688 389 681 392 681 c 0
 393 681 l 0
 398 682 424 689 426 689 c 0
 428 689 459 652 459 650 c 0
 459 649 436 639 408 628 c 2
 358 607 l 1
EndSplineSet
EndChar

StartChar: Ccircumflex
Encoding: 264 264 199
Width: 565
VWidth: 0
Flags: HW
LayerCount: 2
Back
Fore
SplineSet
35 291 m 1
 18 291 l 1
 18 362 l 1
 323 362 l 1
 331 376 l 1
 344 401 370 421 398 429 c 0
 407 431 415 432 424 432 c 0
 470 432 513 400 526 352 c 0
 528 343 529 334 529 326 c 0
 529 269 480 221 424 221 c 0
 416 221 408 222 399 224 c 0
 370 232 344 252 331 277 c 1
 323 291 l 1
 280 291 237 291 194 291 c 1
 194 221 l 1
 141 221 l 1
 141 291 l 1
 88 291 l 1
 88 221 l 1
 35 221 l 1
 35 291 l 1
440 386 m 0
 433 394 429 395 423 395 c 0
 401 395 387 362 387 327 c 0
 387 309 390 291 398 276 c 0
 405 262 414 255 423 255 c 0
 434 255 446 266 454 288 c 0
 457 296 458 305 458 324 c 0
 458 356 453 372 440 386 c 0
EndSplineSet
EndChar

StartChar: ccircumflex
Encoding: 265 265 200
Width: 565
VWidth: 0
Flags: HW
LayerCount: 2
Back
Fore
SplineSet
59 22 m 0
 63 25 66 26 70 26 c 0
 78 26 85 21 87 12 c 0
 88 7 87 4 82 -4 c 0
 78 -10 75 -15 75 -20 c 0
 75 -25 78 -29 82 -34 c 0
 97 -52 137 -61 177 -61 c 0
 205 -61 232 -57 252 -47 c 0
 269 -39 277 -30 277 -20 c 0
 277 -15 275 -10 270 -4 c 0
 263 4 263 14 270 21 c 0
 274 25 278 26 282 26 c 0
 290 26 299 19 306 6 c 0
 310 -2 312 -11 312 -20 c 0
 312 -28 310 -36 307 -43 c 0
 292 -71 257 -89 207 -95 c 0
 197 -96 186 -97 176 -97 c 0
 111 -97 55 -73 43 -37 c 0
 41 -31 40 -26 40 -20 c 0
 40 -4 47 13 59 22 c 0
135 67 m 0
 146 75 160 79 174 79 c 0
 192 79 210 73 225 60 c 0
 235 52 246 30 246 21 c 0
 246 0 203 -17 174 -17 c 0
 169 -17 165 -17 161 -16 c 0
 133 -11 106 8 106 22 c 0
 106 35 120 56 135 67 c 0
210 22 m 0
 203 36 189 44 176 44 c 0
 164 44 151 37 143 23 c 2
 136 11 l 1
 147 6 l 2
 155 2 165 1 175 1 c 0
 185 1 195 2 203 6 c 0
 209 9 214 11 214 12 c 0
 214 13 212 18 210 22 c 0
377 219 m 0
 382 220 389 220 396 220 c 0
 415 220 440 217 455 213 c 0
 478 206 514 190 523 181 c 0
 531 173 532 164 524 156 c 0
 521 153 517 151 513 151 c 0
 508 151 502 153 494 158 c 0
 467 174 431 185 405 185 c 0
 378 185 342 174 315 157 c 0
 303 149 295 149 288 156 c 0
 284 160 282 164 282 168 c 0
 282 193 357 216 377 219 c 0
231 442 m 0
 237 449 241 450 246 450 c 0
 258 450 263 443 263 435 c 0
 263 430 262 425 258 420 c 0
 253 414 251 409 251 404 c 0
 251 400 253 395 257 391 c 0
 271 374 310 363 353 363 c 0
 361 363 369 363 377 364 c 0
 415 368 443 380 451 396 c 0
 455 405 455 411 447 420 c 0
 443 424 442 429 442 433 c 0
 442 442 450 450 459 450 c 0
 463 450 467 449 471 446 c 0
 482 436 489 420 489 404 c 0
 489 392 485 379 476 369 c 0
 452 341 412 328 352 328 c 0
 299 328 259 340 236 362 c 0
 223 374 217 390 217 405 c 0
 217 418 221 431 231 442 c 0
333 501 m 0
 336 502 346 502 355 502 c 0
 374 501 388 496 401 484 c 0
 410 476 424 453 424 445 c 0
 424 438 404 420 389 415 c 0
 374 410 363 407 351 407 c 0
 341 407 331 409 320 413 c 0
 296 422 282 434 282 446 c 0
 282 466 307 493 333 501 c 0
387 444 m 0
 381 456 369 468 353 468 c 0
 348 468 342 467 336 464 c 0
 328 460 320 452 316 441 c 0
 314 435 313 434 321 431 c 0
 331 427 342 425 352 425 c 0
 362 425 373 427 383 431 c 0
 392 435 392 435 387 444 c 0
175 711 m 0
 183 714 190 715 199 715 c 0
 217 715 240 709 271 696 c 0
 298 685 314 679 327 679 c 0
 337 679 345 682 357 688 c 0
 366 693 380 701 387 706 c 0
 396 712 402 715 407 715 c 0
 411 715 415 713 418 710 c 0
 426 702 425 692 417 684 c 0
 408 676 378 658 361 651 c 0
 349 646 345 646 326 646 c 0
 302 646 296 648 247 668 c 0
 228 676 214 679 202 679 c 0
 181 679 167 668 146 655 c 0
 136 649 126 644 123 644 c 0
 114 644 106 653 106 663 c 0
 106 666 107 669 108 671 c 0
 112 679 153 703 175 711 c 0
EndSplineSet
EndChar

StartChar: Cdotaccent
Encoding: 266 266 201
Width: 565
VWidth: 0
Flags: HW
LayerCount: 2
Back
Fore
SplineSet
503 -167 m 0
 518 -167 530 -154 530 -136 c 0
 530 -122 521 -105 501 -73 c 0
 490 -55 478 -40 478 -37 c 0
 478 -36 479 -36 480 -36 c 0
 487 -36 510 -45 521 -53 c 0
 549 -75 564 -107 564 -136 c 0
 564 -170 544 -202 504 -202 c 0
 460 -202 413 -160 413 -102 c 0
 413 -90 414 -79 416 -77 c 0
 418 -77 427 -91 440 -110 c 0
 454 -131 466 -147 473 -153 c 0
 483 -162 494 -167 503 -167 c 0
395 -2 m 0
 395 9 403 17 412 17 c 0
 416 17 420 16 424 12 c 0
 427 9 438 -9 480 -75 c 0
 489 -89 497 -102 497 -105 c 0
 497 -113 487 -122 478 -122 c 0
 474 -122 470 -121 467 -117 c 0
 465 -115 448 -89 429 -60 c 0
 406 -24 395 -6 395 -2 c 0
317 49 m 0
 317 55 318 75 322 71 c 0
 324 68 397 -42 403 -52 c 0
 404 -54 403 -55 397 -54 c 0
 354 -46 317 -5 317 49 c 0
382 111 m 0
 382 113 384 113 397 109 c 0
 435 98 465 60 467 20 c 1
 467 7 l 2
 467 -5 466 -13 464 -13 c 0
 462 -13 382 108 382 111 c 0
289 165 m 0
 289 176 308 183 317 175 c 0
 321 172 381 79 388 67 c 0
 389 65 390 62 390 60 c 0
 390 50 381 41 372 41 c 0
 368 41 364 43 361 46 c 0
 359 48 342 74 323 103 c 0
 298 141 289 157 289 165 c 0
210 210 m 0
 210 213 212 236 215 236 c 0
 216 236 289 124 297 111 c 0
 298 108 297 108 290 109 c 0
 251 116 210 160 210 210 c 0
362 176 m 0
 362 169 362 150 358 150 c 0
 356 150 351 158 333 185 c 0
 294 244 276 273 276 274 c 0
 276 275 277 275 278 275 c 0
 283 275 294 271 306 266 c 0
 336 252 362 220 362 176 c 0
183 328 m 0
 183 339 202 346 211 338 c 0
 219 331 285 228 285 222 c 0
 285 214 283 210 276 206 c 0
 269 202 260 203 255 209 c 0
 253 211 236 237 217 266 c 0
 192 305 183 320 183 328 c 0
105 372 m 0
 105 409 128 438 168 438 c 0
 209 438 241 400 252 369 c 0
 255 361 256 348 256 336 c 0
 256 329 256 314 252 314 c 0
 250 314 245 321 229 345 c 0
 199 391 187 402 167 402 c 0
 149 402 141 392 141 371 c 0
 141 355 146 345 169 309 c 0
 185 285 191 275 191 272 c 0
 191 271 190 271 189 271 c 0
 188 271 186 272 184 272 c 0
 145 279 105 322 105 372 c 0
EndSplineSet
EndChar

StartChar: cdotaccent
Encoding: 267 267 202
Width: 565
VWidth: 0
Flags: HW
LayerCount: 2
Back
Fore
SplineSet
373 345 m 0
 373 346 373 346 375 346 c 0
 382 346 401 340 411 333 c 0
 443 313 459 277 459 245 c 0
 459 219 448 195 424 185 c 0
 416 182 408 180 399 180 c 0
 363 180 326 208 312 252 c 0
 310 259 308 271 308 282 c 0
 308 290 309 298 311 302 c 0
 311 303 312 304 313 304 c 0
 321 304 348 239 374 223 c 0
 383 217 392 214 399 214 c 0
 414 214 424 225 424 245 c 0
 424 263 421 272 394 312 c 0
 382 330 373 344 373 345 c 0
295 393 m 0
 299 397 302 400 306 400 c 0
 315 400 326 385 355 340 c 0
 374 310 391 284 392 281 c 0
 392 280 393 278 393 277 c 0
 393 268 383 260 374 260 c 0
 370 260 366 262 363 265 c 0
 354 274 291 374 290 380 c 0
 289 385 290 388 295 393 c 0
215 452 m 0
 216 453 215 454 216 454 c 0
 218 454 223 447 245 413 c 0
 258 393 275 365 284 352 c 0
 293 339 299 327 299 327 c 1
 299 327 299 327 298 327 c 0
 292 327 271 334 263 339 c 0
 240 352 220 381 214 408 c 0
 213 413 212 420 212 428 c 0
 212 439 213 449 215 452 c 0
298 460 m 2
 276 495 l 1
 307 490 335 471 351 442 c 0
 360 426 363 409 363 394 c 0
 363 384 362 375 359 366 c 1
 340 395 l 2
 329 411 310 441 298 460 c 2
184 544 m 0
 184 553 192 561 202 561 c 0
 205 561 208 561 211 559 c 0
 213 558 231 532 251 501 c 0
 280 456 286 446 286 440 c 0
 286 439 286 439 286 438 c 0
 284 429 277 424 269 424 c 0
 265 424 260 425 257 429 c 0
 249 439 184 536 184 544 c 0
108 609 m 0
 110 618 111 618 113 615 c 0
 133 584 177 518 195 490 c 1
 158 497 127 518 112 556 c 0
 108 566 106 580 106 592 c 0
 106 599 107 604 108 609 c 0
192 623 m 2
 170 658 l 1
 221 649 258 608 258 558 c 0
 258 556 258 554 258 552 c 0
 257 543 256 534 255 532 c 0
 254 532 l 0
 251 532 238 551 192 623 c 2
79 702 m 0
 78 703 78 705 78 707 c 0
 78 715 86 724 96 724 c 0
 100 724 104 723 106 721 c 0
 112 716 181 608 181 603 c 0
 181 595 172 587 163 587 c 0
 159 587 154 588 151 592 c 0
 145 598 82 695 79 702 c 0
46 818 m 0
 51 819 56 820 61 820 c 0
 103 820 151 779 151 722 c 0
 151 705 151 697 148 697 c 0
 145 697 138 706 125 726 c 0
 101 763 94 773 82 779 c 0
 75 783 68 784 62 784 c 0
 46 784 35 772 35 754 c 0
 35 743 39 729 48 716 c 0
 58 701 80 666 89 653 c 1
 77 655 70 656 58 662 c 0
 25 677 1 720 1 757 c 0
 1 784 14 809 46 818 c 0
EndSplineSet
EndChar

StartChar: Ccaron
Encoding: 268 268 203
Width: 565
VWidth: 0
Flags: HW
LayerCount: 2
Back
Fore
SplineSet
73 -38 m 0
 78 -37 82 -35 84 -35 c 0
 85 -35 86 -36 86 -37 c 0
 86 -41 78 -51 60 -79 c 0
 51 -93 41 -109 39 -115 c 0
 36 -122 35 -129 35 -136 c 0
 35 -154 45 -167 61 -167 c 0
 66 -167 71 -166 77 -163 c 0
 92 -156 101 -146 125 -109 c 0
 138 -88 145 -79 148 -79 c 0
 151 -79 151 -85 152 -96 c 0
 152 -99 152 -101 152 -103 c 0
 152 -157 105 -203 61 -203 c 0
 47 -203 34 -198 22 -188 c 0
 8 -176 0 -156 0 -135 c 0
 0 -129 1 -123 2 -117 c 0
 10 -81 40 -47 73 -38 c 0
146 15 m 0
 149 16 152 17 154 17 c 0
 163 17 170 8 170 -2 c 0
 170 -8 101 -116 95 -119 c 0
 93 -120 88 -121 84 -121 c 0
 76 -121 69 -113 69 -104 c 0
 69 -96 139 11 146 15 c 0
231 55 m 0
 243 73 244 73 246 68 c 0
 247 64 248 58 248 51 c 0
 248 39 246 24 243 15 c 0
 230 -22 201 -50 162 -54 c 1
 162 -54 212 26 231 55 c 0
101 -17 m 1
 98 -7 97 3 97 12 c 0
 97 59 130 97 166 109 c 0
 178 113 183 113 183 111 c 1
 183 111 130 28 113 2 c 2
 101 -17 l 1
244 172 m 0
 248 178 252 179 258 179 c 0
 268 179 276 172 276 163 c 0
 276 158 267 142 244 106 c 0
 205 45 202 42 194 42 c 0
 193 42 193 42 192 42 c 0
 186 42 182 44 179 47 c 0
 176 50 175 52 175 56 c 0
 175 64 183 78 207 115 c 0
 225 142 241 168 244 172 c 0
337 219 m 2
 349 237 l 1
 352 227 353 217 353 208 c 0
 353 160 318 121 282 111 c 0
 276 109 268 108 268 109 c 0
 268 111 317 188 337 219 c 2
274 273 m 0
 287 277 289 276 289 275 c 0
 286 271 225 173 206 148 c 1
 206 149 204 155 203 162 c 0
 202 166 202 171 202 175 c 0
 202 216 234 262 274 273 c 0
355 340 m 0
 358 342 361 342 364 342 c 0
 373 342 382 335 382 325 c 0
 382 316 312 210 304 206 c 0
 302 205 299 204 297 204 c 0
 288 204 280 212 280 222 c 0
 280 229 348 336 355 340 c 0
384 437 m 0
 388 438 391 438 395 438 c 0
 413 438 431 430 443 418 c 0
 453 406 459 389 459 371 c 0
 459 353 453 334 443 318 c 0
 435 305 417 287 405 281 c 0
 396 277 381 272 376 272 c 0
 375 272 374 272 374 272 c 0
 374 272 374 272 374 273 c 0
 374 280 424 337 424 371 c 0
 424 391 414 403 399 403 c 0
 391 403 382 400 372 393 c 0
 363 387 356 377 323 326 c 0
 318 318 314 314 312 314 c 0
 310 314 309 319 308 330 c 0
 308 333 308 335 308 338 c 0
 308 381 343 429 384 437 c 0
EndSplineSet
EndChar

StartChar: ccaron
Encoding: 269 269 204
Width: 565
VWidth: 0
Flags: HW
LayerCount: 2
Back
Fore
SplineSet
164 180 m 0
 127 180 104 211 104 245 c 0
 104 269 114 295 134 316 c 0
 149 332 160 338 177 343 c 0
 184 345 189 346 190 346 c 1
 190 345 l 2
 190 343 184 333 167 307 c 0
 148 278 139 260 139 245 c 0
 139 226 150 215 167 215 c 0
 188 215 200 226 230 273 c 0
 241 290 251 305 252 305 c 0
 254 305 256 295 256 281 c 0
 256 278 256 275 256 272 c 0
 254 230 209 180 164 180 c 0
250 397 m 0
 252 398 255 399 257 399 c 0
 266 399 275 391 275 382 c 0
 275 380 274 377 273 375 c 0
 268 366 206 270 202 265 c 0
 199 262 195 261 191 261 c 0
 182 261 172 267 172 277 c 0
 172 284 243 394 250 397 c 0
322 416 m 0
 338 440 345 451 348 451 c 0
 351 451 351 444 352 434 c 0
 352 432 352 430 352 428 c 0
 352 395 331 356 302 339 c 0
 295 334 273 327 267 327 c 2
 266 327 l 1
 266 329 281 353 322 416 c 0
205 369 m 0
 203 371 202 383 202 396 c 0
 202 446 235 478 270 490 c 0
 282 494 287 495 287 493 c 0
 287 492 280 480 271 467 c 0
 262 454 252 437 248 431 c 0
 217 383 208 369 205 369 c 0
352 558 m 0
 362 565 380 558 380 547 c 0
 380 539 371 524 346 486 c 0
 328 458 310 432 308 429 c 0
 305 425 300 424 296 424 c 0
 287 424 278 431 278 440 c 0
 278 445 346 553 352 558 c 0
430 582 m 0
 444 604 451 614 454 614 c 0
 456 614 457 609 458 599 c 1
 458 591 l 2
 458 560 439 524 412 506 c 0
 401 499 382 490 375 490 c 2
 373 490 l 1
 373 493 387 516 430 582 c 0
311 533 m 0
 307 533 307 552 307 562 c 0
 309 609 345 647 381 655 c 0
 392 658 393 658 393 656 c 0
 393 655 386 643 377 630 c 0
 355 595 353 593 329 557 c 0
 317 539 313 533 311 533 c 0
459 721 m 0
 469 727 485 720 485 709 c 0
 485 701 477 686 451 647 c 0
 432 617 413 591 410 589 c 0
 407 587 404 586 401 586 c 0
 392 586 385 594 385 603 c 0
 385 606 385 609 387 612 c 0
 394 624 456 719 459 721 c 0
412 720 m 0
 412 767 450 820 502 820 c 0
 538 820 564 788 564 753 c 0
 564 722 547 689 518 669 c 0
 507 662 488 654 481 654 c 2
 479 654 l 1
 479 656 526 733 526 734 c 0
 528 740 529 745 529 751 c 0
 529 771 521 785 503 785 c 0
 491 785 478 779 468 768 c 0
 462 762 421 700 419 694 c 0
 415 685 412 711 412 720 c 0
EndSplineSet
EndChar

StartChar: Dcaron
Encoding: 270 270 205
Width: 565
VWidth: 0
Flags: HW
LayerCount: 2
Back
Fore
SplineSet
237 -48 m 1
 246 -39 l 1
 247 -86 l 2
 248 -130 248 -134 253 -144 c 0
 259 -156 270 -166 282 -166 c 0
 289 -166 296 -163 303 -156 c 0
 316 -143 318 -132 318 -82 c 0
 318 -57 319 -40 320 -40 c 0
 321 -40 326 -44 330 -49 c 0
 345 -68 353 -92 353 -115 c 0
 353 -148 338 -180 311 -195 c 0
 301 -201 296 -202 282 -202 c 0
 269 -202 263 -201 256 -197 c 0
 228 -182 212 -148 212 -114 c 0
 212 -90 220 -66 237 -48 c 1
265 33 m 1
 270 38 274 44 282 44 c 0
 290 44 295 38 300 33 c 1
 300 -104 l 1
 295 -109 290 -115 282 -115 c 0
 274 -115 270 -109 265 -104 c 1
 265 33 l 1
318 62 m 0
 318 107 319 137 320 137 c 0
 323 137 337 119 343 107 c 0
 350 93 354 78 354 62 c 0
 354 46 350 31 343 17 c 0
 337 5 323 -13 320 -13 c 0
 319 -13 318 17 318 62 c 0
237 129 m 1
 246 138 l 1
 247 100 l 1
 247 24 l 1
 246 -14 l 1
 238 -6 l 2
 221 11 212 37 212 62 c 0
 212 87 221 112 237 129 c 1
265 228 m 1
 270 233 274 238 282 238 c 0
 290 238 295 233 300 228 c 1
 300 182 300 136 300 90 c 1
 295 85 288 80 281 80 c 0
 277 80 274 81 270 85 c 2
 265 90 l 1
 265 136 265 182 265 228 c 1
318 256 m 0
 318 301 319 331 320 331 c 0
 323 331 337 313 343 301 c 0
 350 287 354 272 354 256 c 0
 354 240 350 225 343 211 c 0
 337 199 323 181 320 181 c 0
 319 181 318 211 318 256 c 0
237 323 m 1
 246 332 l 1
 247 294 l 1
 247 218 l 1
 246 180 l 1
 238 189 l 1
 221 206 212 231 212 256 c 0
 212 281 221 306 237 323 c 1
265 422 m 1
 270 427 274 433 282 433 c 0
 290 433 295 427 300 422 c 1
 300 285 l 1
 295 280 290 274 282 274 c 0
 274 274 270 280 265 285 c 1
 265 422 l 1
266 536 m 0
 270 537 278 538 286 538 c 0
 326 536 353 494 353 450 c 0
 353 435 350 419 343 405 c 0
 337 393 323 375 320 375 c 0
 319 375 318 393 318 418 c 0
 318 468 316 479 303 492 c 0
 296 499 290 502 283 502 c 0
 270 502 259 491 253 479 c 0
 248 469 248 466 247 422 c 2
 246 374 l 1
 238 383 l 1
 222 400 212 426 212 452 c 0
 212 463 214 474 217 484 c 0
 225 507 247 530 266 536 c 0
EndSplineSet
EndChar

StartChar: dcaron
Encoding: 271 271 206
Width: 565
VWidth: 0
Flags: HW
LayerCount: 2
Back
Fore
SplineSet
237 235 m 1
 246 244 l 1
 247 196 l 2
 248 152 248 149 253 139 c 0
 259 127 270 116 283 116 c 0
 290 116 296 119 303 126 c 0
 316 139 318 150 318 200 c 0
 318 225 319 243 320 243 c 0
 321 243 326 238 330 233 c 0
 345 214 353 190 353 167 c 0
 353 134 338 102 311 87 c 0
 301 81 296 81 282 81 c 0
 269 81 263 82 256 86 c 0
 228 101 212 135 212 169 c 0
 212 193 220 217 237 235 c 1
265 316 m 1
 270 321 274 327 282 327 c 0
 290 327 295 321 300 316 c 1
 300 179 l 1
 295 174 290 168 282 168 c 0
 274 168 270 174 265 179 c 1
 265 316 l 1
318 344 m 0
 318 389 319 419 320 419 c 0
 323 419 337 402 343 390 c 0
 350 376 354 360 354 344 c 0
 354 328 350 313 343 299 c 0
 337 287 323 269 320 269 c 0
 319 269 318 299 318 344 c 0
237 411 m 1
 246 420 l 1
 247 382 l 1
 247 306 l 1
 246 268 l 1
 238 277 l 1
 221 294 212 319 212 344 c 0
 212 369 221 394 237 411 c 1
265 510 m 1
 270 515 274 521 282 521 c 0
 290 521 295 515 300 510 c 1
 300 373 l 1
 295 368 290 362 282 362 c 0
 274 362 270 368 265 373 c 1
 265 510 l 1
318 539 m 0
 318 584 319 614 320 614 c 0
 323 614 337 596 343 584 c 0
 350 570 354 554 354 538 c 0
 354 522 350 507 343 493 c 0
 337 481 323 463 320 463 c 0
 319 463 318 494 318 539 c 0
237 605 m 1
 246 615 l 1
 247 577 l 1
 247 500 l 1
 246 462 l 1
 238 471 l 1
 221 488 212 513 212 538 c 0
 212 563 221 588 237 605 c 1
265 704 m 1
 270 709 274 715 282 715 c 0
 290 715 295 709 300 704 c 1
 300 567 l 1
 295 562 290 556 282 556 c 0
 274 556 270 562 265 567 c 1
 265 704 l 1
266 819 m 0
 270 820 278 820 286 820 c 0
 326 818 353 776 353 732 c 0
 353 717 350 701 343 687 c 0
 337 675 323 658 320 658 c 0
 319 658 318 675 318 700 c 0
 318 750 316 761 303 774 c 0
 296 781 289 784 282 784 c 0
 270 784 259 774 253 762 c 0
 248 752 248 748 247 704 c 2
 246 657 l 1
 238 665 l 2
 222 682 212 708 212 735 c 0
 212 746 214 757 217 767 c 0
 225 790 247 813 266 819 c 0
EndSplineSet
EndChar

StartChar: Dcroat
Encoding: 272 272 207
Width: 565
VWidth: 0
Flags: HW
LayerCount: 2
Back
Fore
SplineSet
225 254 m 0
 225 255 255 256 300 256 c 0
 321 256 337 256 348 256 c 0
 370 256 374 256 374 254 c 0
 374 254 373 253 373 252 c 0
 372 250 366 244 361 240 c 0
 343 227 322 220 300 220 c 0
 285 220 269 224 255 231 c 0
 243 237 225 251 225 254 c 0
318 291 m 0
 318 299 324 304 329 309 c 1
 466 309 l 1
 471 304 477 299 477 291 c 0
 477 283 471 279 466 274 c 1
 329 274 l 1
 324 279 318 283 318 291 c 0
124 291 m 0
 124 299 129 304 134 309 c 1
 180 309 226 309 272 309 c 1
 277 304 282 297 282 290 c 0
 282 286 281 283 277 279 c 2
 272 274 l 1
 226 274 180 274 134 274 c 1
 129 279 124 283 124 291 c 0
430 351 m 0
 444 358 460 362 476 362 c 0
 520 362 564 337 564 291 c 0
 564 278 563 272 559 265 c 0
 545 237 510 220 476 220 c 0
 460 220 445 224 431 231 c 0
 419 237 402 251 402 254 c 0
 402 255 419 256 444 256 c 0
 494 256 505 258 519 271 c 0
 527 278 530 285 530 292 c 0
 530 299 527 305 519 312 c 0
 505 325 494 327 444 327 c 0
 419 327 402 328 402 329 c 0
 402 332 419 345 430 351 c 0
254 351 m 0
 267 358 284 362 301 362 c 0
 316 362 331 359 345 352 c 0
 356 347 375 333 375 329 c 0
 375 328 344 327 300 327 c 0
 255 327 225 328 225 329 c 0
 225 332 243 345 254 351 c 0
19 291 m 0
 19 336 60 362 105 362 c 0
 120 362 136 359 151 352 c 0
 162 347 181 333 181 329 c 0
 181 328 162 327 138 327 c 0
 88 327 77 325 64 312 c 0
 57 305 54 299 54 292 c 0
 54 279 65 268 77 262 c 0
 87 257 91 257 135 256 c 2
 182 255 l 1
 173 246 l 2
 156 229 131 221 106 221 c 0
 63 221 19 245 19 291 c 0
EndSplineSet
EndChar

StartChar: dcroat
Encoding: 273 273 208
Width: 565
VWidth: 0
Flags: HW
LayerCount: 2
Back
Fore
SplineSet
207 254 m 0
 207 255 238 256 283 256 c 0
 304 256 319 256 330 256 c 0
 351 256 356 256 356 254 c 0
 356 253 355 253 355 252 c 0
 354 250 349 244 344 240 c 0
 326 227 304 220 282 220 c 0
 266 220 251 224 237 231 c 0
 225 237 207 251 207 254 c 0
300 291 m 0
 300 299 306 304 311 309 c 1
 448 309 l 1
 453 304 459 299 459 291 c 0
 459 283 453 279 448 274 c 1
 311 274 l 1
 306 279 300 283 300 291 c 0
106 291 m 0
 106 299 112 304 117 309 c 1
 254 309 l 1
 259 304 265 297 265 290 c 0
 265 286 264 283 260 279 c 1
 254 274 l 1
 117 274 l 1
 112 279 106 283 106 291 c 0
412 351 m 0
 426 358 442 362 458 362 c 0
 502 362 546 337 546 291 c 0
 546 278 545 272 541 265 c 0
 527 237 493 220 459 220 c 0
 444 220 428 224 414 231 c 0
 402 237 384 251 384 254 c 0
 384 255 402 256 427 256 c 0
 477 256 487 258 501 271 c 0
 509 278 512 285 512 292 c 0
 512 299 509 305 501 312 c 0
 487 325 477 327 427 327 c 0
 402 327 384 328 384 329 c 0
 384 332 401 345 412 351 c 0
236 351 m 0
 249 358 266 362 283 362 c 0
 298 362 314 359 328 352 c 0
 339 347 358 333 358 329 c 0
 358 328 326 327 282 327 c 0
 237 327 207 328 207 329 c 0
 207 332 225 345 236 351 c 0
1 291 m 0
 1 336 43 362 88 362 c 0
 104 362 119 359 134 352 c 0
 145 347 163 333 163 329 c 0
 163 328 145 327 121 327 c 0
 71 327 60 325 47 312 c 0
 40 305 37 298 37 291 c 0
 37 279 47 268 59 262 c 0
 69 257 73 257 117 256 c 2
 164 255 l 1
 155 246 l 2
 138 229 113 221 88 221 c 0
 45 221 1 245 1 291 c 0
EndSplineSet
EndChar

StartChar: Emacron
Encoding: 274 274 209
Width: 565
VWidth: 0
Flags: HW
LayerCount: 2
Back
Fore
SplineSet
367 507 m 0
 373 508 378 509 384 509 c 0
 425 509 464 472 464 431 c 0
 464 398 451 373 413 335 c 0
 387 309 362 291 329 273 c 0
 297 256 250 240 233 240 c 0
 230 240 229 240 228 241 c 0
 227 241 l 0
 223 241 214 233 183 202 c 2
 142 161 l 1
 142 142 l 2
 142 120 137 109 128 107 c 0
 127 107 126 107 125 107 c 0
 116 107 109 117 107 136 c 1
 105 149 l 1
 93 151 l 1
 80 152 66 158 63 164 c 0
 60 170 64 179 72 183 c 0
 76 185 86 187 98 187 c 2
 118 187 l 1
 159 228 l 2
 189 258 197 267 197 271 c 0
 197 276 194 277 199 295 c 0
 221 390 301 490 367 507 c 0
EndSplineSet
EndChar

StartChar: emacron
Encoding: 275 275 210
Width: 565
VWidth: 0
Flags: HW
LayerCount: 2
Back
Fore
SplineSet
35 646 m 1
 35 669 35 692 35 715 c 1
 200 715 365 715 530 715 c 1
 530 692 530 669 530 646 c 1
 518 634 506 622 494 610 c 1
 494 540 l 1
 482 528 471 516 459 504 c 1
 459 434 l 1
 447 422 436 410 424 398 c 1
 424 328 l 1
 412 316 400 304 388 292 c 1
 388 221 l 1
 177 221 l 1
 177 292 l 1
 165 304 153 316 141 328 c 1
 141 398 l 1
 129 410 118 422 106 434 c 1
 106 504 l 1
 94 516 83 528 71 540 c 1
 71 610 l 1
 59 622 47 634 35 646 c 1
458 609 m 1
 493 644 l 1
 72 644 l 1
 107 609 l 1
 224 609 341 609 458 609 c 1
423 503 m 1
 435 515 446 527 458 539 c 1
 341 539 224 539 107 539 c 1
 119 527 130 515 142 503 c 1
 423 503 l 1
387 397 m 1
 399 409 411 421 423 433 c 1
 142 433 l 1
 154 421 166 409 178 397 c 1
 387 397 l 1
352 291 m 1
 364 303 375 315 387 327 c 1
 178 327 l 1
 190 315 201 303 213 291 c 1
 352 291 l 1
EndSplineSet
EndChar

StartChar: Ebreve
Encoding: 276 276 211
Width: 565
VWidth: 0
Flags: HW
LayerCount: 2
Back
Fore
SplineSet
35 397 m 1
 35 503 l 1
 200 503 365 503 530 503 c 1
 530 397 l 1
 518 397 506 397 494 397 c 1
 494 185 l 1
 506 185 518 185 530 185 c 1
 530 79 l 1
 365 79 200 79 35 79 c 1
 35 185 l 1
 47 185 59 185 71 185 c 1
 71 397 l 1
 59 397 47 397 35 397 c 1
459 185 m 1
 459 397 l 1
 106 397 l 1
 106 185 l 1
 459 185 l 1
EndSplineSet
EndChar

StartChar: ebreve
Encoding: 277 277 212
Width: 565
VWidth: 0
Flags: HW
LayerCount: 2
Back
Fore
SplineSet
177 292 m 1
 177 362 l 1
 388 362 l 1
 388 292 l 1
 400 280 412 269 424 257 c 1
 424 187 l 1
 436 175 447 163 459 151 c 1
 459 81 l 1
 471 69 482 57 494 45 c 1
 494 -25 l 1
 506 -37 518 -49 530 -61 c 1
 530 -132 l 1
 365 -132 200 -132 35 -132 c 1
 35 -61 l 1
 47 -49 59 -37 71 -25 c 1
 71 45 l 1
 83 57 94 69 106 81 c 1
 106 151 l 1
 118 163 129 175 141 187 c 1
 141 257 l 1
 153 269 165 280 177 292 c 1
390 256 m 1
 378 268 366 279 354 291 c 1
 211 291 l 1
 199 279 187 268 175 256 c 1
 390 256 l 1
425 150 m 1
 390 185 l 1
 175 185 l 1
 140 150 l 1
 235 150 330 150 425 150 c 1
460 44 m 1
 425 79 l 1
 330 79 235 79 140 79 c 1
 105 44 l 1
 460 44 l 1
495 -62 m 1
 483 -50 472 -38 460 -26 c 1
 105 -26 l 1
 93 -38 82 -50 70 -62 c 1
 495 -62 l 1
EndSplineSet
EndChar

StartChar: Edotaccent
Encoding: 278 278 213
Width: 565
VWidth: 0
Flags: HW
LayerCount: 2
Back
Fore
SplineSet
258 599 m 0
 262 603 275 609 281 609 c 0
 287 609 302 603 307 599 c 0
 317 590 318 583 318 542 c 2
 318 503 l 1
 301 503 l 2
 292 503 285 504 285 505 c 0
 285 512 295 534 302 541 c 0
 306 546 309 549 309 551 c 0
 309 555 300 556 281 556 c 0
 263 556 256 556 256 553 c 0
 256 551 259 548 263 544 c 0
 272 536 278 518 280 503 c 1
 269 503 258 503 247 503 c 1
 247 542 l 2
 247 583 248 590 258 599 c 0
426 75 m 0
 411 75 387 79 378 81 c 1
 378 80 l 2
 378 70 391 7 396 -4 c 0
 399 -12 402 -20 402 -22 c 0
 402 -29 394 -32 373 -32 c 0
 348 -32 346 -31 346 -8 c 0
 346 7 345 13 336 39 c 0
 330 55 327 64 327 68 c 0
 327 69 328 70 328 70 c 1
 332 71 332 77 326 94 c 0
 322 105 318 111 312 115 c 0
 300 123 274 151 265 164 c 0
 261 171 257 176 256 176 c 0
 255 176 246 163 234 147 c 0
 211 115 193 84 193 76 c 0
 193 75 194 74 194 74 c 2
 196 72 195 65 190 49 c 0
 183 26 177 0 177 -12 c 0
 177 -19 176 -19 155 -27 c 0
 146 -30 126 -39 113 -39 c 0
 106 -39 102 -37 102 -29 c 0
 102 -27 109 -18 119 -9 c 0
 129 0 138 11 139 14 c 0
 140 18 141 37 141 58 c 0
 141 90 141 94 144 94 c 2
 146 94 l 1
 150 93 151 96 156 120 c 0
 161 148 174 184 201 247 c 2
 216 282 l 1
 214 319 l 2
 212 350 208 377 204 384 c 0
 203 385 199 382 193 377 c 0
 184 369 163 360 155 360 c 0
 153 360 149 359 146 358 c 0
 141 357 142 356 141 306 c 2
 140 255 l 1
 132 228 l 2
 115 171 103 150 88 150 c 0
 69 150 59 176 44 228 c 2
 36 255 l 1
 36 397 l 1
 35 539 l 1
 141 539 l 1
 141 406 l 1
 149 408 181 420 181 431 c 0
 181 434 180 439 179 446 c 0
 178 453 177 473 177 492 c 2
 177 526 l 1
 187 517 l 2
 208 498 244 486 281 486 c 0
 306 486 357 494 384 502 c 0
 387 503 386 498 378 474 c 0
 373 458 369 443 369 441 c 0
 369 439 371 433 373 430 c 0
 381 420 388 401 395 375 c 0
 401 353 403 349 410 343 c 0
 420 334 429 331 448 331 c 0
 463 331 465 332 461 340 c 0
 459 343 457 344 451 344 c 0
 444 344 441 346 434 353 c 2
 425 362 l 1
 459 362 l 1
 459 595 l 1
 467 619 l 2
 472 632 476 642 477 642 c 0
 478 642 481 632 486 619 c 2
 494 595 l 1
 494 362 l 1
 528 362 l 1
 520 353 l 2
 513 346 510 344 503 344 c 0
 495 344 494 343 491 336 c 0
 488 329 488 328 492 323 c 0
 496 318 498 311 498 306 c 0
 498 300 495 295 490 293 c 0
 482 290 491 272 494 265 c 1
 486 246 l 2
 482 236 478 227 477 227 c 0
 476 227 471 236 467 246 c 2
 459 265 l 1
 463 273 474 291 461 291 c 0
 449 291 412 303 395 311 c 0
 380 318 377 320 368 334 c 0
 360 346 356 352 354 352 c 0
 353 352 353 350 353 348 c 0
 353 346 354 343 354 339 c 0
 359 287 390 225 469 115 c 0
 486 92 491 83 491 80 c 0
 491 79 490 78 489 78 c 0
 486 77 469 77 450 76 c 0
 440 76 433 75 426 75 c 0
EndSplineSet
EndChar

StartChar: edotaccent
Encoding: 279 279 214
Width: 565
VWidth: 0
Flags: HW
LayerCount: 2
Back
Fore
SplineSet
251 355 m 0
 239 347 233 371 247 371 c 0
 256 371 259 360 251 355 c 0
322 425 m 0
 310 417 304 441 318 441 c 0
 327 441 330 430 322 425 c 0
121 633 m 0
 131 639 141 644 141 644 c 1
 141 642 134 625 127 611 c 0
 124 604 113 582 102 562 c 0
 73 510 62 486 62 467 c 0
 62 459 64 452 67 445 c 0
 76 426 98 411 139 397 c 0
 151 393 159 390 163 390 c 0
 169 390 169 394 171 403 c 0
 173 415 173 416 169 419 c 0
 149 433 139 448 139 464 c 0
 139 480 148 497 167 514 c 0
 179 525 216 547 223 547 c 2
 224 547 l 1
 224 540 183 489 183 462 c 0
 183 447 186 447 197 462 c 0
 219 492 252 509 288 509 c 0
 314 509 342 500 367 480 c 0
 373 476 379 472 380 472 c 0
 383 472 388 488 388 497 c 0
 388 517 372 533 323 567 c 0
 277 599 257 619 247 644 c 1
 260 640 l 1
 305 624 358 593 390 562 c 0
 413 539 424 517 424 497 c 0
 424 483 419 471 408 459 c 2
 401 451 l 1
 410 437 l 2
 417 425 419 415 424 415 c 0
 427 415 432 419 442 429 c 0
 458 445 463 456 463 477 c 2
 463 488 l 1
 460 538 418 611 418 618 c 1
 422 618 450 594 466 578 c 0
 502 542 523 499 523 458 c 0
 523 416 501 374 451 342 c 0
 430 328 429 337 429 304 c 0
 429 295 430 287 431 286 c 1
 433 286 l 2
 440 286 462 292 474 297 c 0
 486 302 536 337 543 337 c 2
 544 337 l 1
 545 336 542 327 537 318 c 0
 526 296 496 265 464 244 c 0
 451 236 441 228 441 227 c 0
 441 213 449 206 464 195 c 0
 514 158 545 119 558 80 c 0
 561 69 563 58 563 49 c 0
 563 9 535 -17 500 -25 c 0
 494 -26 494 -26 496 -21 c 0
 499 -14 503 -8 518 13 c 0
 525 24 531 32 531 40 c 0
 531 60 502 79 430 106 c 2
 412 113 l 1
 401 103 l 1
 363 71 312 48 282 48 c 0
 261 48 241 58 226 68 c 1
 215 61 l 2
 189 45 176 27 176 7 c 0
 176 -8 183 -26 198 -45 c 0
 204 -53 209 -61 209 -61 c 1
 209 -61 202 -59 194 -55 c 0
 166 -42 140 -12 140 27 c 0
 140 57 153 81 170 101 c 1
 182 113 l 1
 146 107 105 95 90 83 c 0
 77 73 70 63 70 50 c 0
 70 36 78 19 93 -6 c 1
 106 -26 l 1
 93 -22 l 1
 54 -8 33 19 33 52 c 0
 33 61 34 72 38 82 c 0
 48 111 67 137 94 156 c 0
 118 173 151 185 173 185 c 0
 183 185 191 193 184 201 c 0
 177 209 163 213 135 218 c 0
 96 225 76 234 49 261 c 0
 32 278 13 303 4 320 c 0
 1 325 2 324 11 317 c 0
 60 278 98 261 164 252 c 0
 203 246 212 242 221 224 c 0
 224 217 225 217 234 219 c 0
 239 220 245 221 251 221 c 0
 286 221 328 203 346 190 c 0
 354 185 356 186 354 198 c 0
 351 217 330 232 270 256 c 0
 239 269 220 278 208 286 c 0
 204 289 192 294 182 296 c 0
 97 318 18 385 4 450 c 0
 3 457 2 465 2 473 c 0
 2 489 4 507 9 518 c 0
 26 560 63 598 121 633 c 0
353 434 m 0
 353 451 339 468 318 468 c 0
 298 468 283 450 283 432 c 0
 283 414 299 398 318 398 c 0
 337 398 353 415 353 434 c 0
283 362 m 0
 283 379 268 397 247 397 c 0
 227 397 212 380 212 362 c 0
 212 344 230 326 248 326 c 0
 266 326 283 344 283 362 c 0
312 325 m 0
 312 293 326 287 366 287 c 0
 384 287 393 294 393 310 c 0
 393 343 384 364 353 364 c 0
 343 364 333 362 325 358 c 0
 316 353 312 339 312 325 c 0
EndSplineSet
EndChar

StartChar: Eogonek
Encoding: 280 280 215
Width: 565
VWidth: 0
Flags: HW
LayerCount: 2
Back
Fore
SplineSet
141 697 m 0
 141 707 149 715 159 715 c 0
 174 715 366 510 376 510 c 0
 386 510 389 503 389 498 c 0
 389 486 494 396 494 380 c 0
 494 370 486 362 476 362 c 0
 470 362 464 367 413 418 c 2
 356 475 l 1
 349 465 l 2
 345 460 339 450 335 443 c 0
 318 413 308 402 289 399 c 0
 287 399 284 398 281 398 c 0
 267 398 246 402 234 408 c 0
 226 412 220 414 220 414 c 1
 220 414 216 400 213 383 c 0
 210 365 208 353 208 344 c 0
 208 330 213 325 223 318 c 0
 231 312 242 309 256 309 c 0
 270 309 289 312 313 318 c 0
 332 323 349 327 365 327 c 0
 376 327 386 325 397 321 c 0
 406 318 419 313 425 309 c 2
 437 302 l 1
 445 308 452 312 465 318 c 0
 476 323 485 325 494 325 c 0
 524 325 546 298 557 246 c 0
 561 225 565 186 565 165 c 2
 565 150 l 1
 530 150 l 1
 529 188 l 2
 528 228 524 250 515 270 c 0
 506 289 493 300 481 300 c 0
 475 300 468 297 463 291 c 2
 457 285 l 1
 470 265 l 2
 485 243 492 223 492 203 c 0
 492 188 488 172 479 155 c 2
 472 141 l 1
 491 103 496 90 496 44 c 0
 496 32 495 19 495 2 c 2
 494 -62 l 1
 459 -62 l 1
 459 -27 458 8 458 43 c 1
 449 49 l 2
 444 53 432 64 422 74 c 0
 401 94 394 105 390 128 c 0
 388 142 388 149 378 149 c 0
 375 149 370 148 365 147 c 0
 352 144 348 144 348 138 c 0
 348 135 349 130 350 122 c 0
 355 86 368 68 405 44 c 2
 423 32 l 1
 423 1 424 -31 424 -62 c 1
 389 -62 l 1
 389 -26 l 2
 389 16 389 16 366 34 c 0
 330 61 319 82 318 123 c 1
 317 141 l 1
 300 142 l 2
 291 143 273 146 262 149 c 0
 248 153 240 154 234 154 c 0
 228 154 226 153 222 149 c 0
 217 144 214 137 214 120 c 0
 214 115 215 109 215 101 c 0
 216 77 217 71 225 50 c 0
 239 14 247 -21 247 -43 c 2
 247 -62 l 1
 212 -62 l 1
 212 -43 l 2
 212 -15 203 15 180 61 c 0
 170 82 157 104 152 111 c 2
 142 124 l 1
 142 62 141 0 141 -62 c 1
 106 -62 l 1
 106 -44 l 2
 106 -34 107 -16 108 -4 c 0
 109 4 109 12 109 19 c 0
 109 43 104 61 88 87 c 0
 77 106 70 134 70 163 c 0
 70 180 72 197 77 213 c 0
 79 219 80 223 80 227 c 0
 80 231 79 236 77 245 c 0
 75 256 72 283 71 310 c 0
 69 348 67 360 63 375 c 0
 59 388 59 394 55 394 c 0
 53 394 50 392 45 388 c 1
 35 379 l 1
 35 338 35 297 35 256 c 1
 0 256 l 1
 0 399 l 1
 13 438 l 2
 32 494 36 499 66 504 c 0
 100 510 104 513 107 525 c 0
 109 533 104 536 91 536 c 0
 77 536 75 539 75 553 c 0
 75 570 91 593 109 602 c 0
 115 605 122 606 129 606 c 0
 144 606 162 600 171 591 c 0
 175 587 178 582 178 576 c 0
 178 568 174 559 166 543 c 0
 159 530 155 517 155 514 c 0
 156 508 161 506 186 503 c 0
 214 500 226 491 250 459 c 0
 260 446 268 439 272 437 c 0
 279 434 279 435 291 454 c 0
 296 461 308 474 317 482 c 2
 334 497 l 1
 237 594 l 2
 149 682 141 690 141 697 c 0
EndSplineSet
EndChar

StartChar: eogonek
Encoding: 281 281 216
Width: 565
VWidth: 0
Flags: HW
LayerCount: 2
Back
Fore
SplineSet
383 123 m 1
 370 119 351 117 322 117 c 0
 303 117 284 118 273 120 c 0
 265 122 265 122 259 112 c 0
 250 96 245 79 245 62 c 0
 245 14 285 -28 336 -28 c 0
 360 -28 385 -19 407 -1 c 0
 414 4 419 9 420 9 c 0
 422 9 420 -4 416 -16 c 0
 405 -50 363 -68 318 -68 c 0
 248 -68 177 -27 150 22 c 0
 146 30 142 35 141 35 c 0
 140 35 133 32 126 29 c 0
 111 21 92 15 82 15 c 0
 78 15 75 15 75 14 c 0
 75 13 81 4 90 -7 c 0
 104 -25 106 -28 106 -38 c 0
 106 -56 85 -68 78 -83 c 1
 70 -97 l 1
 54 -97 l 2
 37 -97 35 -98 33 -107 c 0
 31 -116 25 -94 25 -92 c 0
 25 -84 30 -78 40 -75 c 0
 50 -72 64 -57 69 -46 c 0
 72 -39 72 -37 70 -36 c 0
 37 -24 33 -21 33 2 c 0
 33 56 58 98 117 142 c 2
 134 155 l 1
 146 190 l 1
 166 252 170 268 171 286 c 2
 173 304 l 1
 162 315 l 2
 156 321 147 334 142 343 c 0
 137 352 132 360 131 360 c 0
 127 360 110 345 101 334 c 0
 89 320 71 281 60 248 c 0
 47 210 29 135 19 87 c 1
 9 159 4 227 4 306 c 0
 4 368 4 381 7 398 c 0
 22 471 53 520 95 535 c 0
 103 537 114 539 124 539 c 0
 134 539 143 537 149 535 c 0
 157 531 157 530 153 529 c 0
 146 526 143 519 142 498 c 1
 142 488 l 2
 142 464 145 435 150 418 c 0
 155 404 164 391 167 394 c 0
 168 395 171 405 174 416 c 0
 179 438 188 456 196 462 c 0
 199 464 208 467 215 468 c 0
 230 470 233 472 241 487 c 0
 245 495 248 502 248 509 c 0
 248 514 246 518 244 521 c 0
 238 530 195 574 187 582 c 0
 176 594 166 599 143 604 c 0
 133 606 122 608 119 609 c 0
 115 611 113 611 109 607 c 0
 99 597 102 606 104 619 c 0
 105 627 105 635 105 639 c 2
 105 646 l 1
 132 646 l 1
 166 647 170 648 170 654 c 0
 170 675 180 679 202 679 c 2
 213 679 l 1
 219 689 l 2
 229 705 241 715 262 715 c 0
 280 715 285 710 293 698 c 0
 305 681 308 680 325 680 c 0
 344 680 356 685 375 703 c 0
 383 710 388 715 388 714 c 0
 388 713 386 704 383 695 c 0
 372 661 352 644 322 644 c 2
 307 644 l 1
 289 661 l 2
 275 674 268 680 262 680 c 0
 260 680 258 679 257 678 c 0
 250 672 251 667 263 656 c 0
 278 641 297 614 313 600 c 0
 336 582 355 555 367 525 c 0
 372 512 376 506 382 501 c 0
 393 492 405 468 408 448 c 2
 411 432 l 1
 423 447 429 476 429 514 c 0
 429 555 422 596 409 601 c 0
 406 602 406 604 412 607 c 0
 416 609 423 611 431 611 c 0
 482 611 515 580 535 540 c 0
 555 499 563 458 563 390 c 0
 563 273 540 150 508 89 c 1
 504 81 l 1
 501 117 l 1
 494 215 475 288 447 328 c 0
 432 349 416 360 400 360 c 2
 391 360 l 1
 391 348 l 2
 391 310 375 256 352 222 c 0
 349 217 347 213 348 212 c 0
 349 211 362 206 376 200 c 0
 404 188 434 171 446 160 c 0
 455 152 459 142 459 131 c 0
 459 117 455 110 438 99 c 0
 429 93 418 87 418 80 c 0
 418 78 419 75 422 73 c 0
 427 69 442 61 477 44 c 0
 485 40 493 38 496 38 c 0
 504 38 512 28 512 19 c 0
 512 13 510 10 505 6 c 0
 497 -1 494 -2 494 4 c 0
 494 10 489 12 474 10 c 0
 461 8 461 8 451 15 c 0
 438 25 413 33 381 41 c 2
 355 47 l 1
 355 56 l 2
 355 63 358 69 364 78 c 0
 371 88 383 117 383 122 c 2
 383 123 l 1
304 571 m 0
 295 585 259 625 256 625 c 1
 256 624 265 605 276 584 c 0
 296 544 309 509 314 482 c 0
 316 472 317 451 317 423 c 0
 317 382 316 376 310 356 c 0
 304 333 287 296 276 279 c 0
 272 273 256 254 241 234 c 0
 205 188 192 166 184 142 c 0
 178 124 178 120 178 93 c 0
 178 72 179 59 182 49 c 0
 194 4 224 -28 269 -41 c 1
 281 -44 l 1
 271 -36 l 1
 223 4 212 24 212 78 c 0
 212 83 212 88 212 93 c 0
 214 141 221 155 266 209 c 0
 307 258 325 286 338 326 c 0
 349 358 351 378 351 412 c 0
 351 474 336 523 304 571 c 0
EndSplineSet
EndChar

StartChar: Ecaron
Encoding: 282 282 217
Width: 565
VWidth: 0
Flags: HW
LayerCount: 2
Back
Fore
SplineSet
208 534 m 0
 215 535 223 535 230 535 c 0
 265 535 303 525 315 504 c 0
 321 494 321 491 321 470 c 0
 321 457 320 438 319 426 c 0
 318 419 318 414 318 410 c 0
 318 397 323 397 341 397 c 0
 407 397 458 369 458 325 c 0
 458 320 458 314 456 308 c 0
 451 292 441 280 419 268 c 0
 398 256 391 249 391 239 c 0
 391 220 403 211 437 192 c 0
 474 171 492 140 492 96 c 0
 492 74 488 60 477 43 c 0
 448 -2 394 -30 330 -30 c 0
 311 -30 290 -28 269 -22 c 0
 219 -9 189 16 156 71 c 0
 135 106 125 115 112 115 c 0
 92 115 71 99 71 81 c 0
 71 65 84 43 107 19 c 0
 115 11 120 4 119 4 c 0
 112 4 80 17 69 24 c 0
 46 39 36 54 36 79 c 0
 36 120 76 154 120 154 c 0
 125 154 130 154 135 153 c 0
 163 148 182 133 209 97 c 0
 236 61 251 49 269 49 c 0
 270 49 272 49 273 49 c 0
 292 51 311 64 316 77 c 0
 317 80 318 83 318 87 c 0
 318 102 307 121 287 140 c 0
 265 161 242 176 190 203 c 0
 114 243 93 256 70 279 c 0
 53 296 43 315 43 333 c 0
 43 346 48 359 60 371 c 0
 77 388 110 399 146 399 c 0
 167 399 173 402 178 414 c 0
 180 419 181 426 181 433 c 0
 181 442 179 451 176 457 c 0
 170 468 160 473 148 473 c 0
 132 473 112 464 89 447 c 0
 82 442 75 437 74 437 c 0
 73 437 73 437 73 438 c 0
 73 443 89 464 104 479 c 0
 134 509 171 529 208 534 c 0
236 465 m 0
 229 469 213 469 211 466 c 0
 210 465 210 464 210 462 c 0
 210 451 222 434 232 432 c 0
 244 430 247 432 247 443 c 0
 247 455 244 461 236 465 c 0
319 464 m 0
 317 470 300 469 291 463 c 0
 284 458 284 458 284 445 c 0
 284 433 284 432 288 431 c 0
 289 431 289 431 290 431 c 0
 299 431 309 437 315 449 c 0
 318 456 320 462 319 464 c 0
366 361 m 0
 365 362 355 363 344 363 c 0
 342 363 340 363 338 363 c 0
 302 363 281 354 271 334 c 0
 266 323 265 317 261 329 c 0
 257 341 247 352 237 357 c 0
 229 361 224 362 198 362 c 0
 170 362 162 362 162 356 c 0
 162 353 164 350 166 345 c 0
 172 334 178 330 202 324 c 0
 236 316 249 299 267 273 c 1
 272 286 l 1
 284 312 299 323 331 329 c 0
 338 330 346 334 350 336 c 0
 357 340 369 358 366 361 c 0
126 604 m 0
 126 609 127 611 127 611 c 0
 129 611 134 570 136 568 c 0
 138 566 139 560 139 556 c 0
 139 547 132 541 125 541 c 0
 121 541 117 543 114 546 c 0
 107 553 106 559 112 569 c 0
 122 588 126 596 126 604 c 0
397 608 m 0
 397 612 397 616 398 616 c 0
 399 616 402 610 405 604 c 0
 413 588 421 579 439 565 c 0
 458 550 464 542 464 528 c 0
 464 512 459 505 435 486 c 0
 427 480 430 473 444 464 c 0
 458 454 461 450 457 441 c 0
 454 433 449 430 440 430 c 0
 435 430 431 433 421 444 c 0
 405 462 395 478 395 486 c 0
 395 491 398 494 408 502 c 0
 420 511 429 524 429 532 c 0
 429 536 425 542 418 550 c 0
 402 568 397 581 397 602 c 0
 397 604 397 606 397 608 c 0
34 544 m 0
 34 549 34 553 34 557 c 0
 34 593 42 603 63 620 c 1
 63 620 63 615 62 609 c 0
 60 602 60 595 60 588 c 0
 60 577 62 565 66 550 c 0
 70 537 72 527 72 520 c 0
 72 512 70 507 65 503 c 0
 59 498 55 497 47 501 c 0
 38 505 36 513 34 544 c 0
262 664 m 0
 266 668 271 671 271 671 c 1
 271 665 270 660 270 656 c 0
 270 650 271 645 277 639 c 0
 283 632 285 629 284 625 c 0
 282 615 272 609 263 609 c 0
 258 609 253 611 250 614 c 0
 246 618 245 622 245 631 c 0
 245 644 250 654 262 664 c 0
339 570 m 0
 325 570 322 575 322 588 c 0
 322 592 323 597 323 603 c 0
 323 607 324 611 324 614 c 0
 324 621 323 626 320 637 c 0
 318 645 317 651 317 657 c 0
 317 669 321 678 327 689 c 1
 331 674 l 2
 333 666 339 651 344 641 c 0
 352 625 352 623 352 604 c 0
 352 580 349 571 339 570 c 0
206 720 m 0
 210 725 209 721 209 716 c 0
 209 707 205 701 191 688 c 2
 176 674 l 1
 175 660 l 2
 175 658 175 656 175 654 c 0
 175 642 178 639 191 632 c 0
 204 625 210 613 210 596 c 0
 210 590 209 585 208 578 c 0
 207 572 206 572 201 572 c 0
 188 572 182 581 180 609 c 0
 180 616 178 618 165 628 c 0
 149 640 144 646 144 655 c 0
 144 673 154 682 180 700 c 0
 193 709 205 718 206 720 c 0
EndSplineSet
EndChar

StartChar: ecaron
Encoding: 283 283 218
Width: 565
VWidth: 0
Flags: HW
LayerCount: 2
Back
Fore
SplineSet
173 17 m 0
 173 -2 175 -14 177 -26 c 1
 141 -26 106 -25 70 -25 c 1
 67 -14 l 2
 65 -7 64 -1 64 4 c 0
 64 29 83 41 110 43 c 1
 124 45 l 1
 124 57 l 2
 124 64 120 84 116 102 c 0
 111 123 107 150 107 175 c 0
 107 196 110 215 119 226 c 0
 131 241 159 251 199 255 c 2
 212 256 l 1
 212 291 l 1
 197 292 l 1
 137 298 122 330 109 392 c 0
 108 395 105 397 102 397 c 0
 95 397 84 390 79 381 c 0
 75 375 75 370 75 351 c 2
 75 327 l 1
 86 326 l 2
 102 324 110 318 110 305 c 0
 110 301 109 297 108 292 c 0
 104 278 103 286 90 286 c 0
 70 286 46 240 46 210 c 0
 46 205 47 202 48 198 c 0
 51 189 64 177 73 175 c 0
 77 174 79 173 79 172 c 0
 79 169 56 150 52 150 c 0
 15 150 0 196 0 239 c 0
 0 244 1 250 1 255 c 0
 5 297 13 316 34 328 c 0
 38 330 38 332 26 352 c 0
 13 376 6 393 6 411 c 0
 6 424 9 438 17 454 c 0
 24 469 26 476 27 488 c 0
 29 515 48 546 75 566 c 0
 81 571 87 573 92 573 c 0
 100 573 106 567 114 560 c 2
 125 550 l 1
 133 566 l 2
 153 607 182 632 218 641 c 0
 226 643 237 644 247 644 c 0
 257 644 268 643 276 641 c 0
 316 632 348 599 368 551 c 0
 371 543 374 536 375 536 c 0
 376 536 379 540 382 546 c 0
 390 561 400 572 408 572 c 0
 413 572 418 568 434 552 c 0
 456 530 474 504 489 474 c 0
 502 446 525 424 525 392 c 0
 525 371 519 356 505 339 c 0
 497 329 497 331 506 326 c 0
 513 321 524 301 528 283 c 0
 531 269 533 256 533 244 c 0
 533 214 522 190 495 164 c 0
 480 149 477 146 472 146 c 0
 468 146 463 148 452 148 c 2
 444 148 l 1
 451 162 l 1
 460 179 465 200 465 219 c 0
 465 257 447 291 408 291 c 0
 406 291 405 291 403 291 c 1
 388 289 l 1
 389 300 l 2
 392 322 401 327 431 328 c 0
 444 329 454 331 455 332 c 0
 459 339 457 346 445 357 c 0
 428 373 423 387 423 411 c 0
 423 422 422 430 422 430 c 1
 420 430 388 407 387 405 c 0
 387 404 384 392 382 379 c 0
 375 339 359 314 335 302 c 0
 323 296 303 291 290 291 c 2
 282 291 l 1
 282 257 l 1
 305 254 l 2
 339 250 346 245 355 214 c 0
 362 192 364 186 383 154 c 0
 409 110 421 79 421 55 c 0
 421 44 424 39 439 23 c 0
 452 9 456 0 458 -15 c 2
 460 -26 l 1
 412 -26 l 2
 365 -26 357 -26 352 -19 c 0
 351 -18 351 -4 352 10 c 2
 354 36 l 1
 342 48 l 2
 331 59 329 63 325 78 c 0
 319 100 316 116 316 129 c 0
 316 134 316 138 317 142 c 0
 318 147 318 151 318 155 c 0
 318 176 306 182 281 186 c 1
 279 174 l 2
 277 156 271 150 247 150 c 0
 219 150 216 160 214 183 c 1
 200 183 l 2
 185 183 180 180 177 169 c 0
 175 161 181 155 190 153 c 0
 204 150 211 137 211 114 c 0
 211 111 211 108 211 105 c 0
 210 83 204 71 191 62 c 0
 177 52 173 43 173 17 c 0
239 480 m 0
 236 479 233 479 230 479 c 0
 206 479 185 509 169 513 c 0
 166 514 158 511 144 504 c 2
 123 494 l 1
 130 486 l 2
 141 473 153 462 160 459 c 0
 164 457 176 457 190 457 c 2
 213 458 l 1
 215 446 l 2
 218 434 224 430 230 423 c 1
 236 430 241 434 244 446 c 2
 246 458 l 1
 269 457 l 2
 283 457 295 457 299 459 c 0
 306 462 318 473 329 486 c 2
 336 494 l 1
 315 504 l 2
 304 509 298 512 293 512 c 0
 286 512 280 508 266 497 c 0
 257 490 244 482 239 480 c 0
212 422 m 2
 203 431 195 439 194 439 c 0
 193 439 179 425 163 409 c 2
 134 380 l 1
 142 372 151 362 159 354 c 1
 171 366 182 378 194 390 c 1
 206 378 218 366 230 354 c 1
 242 366 253 378 265 390 c 1
 277 378 288 366 300 354 c 1
 326 380 l 1
 306 400 285 420 265 440 c 1
 230 405 l 1
 212 422 l 2
EndSplineSet
EndChar

StartChar: Gcircumflex
Encoding: 284 284 219
Width: 565
VWidth: 0
Flags: HW
LayerCount: 2
Back
Fore
SplineSet
105 397 m 1
 109 389 128 360 134 360 c 0
 135 360 137 365 139 373 c 0
 148 417 187 457 229 466 c 0
 233 467 237 467 241 467 c 0
 253 467 267 464 280 458 c 0
 297 450 305 443 323 419 c 0
 333 406 342 397 346 395 c 0
 355 391 360 382 360 374 c 0
 360 371 360 368 358 366 c 0
 356 363 351 362 346 362 c 0
 336 362 323 366 317 369 c 0
 305 375 303 378 282 412 c 0
 273 426 264 433 252 433 c 0
 245 433 237 430 227 426 c 0
 198 413 180 384 176 350 c 1
 174 337 l 1
 180 347 l 2
 188 362 206 382 219 388 c 0
 227 392 235 394 241 394 c 0
 249 394 254 391 254 385 c 0
 254 377 244 369 231 362 c 0
 217 355 212 349 212 340 c 0
 212 331 220 323 237 315 c 0
 256 306 278 300 328 293 c 0
 452 275 496 251 496 200 c 0
 496 162 473 124 437 107 c 0
 393 86 349 80 222 80 c 0
 219 80 215 80 211 80 c 0
 133 80 37 80 37 36 c 0
 37 22 51 13 92 -1 c 0
 115 -8 121 -11 121 -13 c 0
 121 -14 121 -14 120 -15 c 0
 116 -19 85 -24 66 -24 c 0
 64 -24 63 -24 62 -24 c 0
 23 -22 3 0 3 43 c 0
 3 45 3 47 3 49 c 0
 4 68 4 74 10 87 c 0
 23 114 46 130 84 140 c 0
 114 147 142 150 224 151 c 0
 300 152 334 155 346 160 c 0
 350 162 353 164 353 166 c 0
 353 176 312 190 223 213 c 0
 148 232 95 247 58 287 c 0
 37 309 31 325 31 357 c 0
 31 360 31 362 31 365 c 2
 32 390 l 1
 20 411 l 2
 6 437 3 449 3 471 c 0
 3 475 3 480 3 485 c 0
 4 520 7 528 36 562 c 0
 63 594 85 611 96 611 c 0
 103 611 105 602 101 590 c 0
 96 574 87 562 63 535 c 0
 51 522 40 508 38 504 c 0
 36 499 35 491 35 483 c 0
 35 468 38 451 43 445 c 0
 46 441 47 440 48 445 c 0
 49 448 53 459 58 468 c 0
 93 540 158 592 234 609 c 0
 246 611 255 613 274 613 c 0
 278 613 283 613 288 613 c 0
 331 612 355 607 382 594 c 0
 399 586 404 582 434 551 c 0
 470 514 479 508 505 502 c 0
 525 497 534 493 534 487 c 0
 534 485 533 483 531 480 c 0
 525 471 513 467 491 467 c 0
 472 467 470 467 454 475 c 0
 439 482 431 489 403 517 c 0
 356 563 340 571 307 573 c 0
 304 573 302 573 299 573 c 0
 225 573 114 522 100 457 c 0
 99 450 100 452 119 471 c 0
 150 502 186 523 221 533 c 0
 232 536 244 537 257 537 c 0
 271 537 285 536 295 532 c 0
 326 522 345 506 386 456 c 0
 422 411 433 403 465 398 c 0
 476 396 487 394 490 393 c 0
 504 386 507 376 498 369 c 0
 492 364 473 360 457 360 c 0
 454 360 450 361 447 361 c 0
 418 364 400 378 360 431 c 0
 331 469 314 486 297 494 c 0
 285 500 274 502 260 502 c 0
 254 502 247 502 240 501 c 0
 194 495 164 475 124 422 c 2
 105 397 l 1
EndSplineSet
EndChar

